<svg width="528" height="429" viewBox="0 0 528 429" fill="none" xmlns="http://www.w3.org/2000/svg">
<circle cx="258.343" cy="164.057" r="131.093" stroke="#4F9CF9" stroke-width="1.81443" stroke-dasharray="13.61 13.61"/>
<circle cx="165" cy="296.057" r="131.093" stroke="#4F9CF9" stroke-width="1.81443" stroke-dasharray="13.61 13.61"/>
<circle cx="363" cy="296.057" r="131.093" stroke="#4F9CF9" stroke-width="1.81443" stroke-dasharray="13.61 13.61"/>
<circle cx="389.401" cy="166.885" r="33" fill="white"/>
<g clip-path="url(#clip0_9_10404)">
<path d="M384.097 168.046C381.812 168.046 379.954 169.904 379.954 172.189V182.543C379.954 184.827 381.812 186.686 384.097 186.686C386.381 186.686 388.24 184.827 388.24 182.543V172.189C388.24 169.904 386.381 168.046 384.097 168.046Z" fill="#FF4340"/>
<path d="M377.635 168.046H373.624C371.412 168.046 369.613 169.845 369.613 172.057C369.613 174.269 371.412 176.068 373.624 176.068C375.835 176.068 377.635 174.269 377.635 172.057V168.046Z" fill="#FF4340"/>
<path d="M369.6 161.582C369.6 163.867 371.459 165.726 373.743 165.726H384.097C386.382 165.726 388.24 163.867 388.24 161.582C388.24 159.298 386.382 157.439 384.097 157.439H373.743C371.459 157.439 369.6 159.298 369.6 161.582V161.582Z" fill="#36C6FF"/>
<path d="M384.231 155.119H388.242V151.107C388.242 148.896 386.442 147.096 384.231 147.096C382.019 147.096 380.219 148.896 380.219 151.107C380.219 153.319 382.019 155.119 384.231 155.119Z" fill="#36C6FF"/>
<path d="M394.703 165.725C396.988 165.725 398.847 163.867 398.847 161.582V151.229C398.847 148.944 396.988 147.085 394.703 147.085C392.419 147.085 390.56 148.944 390.56 151.229V161.582C390.56 163.867 392.419 165.725 394.703 165.725Z" fill="#0DC46E"/>
<path d="M401.167 165.726H405.178C407.39 165.726 409.189 163.926 409.189 161.715C409.189 159.503 407.39 157.704 405.178 157.704C402.966 157.704 401.167 159.503 401.167 161.715V165.726Z" fill="#0DC46E"/>
<path d="M409.2 172.189C409.2 169.904 407.342 168.046 405.057 168.046H394.703C392.419 168.046 390.56 169.904 390.56 172.189C390.56 174.474 392.419 176.332 394.703 176.332H405.057C407.342 176.332 409.2 174.474 409.2 172.189Z" fill="#FDCB02"/>
<path d="M394.572 178.652H390.561V182.663C390.561 184.875 392.36 186.674 394.572 186.674C396.783 186.674 398.583 184.875 398.583 182.663C398.583 180.452 396.783 178.652 394.572 178.652Z" fill="#FDCB02"/>
</g>
<circle cx="33" cy="285.686" r="33" fill="white"/>
<g clip-path="url(#clip1_9_10404)">
<path d="M51.5615 274.549H34.2365C33.5534 274.549 32.999 275.103 32.999 275.786C32.999 276.469 33.5534 277.024 34.2365 277.024H47.9555L40.3522 282.936L34.8998 279.469L33.5732 281.558L39.7607 285.493C39.9612 285.622 40.1938 285.686 40.424 285.686C40.6913 285.686 40.9611 285.599 41.1838 285.426L50.324 278.316V294.349H34.2365C33.5534 294.349 32.999 294.903 32.999 295.586C32.999 296.269 33.5534 296.824 34.2365 296.824H51.5615C52.2446 296.824 52.799 296.269 52.799 295.586V275.786C52.799 275.103 52.2446 274.549 51.5615 274.549Z" fill="#1976D2"/>
<path d="M35.0267 267.408C34.7446 267.173 34.3659 267.072 34.0095 267.146L14.2095 270.859C13.6229 270.967 13.1997 271.477 13.1997 272.074V299.299C13.1997 299.893 13.6229 300.405 14.2095 300.514L34.0095 304.226C34.0838 304.241 34.1605 304.249 34.2372 304.249C34.5243 304.249 34.804 304.15 35.0267 303.964C35.3114 303.729 35.4747 303.378 35.4747 303.011V268.361C35.4747 267.992 35.3114 267.643 35.0267 267.408Z" fill="#2196F3"/>
<path d="M24.3381 294.348C20.9276 294.348 18.1506 291.017 18.1506 286.923C18.1506 282.83 20.9276 279.498 24.3381 279.498C27.7487 279.498 30.5256 282.83 30.5256 286.923C30.5256 291.017 27.7487 294.348 24.3381 294.348ZM24.3381 281.973C22.2913 281.973 20.6256 284.193 20.6256 286.923C20.6256 289.653 22.2913 291.873 24.3381 291.873C26.385 291.873 28.0506 289.653 28.0506 286.923C28.0506 284.193 26.385 281.973 24.3381 281.973Z" fill="#FAFAFA"/>
</g>
<circle cx="495" cy="285.686" r="33" fill="white"/>
<g clip-path="url(#clip2_9_10404)">
<path d="M494.965 278.395L486.746 292.65H486.723L491.482 298.454L480.802 302.935C480.593 302.819 480.431 302.657 480.338 302.494L475.323 293.207C475.068 292.696 475.277 292.302 475.346 292.07L488.789 268.853C488.882 268.713 489.021 268.574 489.207 268.458H489.23L496.125 270.594L494.965 278.395Z" fill="#59C36A"/>
<path d="M514.799 292.65L505.489 298.455L503.284 292.65L494.964 278.395L489.23 268.458C489.392 268.342 489.601 268.272 489.787 268.272H500.219C500.451 268.342 500.916 268.319 501.217 268.853L514.66 292.07C514.753 292.232 514.799 292.441 514.799 292.65Z" fill="#FFDA2D"/>
<path d="M501.218 268.854C500.917 268.32 500.452 268.343 500.22 268.273H494.965V278.396L503.285 292.651L505.49 298.455L514.8 292.651C514.8 292.442 514.754 292.233 514.661 292.071L501.218 268.854Z" fill="#FDBF00"/>
<path d="M514.8 292.65C514.8 292.859 514.753 293.068 514.684 293.208L509.669 302.494C509.483 302.796 509.042 303.098 508.647 303.098H481.36C481.174 303.098 480.965 303.028 480.802 302.935L486.723 292.65H514.8Z" fill="#4086F4"/>
<path d="M494.965 303.098H508.648C509.043 303.098 509.484 302.796 509.669 302.494L514.684 293.208C514.754 293.068 514.8 292.859 514.8 292.65H494.965V303.098H494.965Z" fill="#4175DF"/>
</g>
<circle cx="126.342" cy="166.885" r="33" fill="white"/>
<g clip-path="url(#clip3_9_10404)">
<path d="M114.321 176.715V173.532L119.696 176.644L126.343 170.421V184.564L114.321 176.715Z" fill="#0093EB"/>
<path d="M107.887 168.3L114.888 161.936L126.344 169.007L119.697 175.23L107.887 168.3Z" fill="#0093EB"/>
<path d="M114.887 161.935L106.542 155.571L118.564 149.207L127.05 154.864L114.887 161.935Z" fill="#0093EB"/>
<path d="M138.363 176.785L126.342 184.564V170.421L133.201 176.361L138.363 173.108V176.785Z" fill="#0093EB"/>
<path d="M133.201 174.946L126.342 169.006L137.868 161.652L144.798 167.592L133.201 174.946Z" fill="#0093EB"/>
<path d="M137.868 161.652L127.049 154.864L135.535 149.207L146.142 155.571L137.868 161.652Z" fill="#0093EB"/>
</g>
<circle cx="264" cy="379.028" r="33" fill="white"/>
<g clip-path="url(#clip4_9_10404)">
<path d="M280.274 370.985H247.789C247.148 370.985 246.629 370.466 246.629 369.824V362.709C246.629 360.79 248.19 359.228 250.11 359.228H277.953C279.873 359.228 281.434 360.79 281.434 362.709V369.824C281.434 370.466 280.915 370.985 280.274 370.985Z" fill="#E3E7EA"/>
<path d="M277.953 359.228H264.031V370.985H280.273C280.914 370.985 281.433 370.466 281.433 369.824V362.709C281.433 360.79 279.872 359.228 277.953 359.228Z" fill="#BABAC0"/>
<path d="M246.584 383.746C246.585 383.744 246.585 383.744 246.585 383.744L244.277 372.748C244.114 371.704 244.393 370.66 245.043 369.894C245.715 369.105 246.69 368.664 247.711 368.664H280.288C281.309 368.664 282.283 369.105 282.956 369.894C283.606 370.66 283.885 371.704 283.722 372.702L281.414 383.749L283.722 394.745C283.885 395.789 283.606 396.833 282.956 397.599C282.283 398.388 281.309 398.828 280.288 398.828H247.711C246.69 398.828 245.715 398.388 245.042 397.599C244.393 396.833 244.114 395.789 244.277 394.791C244.277 394.791 246.544 383.938 246.584 383.746Z" fill="#4086F4"/>
<path d="M246.585 383.744C246.585 383.744 246.585 383.744 246.584 383.746H281.415L283.722 372.702C283.885 371.704 283.606 370.66 282.956 369.894C282.283 369.105 281.309 368.664 280.288 368.664H247.711C246.69 368.664 245.715 369.105 245.042 369.894C244.393 370.66 244.114 371.704 244.277 372.748L246.585 383.744Z" fill="#4175DF"/>
<path d="M252.398 366.189C253.038 366.189 253.558 365.67 253.558 365.029C253.558 364.388 253.038 363.869 252.398 363.869C251.757 363.869 251.238 364.388 251.238 365.029C251.238 365.67 251.757 366.189 252.398 366.189Z" fill="#FFF5F5"/>
<path d="M275.601 366.189C276.242 366.189 276.761 365.67 276.761 365.029C276.761 364.388 276.242 363.869 275.601 363.869C274.96 363.869 274.441 364.388 274.441 365.029C274.441 365.67 274.96 366.189 275.601 366.189Z" fill="#E3E7EA"/>
<path d="M259.359 391.867C257.396 391.867 255.637 390.624 254.983 388.773C254.769 388.169 255.085 387.506 255.69 387.293C256.292 387.078 256.957 387.396 257.17 388C257.497 388.925 258.377 389.547 259.359 389.547C260.638 389.547 261.679 388.506 261.679 387.227C261.679 385.947 260.638 384.906 259.359 384.906H257.916C257.276 384.906 256.756 384.387 256.756 383.746C256.756 383.105 257.276 382.586 257.916 382.586H259.359C260.638 382.586 261.679 381.545 261.679 380.266C261.679 378.987 260.638 377.945 259.359 377.945C258.377 377.945 257.497 378.567 257.17 379.492C256.957 380.097 256.29 380.414 255.69 380.199C255.085 379.986 254.769 379.323 254.983 378.719C255.637 376.868 257.396 375.625 259.359 375.625C261.918 375.625 263.999 377.706 263.999 380.266C263.999 381.65 263.39 382.895 262.424 383.746C263.39 384.597 263.999 385.842 263.999 387.227C263.999 389.786 261.918 391.867 259.359 391.867Z" fill="#FFF5F5"/>
<path d="M255.69 380.199C256.29 380.414 256.957 380.097 257.17 379.492C257.497 378.567 258.377 377.945 259.359 377.945C260.638 377.945 261.679 378.987 261.679 380.266C261.679 381.545 260.638 382.586 259.359 382.586H257.916C257.276 382.586 256.756 383.105 256.756 383.746H262.425C263.39 382.895 263.999 381.65 263.999 380.266C263.999 377.706 261.918 375.625 259.359 375.625C257.396 375.625 255.637 376.868 254.983 378.719C254.769 379.323 255.085 379.986 255.69 380.199Z" fill="#E3E7EA"/>
<path d="M270.961 391.867C270.32 391.867 269.801 391.348 269.801 390.707V378.952L268.124 380.071C267.589 380.424 266.87 380.281 266.515 379.749C266.16 379.215 266.303 378.496 266.837 378.14L270.318 375.82C270.673 375.583 271.132 375.56 271.508 375.762C271.886 375.964 272.121 376.357 272.121 376.785V390.707C272.121 391.348 271.602 391.867 270.961 391.867Z" fill="#FFF5F5"/>
<path d="M268.124 380.071L269.801 378.953V383.746H272.121V376.785C272.121 376.357 271.886 375.964 271.508 375.762C271.132 375.561 270.673 375.583 270.318 375.82L266.837 378.14C266.303 378.496 266.16 379.216 266.515 379.749C266.87 380.282 267.589 380.425 268.124 380.071Z" fill="#E3E7EA"/>
</g>
<circle cx="261.172" cy="33.9429" r="33" fill="white"/>
<g clip-path="url(#clip5_9_10404)">
<path d="M276.022 19.0925H246.322V48.7925H276.022V19.0925Z" fill="#ECEFF1"/>
<path d="M261.171 37.0662L276.021 48.7928V25.6416L261.171 37.0662Z" fill="#CFD8DC"/>
<path d="M277.259 19.0928H276.021L261.171 30.8193L246.321 19.0928H245.084C243.035 19.0928 241.371 20.756 241.371 22.8053V45.0803C241.371 47.1296 243.035 48.7928 245.084 48.7928H246.321V25.6416L261.171 37.0637L276.021 25.6391V48.7928H277.259C279.308 48.7928 280.971 47.1296 280.971 45.0803V22.8053C280.971 20.756 279.308 19.0928 277.259 19.0928Z" fill="#F44336"/>
</g>
<circle cx="263.057" cy="253.628" r="47.1429" fill="white"/>
<path d="M237 238.62V247.702C237 250.468 240.454 251.943 242.565 250.007L252.641 240.925C254.848 238.943 253.408 235.439 250.386 235.439H240.31C238.487 235.439 237 236.869 237 238.62Z" fill="#5986EF"/>
<path d="M284.69 235.439H274.614C271.64 235.439 270.152 238.943 272.359 240.925L282.435 250.007C284.546 251.897 288 250.468 288 247.702V238.62C288 236.869 286.513 235.439 284.69 235.439Z" fill="#5986EF"/>
<path d="M264.779 257.613L282.435 273.564C284.546 275.454 288 274.025 288 271.259V262.085C288 261.209 287.616 260.379 286.944 259.78L264.779 239.727C263.484 238.574 261.516 238.574 260.221 239.727L238.056 259.78C237.384 260.379 237 261.209 237 262.085V271.259C237 274.025 240.454 275.5 242.565 273.564L260.221 257.613C261.516 256.461 263.484 256.461 264.779 257.613Z" fill="#5986EF"/>
<defs>
<clipPath id="clip0_9_10404">
<rect width="39.6" height="39.6" fill="white" transform="translate(369.601 147.085)"/>
</clipPath>
<clipPath id="clip1_9_10404">
<rect width="39.6" height="39.6" fill="white" transform="translate(13.1997 265.885)"/>
</clipPath>
<clipPath id="clip2_9_10404">
<rect width="39.6" height="39.6" fill="white" transform="translate(475.2 265.885)"/>
</clipPath>
<clipPath id="clip3_9_10404">
<rect width="39.6" height="39.6" fill="white" transform="translate(106.542 147.085)"/>
</clipPath>
<clipPath id="clip4_9_10404">
<rect width="39.6" height="39.6" fill="white" transform="translate(244.2 359.228)"/>
</clipPath>
<clipPath id="clip5_9_10404">
<rect width="39.6" height="39.6" fill="white" transform="translate(241.372 14.1428)"/>
</clipPath>
</defs>
</svg>
