<svg width="660" height="25" viewBox="0 0 660 25" fill="none" xmlns="http://www.w3.org/2000/svg">
<path d="M620.765 16.0688C619.861 16.0838 618.948 16.0941 618.062 16.1166C617.487 16.1307 617.24 16.0894 616.857 16.0679C616.729 16.0604 616.592 16.0454 616.473 16.0473C615.579 16.0623 614.684 16.0791 613.789 16.096C613.515 16.1326 613.342 16.1813 612.922 16.1991C612.511 16.216 612.027 16.216 611.57 16.2244C610.968 16.2347 610.365 16.245 609.762 16.2544C609.461 16.2591 609.215 16.2769 609.114 16.3106C609.096 16.3163 609.297 16.3303 609.406 16.3388C609.771 16.3669 610.127 16.3988 610.529 16.4203C610.913 16.4409 611.388 16.4072 611.799 16.4334C612.721 16.4925 612.73 16.4916 613.433 16.4803C614.036 16.47 614.638 16.4587 615.241 16.4513C615.36 16.4494 615.496 16.4634 615.624 16.4709C616.008 16.4916 616.254 16.5384 616.82 16.5206C617.25 16.5066 617.724 16.5037 618.172 16.4962C618.546 16.5234 618.893 16.5544 619.295 16.5759C619.669 16.5965 619.779 16.6125 619.578 16.6397C619.395 16.665 619.14 16.6753 618.802 16.6772C618.5 16.6781 618.199 16.6865 617.898 16.6912C617.743 16.694 617.597 16.6959 617.45 16.6987C616.875 16.709 616.875 16.709 615.825 16.649C615.414 16.6256 614.949 16.6584 614.556 16.6359C614.291 16.6209 614.063 16.5984 613.807 16.5825C613.698 16.5759 613.524 16.575 613.387 16.5769C612.931 16.5834 612.474 16.5881 612.036 16.6003C611.725 16.6087 611.543 16.635 611.579 16.6612C611.588 16.6715 611.808 16.6865 611.935 16.6875C612.228 16.6893 612.538 16.6762 612.821 16.6828C613.095 16.6893 613.378 16.7081 613.579 16.7287C613.99 16.7718 614.455 16.7334 614.848 16.7446C615.259 16.7568 615.597 16.7943 615.989 16.8168C616.09 16.8224 616.282 16.8131 616.437 16.8102C616.884 16.8037 617.332 16.7981 617.779 16.7915C618.154 16.8187 618.555 16.8431 618.893 16.874C619.505 16.9302 620.162 16.9518 620.957 16.9246C621.404 16.9096 621.842 16.9152 622.198 16.9518C622.564 16.9893 622.984 16.9855 623.449 16.978C623.879 16.9705 624.317 16.9499 624.755 16.9762C625.705 17.0343 625.714 17.0371 626.837 17.0146C627.175 17.008 627.43 17.0062 627.686 17.0277C627.923 17.0474 628.179 17.0643 628.426 17.083C628.873 17.0765 629.33 17.0699 629.777 17.0624C630.352 17.0521 630.672 17.0652 630.809 17.1177C630.891 17.1496 630.928 17.1786 631.128 17.2002C631.366 17.2264 631.621 17.2255 631.968 17.218C632.297 17.2114 632.534 17.2011 632.671 17.1674C632.726 17.1533 632.836 17.1402 632.936 17.1289C633.018 17.1205 633.146 17.1074 633.219 17.1093C633.356 17.113 633.539 17.1233 633.585 17.1355C634.032 17.2489 634.032 17.2499 634.488 17.2827C634.991 17.3192 635.511 17.352 635.968 17.3933C636.379 17.4298 636.789 17.4139 637.237 17.4139C637.575 17.4139 637.794 17.4383 637.767 17.4626C637.748 17.4767 637.62 17.4973 637.511 17.4992C636.616 17.5179 635.712 17.5339 634.808 17.547C634.699 17.5489 634.562 17.532 634.434 17.5236C634.178 17.5067 633.95 17.4804 633.676 17.4748C633.402 17.4692 633.082 17.4833 632.781 17.4879C632.48 17.4926 632.16 17.5048 631.886 17.4973C631.612 17.4898 631.393 17.4626 631.138 17.4448C631.019 17.4364 630.855 17.4242 630.754 17.427C630.088 17.4495 629.594 17.4186 629.12 17.3773C629.019 17.3689 628.846 17.3633 628.718 17.3652C627.659 17.3811 626.609 17.3998 625.55 17.4176C625.12 17.4251 624.773 17.3923 624.682 17.337C624.636 17.3061 624.545 17.2752 624.545 17.2442C624.545 17.188 624.043 17.1571 623.678 17.1636C623.075 17.173 622.463 17.1805 621.87 17.1946C621.386 17.2058 620.975 17.1946 620.646 17.1608C620.263 17.1224 619.825 17.1299 619.386 17.1402C619.058 17.1477 618.966 17.1786 618.984 17.2564C619.003 17.3192 618.847 17.3389 618.254 17.3492C617.505 17.3623 616.747 17.3755 615.989 17.3858C615.871 17.3877 615.734 17.3717 615.615 17.3633C615.359 17.3464 615.131 17.3192 614.857 17.3136C614.583 17.307 614.264 17.3211 613.962 17.3267C613.661 17.3314 613.341 17.3445 613.068 17.338C612.794 17.3314 612.565 17.3033 612.319 17.2855C612.2 17.277 612.054 17.2649 611.935 17.2667C611.333 17.2742 610.73 17.2855 610.128 17.2958C609.452 17.307 609.452 17.307 608.493 17.2489C608.055 17.2227 607.617 17.2433 607.187 17.2508C606.731 17.2583 606.302 17.262 605.945 17.2246C605.708 17.2002 605.443 17.1852 605.16 17.1899C604.402 17.2011 603.654 17.2152 602.896 17.2264C602.768 17.2283 602.595 17.2236 602.494 17.2152C602.01 17.1758 601.535 17.1449 600.86 17.1646C600.275 17.1814 599.645 17.1824 599.061 17.1983C598.741 17.2067 598.595 17.2367 598.659 17.2602C598.696 17.2724 598.887 17.2864 599.015 17.2864C599.308 17.2874 599.627 17.2733 599.901 17.2789C600.467 17.2902 600.75 17.3689 601.49 17.3473C601.928 17.3342 602.385 17.3295 602.841 17.3258C602.96 17.3248 603.088 17.3427 603.215 17.352C603.581 17.3773 603.9 17.4101 604.43 17.3933C604.868 17.3801 605.334 17.3764 605.781 17.3689C606.493 17.3567 606.493 17.3577 607.416 17.4148C607.854 17.442 608.292 17.4205 608.721 17.4139C609.041 17.4092 609.342 17.3998 609.598 17.413C609.99 17.4326 610.274 17.4776 610.757 17.4748C611.214 17.472 611.661 17.4589 612.118 17.4542C612.401 17.4514 612.666 17.4664 612.894 17.4917C613.132 17.517 613.387 17.5282 613.698 17.5226C614.145 17.5151 614.602 17.5058 615.058 17.5011C615.186 17.5001 615.332 17.5086 615.451 17.5161C615.706 17.5329 615.953 17.5526 616.199 17.5704C616.647 17.5648 617.104 17.5629 617.542 17.5517C617.88 17.5433 618.117 17.547 618.391 17.5657C618.738 17.5911 619.021 17.6361 619.587 17.6145C619.87 17.6042 620.199 17.607 620.482 17.5976C620.829 17.5854 621.066 17.5901 621.313 17.6182C621.778 17.6717 622.363 17.6726 622.966 17.652C623.623 17.6295 624.116 17.6557 624.609 17.697C625.13 17.7401 625.13 17.7392 625.531 17.8432C625.65 17.8732 625.988 17.8873 626.271 17.8816C626.746 17.8723 627.157 17.8769 627.503 17.9126C627.869 17.951 628.307 17.9463 628.754 17.936C629.348 17.9219 629.941 17.9098 630.425 17.9641C630.663 17.9904 630.919 17.9969 631.238 17.9904C632.142 17.9735 633.055 17.9632 633.941 17.9426C634.48 17.9294 634.79 17.9594 635.155 17.9847C635.648 18.0194 636.187 18.0503 636.187 18.1244C636.187 18.1366 636.315 18.1506 636.424 18.16C636.662 18.1797 636.917 18.1966 637.164 18.2153C637.529 18.2434 637.885 18.2669 638.387 18.2519C638.826 18.2397 639.291 18.2359 639.739 18.2275C640.186 18.2191 640.597 18.2144 640.999 18.25C641.465 18.2903 641.958 18.3287 642.487 18.3587C642.861 18.3803 643.355 18.3437 643.756 18.3728C644.003 18.3906 644.24 18.4112 644.505 18.4262C644.615 18.4328 644.788 18.4281 644.934 18.4262C645.236 18.4225 645.546 18.4197 645.838 18.4103C646.176 18.4 646.432 18.4019 646.687 18.4234C646.925 18.4431 647.162 18.4703 647.436 18.4759C647.847 18.4843 648.304 18.4468 648.714 18.49C648.924 18.5115 649.189 18.5321 649.463 18.5387C649.737 18.5453 650.057 18.5312 650.349 18.5321C650.477 18.5321 650.632 18.5471 650.705 18.5593C650.75 18.5659 650.687 18.5837 650.623 18.5931C650.541 18.6043 650.422 18.6193 650.303 18.6212C649.399 18.6381 648.495 18.6521 647.591 18.6681C647.053 18.6774 647.053 18.6774 645.966 18.6184C645.71 18.6043 645.427 18.6071 645.108 18.6137C644.679 18.6221 644.24 18.6381 643.793 18.6212C643.209 18.5575 642.487 18.5518 641.72 18.5762C641.401 18.5865 641.108 18.5865 640.871 18.5687C640.369 18.5331 639.839 18.5003 639.392 18.4581C639.045 18.4253 638.881 18.4225 638.734 18.4675C638.689 18.4815 638.643 18.4965 638.652 18.5096C638.707 18.5565 638.807 18.6024 638.862 18.6493C638.88 18.6624 638.808 18.6774 638.762 18.6915C638.616 18.7309 638.424 18.728 638.104 18.6952C637.785 18.6624 637.401 18.6409 636.89 18.6559C636.452 18.669 635.977 18.6671 635.539 18.6812C634.863 18.7018 634.388 18.6718 633.904 18.6315C633.804 18.6231 633.63 18.6184 633.503 18.6203C632.142 18.6418 630.791 18.6662 629.43 18.6877C629.138 18.6924 628.873 18.6784 628.645 18.6531C628.407 18.6278 628.143 18.6146 627.85 18.6193C626.645 18.639 625.44 18.6568 624.235 18.6812C623.741 18.6915 623.349 18.6793 623.011 18.6465C622.756 18.6221 622.518 18.6146 622.198 18.6174C621.851 18.6203 621.605 18.6296 621.432 18.6568C621.267 18.6831 621.386 18.699 621.751 18.7196C622.144 18.7421 622.509 18.7712 622.883 18.7974C623.185 18.7937 623.486 18.7862 623.778 18.7871C623.906 18.7871 624.025 18.804 624.153 18.8133C624.518 18.8405 624.855 18.8677 625.376 18.8527C625.814 18.8396 626.28 18.8368 626.727 18.8283C627.348 18.818 627.348 18.818 628.353 18.8771C628.608 18.8921 628.882 18.8911 629.211 18.8827C629.494 18.8761 629.786 18.8893 629.987 18.9174C630.069 18.9286 630.042 18.9474 629.868 19.0093C629.868 19.0552 630.06 19.0346 630.124 19.0046C630.224 18.9614 630.033 18.9474 629.667 18.9708C629.412 18.9877 629.284 19.0121 629.348 19.0317C629.384 19.0421 629.558 19.0552 629.868 19.0093C630.672 18.953 631.284 18.9464 631.868 18.9314C632.215 18.923 632.434 18.9268 632.708 18.9511C633.037 18.9802 633.366 19.0111 633.904 18.9961C634.489 18.9793 635.109 18.9774 635.703 18.9633C636.251 18.9502 636.534 18.9914 636.881 19.0158C637.301 19.0449 637.766 19.0121 638.15 19.0289C638.552 19.0458 638.835 19.087 639.3 19.0945C639.976 19.0692 640.405 19.1161 640.917 19.147C641.318 19.1705 641.793 19.1498 642.222 19.1395C642.706 19.1283 643.108 19.1386 643.446 19.1723C643.829 19.2108 644.259 19.2023 644.697 19.1939C645.72 19.1752 645.756 19.1723 646.349 19.2239C646.779 19.2614 647.19 19.2445 647.619 19.2398C647.993 19.2651 648.358 19.2923 648.751 19.3148C648.851 19.3204 649.043 19.3111 649.198 19.3083C649.646 19.3008 650.102 19.2933 650.55 19.2858C650.851 19.2811 651.171 19.267 651.445 19.2726C651.718 19.2792 651.947 19.3064 652.193 19.3242C652.44 19.342 652.696 19.3598 652.933 19.3786C653.298 19.4067 653.645 19.4301 654.156 19.4161C654.595 19.4039 655.051 19.4001 655.508 19.3917C656.083 19.3814 656.065 19.3842 657.133 19.4404C657.708 19.4714 658.302 19.4339 658.886 19.4301C659.178 19.4282 659.461 19.4386 659.662 19.4657C659.744 19.477 659.717 19.4957 659.745 19.5117C658.238 19.537 656.722 19.5585 655.234 19.5895C654.658 19.6016 654.357 19.5679 654.047 19.5398C653.536 19.4948 652.86 19.5604 652.376 19.5023C652.084 19.4676 651.664 19.4479 651.161 19.4648C650.869 19.4742 650.559 19.4732 650.257 19.4817C649.49 19.5023 648.787 19.5032 648.176 19.4385C647.966 19.4161 647.664 19.4039 647.445 19.3823C647.19 19.3589 646.943 19.3457 646.642 19.3504C645.281 19.3729 643.93 19.3954 642.578 19.4198C642.46 19.4217 642.341 19.4357 642.241 19.446C641.985 19.4723 642.067 19.4929 642.478 19.5098C642.615 19.5154 642.725 19.5276 642.852 19.537C643.099 19.5548 643.327 19.5829 643.601 19.5895C643.875 19.596 644.195 19.5829 644.496 19.5782C644.797 19.5735 645.117 19.5595 645.391 19.5651C645.665 19.5717 645.893 19.5988 646.149 19.6157C646.267 19.6241 646.414 19.6382 646.532 19.6373C647.135 19.6316 647.728 19.6213 648.331 19.6129C648.705 19.6382 649.025 19.6748 649.472 19.6832C649.755 19.6888 650.057 19.6785 650.349 19.6804C650.477 19.6813 650.641 19.6954 650.705 19.7076C650.741 19.7151 650.623 19.7338 650.531 19.7432C650.184 19.7788 649.71 19.7722 649.281 19.7835C648.815 19.7957 648.395 19.7919 648.039 19.7554C647.801 19.731 647.536 19.7179 647.244 19.7226C646.486 19.7348 645.738 19.7488 644.98 19.7591C644.852 19.761 644.697 19.7526 644.578 19.746C643.619 19.6888 643.619 19.6869 642.944 19.6991C641.948 19.7169 641.949 19.7169 641.282 19.6673C641.154 19.6579 641.017 19.6401 640.907 19.641C639.848 19.656 638.798 19.671 637.748 19.6926C637.401 19.6991 637.164 19.6991 636.908 19.6748C636.689 19.6541 636.433 19.6307 636.159 19.6251C635.876 19.6195 635.566 19.6335 635.265 19.6382C634.963 19.6429 634.644 19.6551 634.379 19.6476C634.105 19.6401 633.868 19.6138 633.63 19.5951C633.384 19.5754 633.119 19.5763 632.781 19.5838C631.74 19.6054 631.731 19.6026 630.699 19.5445C630.581 19.5379 630.425 19.5304 630.298 19.5323C629.54 19.5435 628.791 19.5576 628.033 19.5688C627.741 19.5735 627.458 19.5613 627.257 19.5342C627.175 19.5229 627.202 19.5042 627.147 19.4676C627.084 19.4592 627.156 19.4742 627.175 19.4882C627.312 19.4864 627.476 19.4882 627.577 19.4807C627.832 19.4629 627.96 19.4395 627.896 19.4198C627.86 19.4095 627.686 19.3964 627.577 19.3964C627.376 19.3964 627.202 19.417 627.147 19.4676C626.572 19.4985 625.96 19.5051 625.367 19.5201C625.02 19.5295 624.801 19.5248 624.527 19.5004C624.198 19.4704 623.86 19.4414 623.321 19.4564C622.737 19.4732 622.116 19.476 621.514 19.4892C620.82 19.5042 620.518 19.4198 619.934 19.4217C619.331 19.4235 618.729 19.4395 618.126 19.4507C617.597 19.4601 617.596 19.4601 616.501 19.3992C616.099 19.3767 615.624 19.4095 615.232 19.3861C614.967 19.3711 614.739 19.3486 614.483 19.3326C614.373 19.3261 614.2 19.3261 614.063 19.3279C613.305 19.3392 612.538 19.3467 611.808 19.3673C610.977 19.3917 610.347 19.3654 609.753 19.3101C609.004 19.3204 608.247 19.3261 607.507 19.3439C606.968 19.357 606.658 19.3261 606.293 19.3008C606.165 19.2923 606.055 19.2783 605.918 19.2745C605.781 19.2708 605.617 19.2783 605.471 19.2811C604.868 19.2914 604.247 19.2961 603.663 19.313C602.941 19.3345 602.668 19.2576 602.111 19.2483C601.736 19.2942 601.535 19.357 600.796 19.3617C600.193 19.3654 599.591 19.3804 598.988 19.3907C598.687 19.3954 598.385 19.4011 598.084 19.4057C597.6 19.4142 597.372 19.4507 597.472 19.507C597.527 19.5379 597.573 19.5688 597.618 19.5998C597.71 19.6551 597.481 19.7019 597.098 19.7085C596.039 19.7263 594.989 19.7451 593.929 19.761C593.646 19.7657 593.372 19.7497 593.144 19.7244C592.907 19.6991 592.642 19.6879 592.35 19.6926C591.291 19.7104 590.241 19.7291 589.181 19.7451C589.063 19.7469 588.908 19.7376 588.789 19.7301C588.533 19.7132 588.287 19.6935 588.04 19.6757C587.437 19.6841 586.844 19.6898 586.25 19.701C585.292 19.7179 585.292 19.7188 584.589 19.6673C584.461 19.6579 584.333 19.6401 584.214 19.641C583.758 19.6448 583.31 19.6541 582.854 19.6626C581.512 19.6869 581.511 19.6869 581.119 19.6588C580.763 19.6326 580.443 19.6007 579.904 19.6157C579.32 19.6326 578.699 19.6382 578.096 19.6476C577.649 19.6541 577.202 19.6616 576.754 19.6635C576.636 19.6645 576.508 19.6466 576.38 19.6373C576.015 19.6082 575.659 19.5848 575.156 19.6007C574.864 19.6101 574.554 19.612 574.252 19.6166C573.467 19.6298 573.467 19.6298 572.18 19.5735C572.052 19.5679 571.897 19.5613 571.769 19.5642C570.71 19.581 569.66 19.5998 568.6 19.6157C568.473 19.6176 568.317 19.612 568.19 19.6073C566.747 19.5529 566.747 19.5529 565.213 19.5792C564.629 19.5885 564.61 19.5923 563.998 19.5426C563.725 19.521 563.496 19.5107 563.177 19.5173C561.972 19.5398 560.757 19.5548 559.561 19.581C559.022 19.5923 558.712 19.5641 558.347 19.5388C558.219 19.5304 558.082 19.5117 557.972 19.5126C556.767 19.5304 555.562 19.552 554.356 19.5698C554.247 19.5717 554.11 19.5529 553.982 19.5445C553.735 19.5276 553.498 19.5023 553.224 19.4967C552.941 19.491 552.631 19.5051 552.32 19.5098C551.562 19.522 551.562 19.521 550.686 19.4657C550.567 19.4582 550.412 19.4479 550.293 19.4498C549.088 19.4685 547.873 19.4845 546.677 19.5117C545.992 19.5267 545.527 19.4995 545.043 19.4601C544.942 19.4517 544.769 19.4479 544.641 19.4498C543.281 19.4714 541.929 19.4957 540.569 19.5173C540.286 19.522 540.012 19.506 539.784 19.4817C539.418 19.4432 538.989 19.4479 538.533 19.4564C537.483 19.476 537.473 19.4751 536.853 19.4301C536.725 19.4207 536.615 19.4086 536.478 19.4039C536.35 19.3992 536.186 19.402 536.049 19.4039C535.446 19.4132 534.844 19.4235 534.241 19.4339C533.639 19.4442 533.027 19.4498 532.433 19.4657C531.703 19.4854 531.356 19.4245 530.844 19.3964C530.096 19.4085 529.329 19.4161 528.589 19.4357C528.023 19.4507 527.758 19.4095 527.384 19.3879C527.256 19.3804 527.119 19.3645 527 19.3664C525.64 19.387 524.279 19.4095 522.928 19.4348C522.599 19.4404 522.38 19.4329 522.106 19.4104C521.495 19.3598 521.467 19.3617 520.444 19.3804C519.997 19.3889 519.568 19.3964 519.184 19.3579C518.846 19.3233 518.436 19.3148 517.952 19.3261C517.358 19.3401 516.746 19.3476 516.144 19.357C515.541 19.3673 514.939 19.3814 514.336 19.3861C513.852 19.3907 513.56 19.3467 513.176 19.3242C513.058 19.3176 512.893 19.3167 512.756 19.3186C512.154 19.327 511.533 19.3336 510.948 19.3495C510.236 19.3692 509.844 19.3176 509.341 19.2876C509.232 19.2811 509.049 19.2848 508.912 19.2876C507.853 19.3045 506.803 19.3233 505.744 19.3411C505.369 19.3158 504.986 19.2914 504.611 19.2661C504.009 19.2755 503.406 19.2858 502.804 19.2951C502.347 19.3026 501.881 19.3054 501.452 19.3195C500.895 19.3383 500.621 19.2942 500.247 19.2726C500.119 19.2651 499.982 19.2492 499.863 19.2511C499.106 19.2614 498.348 19.2726 497.599 19.2886C496.887 19.3045 496.604 19.2201 496.019 19.2211C495.417 19.222 494.796 19.2342 494.212 19.2511C493.536 19.2708 493.061 19.2408 492.577 19.2005C492.477 19.192 492.303 19.1873 492.175 19.1892C491.418 19.2005 490.669 19.2145 489.911 19.2258C489.783 19.2276 489.628 19.223 489.5 19.2173C488.057 19.162 488.057 19.1611 487.427 19.1723C486.98 19.1798 486.523 19.1892 486.067 19.1939C485.939 19.1958 485.784 19.1873 485.665 19.1798C484.715 19.1227 484.715 19.1217 484.031 19.133C483.428 19.1433 482.825 19.1536 482.223 19.1639C481.848 19.1386 481.465 19.1142 481.09 19.0889C480.342 19.1011 479.575 19.1105 478.835 19.1273C478.488 19.1348 478.26 19.132 477.995 19.1086C477.666 19.0805 477.338 19.0477 476.79 19.0636C476.205 19.0805 475.585 19.0824 474.991 19.0964C474.279 19.1133 473.987 19.028 473.411 19.0289C472.809 19.0299 472.188 19.0421 471.604 19.0589C470.928 19.0786 470.453 19.0486 469.969 19.0083C469.869 18.9999 469.695 18.9952 469.567 18.9971C467.906 19.0243 466.253 19.0514 464.591 19.0805C463.569 19.0983 463.569 19.0992 461.624 19.0477C461.487 19.0439 461.34 19.0402 461.203 19.0421C460.601 19.0505 459.98 19.0571 459.396 19.073C458.683 19.0927 458.291 19.0421 457.789 19.0111C457.679 19.0046 457.505 19.0083 457.359 19.0102C456.903 19.0167 456.455 19.0252 455.999 19.0327C455.396 19.043 454.794 19.0533 454.191 19.0636C453.817 19.0392 453.433 19.0139 453.059 18.9896C452.31 19.0017 451.543 19.0083 450.804 19.028C450.237 19.043 449.973 19.0036 449.598 18.9811C449.47 18.9736 449.333 18.9577 449.215 18.9586C447.854 18.9793 446.494 19.0008 445.142 19.0271C444.585 19.0383 444.33 18.9961 443.955 18.9746C443.828 18.968 443.682 18.9558 443.563 18.9577C442.659 18.9708 441.755 18.9868 440.851 19.0027C440.34 19.0121 440.34 19.0121 439.226 18.9539C439.098 18.9474 438.952 18.9408 438.824 18.9427C435.957 18.9896 433.099 19.0392 430.232 19.0861C429.94 19.0908 429.675 19.0767 429.447 19.0514C429.209 19.0261 428.944 19.013 428.652 19.0177C427.447 19.0374 426.232 19.0552 425.036 19.0796C424.543 19.0899 424.151 19.0777 423.813 19.0449C423.557 19.0205 423.32 19.0111 423 19.0167C422.398 19.028 421.795 19.0374 421.192 19.0477C420.59 19.058 419.987 19.0683 419.384 19.0786C418.782 19.0889 418.17 19.0945 417.577 19.1105C416.846 19.1302 416.49 19.0721 415.988 19.043C415.084 19.0571 414.18 19.0711 413.285 19.0861C412.08 19.1058 410.874 19.1274 409.669 19.1461C409.56 19.148 409.423 19.1311 409.295 19.1227C408.92 19.0992 408.646 19.0664 408.089 19.0767C405.387 19.1264 402.666 19.1686 399.954 19.2173C399.388 19.2277 399.141 19.1873 398.758 19.1658C398.63 19.1592 398.484 19.1461 398.365 19.148C396.859 19.1714 395.352 19.1976 393.845 19.223C393.234 19.2333 393.234 19.2333 392.211 19.1752C392.092 19.1686 391.937 19.1602 391.809 19.162C389.846 19.1939 387.892 19.2276 385.929 19.2605C385.637 19.2651 385.372 19.252 385.135 19.2267C384.906 19.2014 384.632 19.1873 384.349 19.192C382.541 19.222 380.724 19.2511 378.926 19.2839C378.442 19.2933 378.04 19.2848 377.693 19.2511C377.446 19.2267 377.2 19.2164 376.889 19.222C374.178 19.2679 371.466 19.312 368.754 19.3608C368.233 19.3701 367.868 19.3523 367.54 19.3214C367.275 19.297 367.046 19.2923 366.718 19.2961C366.371 19.3008 366.161 19.3111 365.969 19.3392C365.722 19.3757 365.567 19.4217 364.983 19.4245C364.38 19.4273 363.768 19.4386 363.175 19.4545C362.609 19.4704 362.344 19.4282 361.988 19.4029C361.723 19.3851 361.477 19.3823 361.139 19.3907C360.828 19.3982 360.637 19.4142 360.454 19.4442C360.052 19.5079 360.016 19.5079 359.523 19.4676C359.258 19.446 359.02 19.4292 358.728 19.4329C357.523 19.4517 356.318 19.4723 355.112 19.4938C354.418 19.506 354.409 19.5079 353.889 19.461C353.633 19.4376 353.387 19.4264 353.085 19.432C349.771 19.4882 346.456 19.5426 343.142 19.6016C342.631 19.611 342.284 19.5913 341.918 19.5632C341.8 19.5538 341.681 19.5407 341.544 19.537C341.407 19.5332 341.252 19.537 341.106 19.5388C338.695 19.5791 336.275 19.6176 333.874 19.6626C333.326 19.6729 333.034 19.6429 332.66 19.6185C332.532 19.6101 332.422 19.597 332.285 19.5932C332.148 19.5904 331.984 19.597 331.838 19.5998C329.427 19.6401 327.008 19.6785 324.606 19.7235C324.031 19.7338 323.784 19.6944 323.41 19.6738C323.282 19.6663 323.145 19.6523 323.027 19.6541C322.269 19.6644 321.52 19.6785 320.762 19.6907C318.954 19.7216 317.146 19.7507 315.338 19.7826C314.644 19.7947 314.343 19.7113 313.759 19.7151C313.001 19.7197 312.252 19.7385 311.494 19.7516C310.892 19.7619 310.289 19.7713 309.686 19.7826C309.093 19.7929 309.093 19.7929 307.614 19.7385C307.486 19.7338 307.331 19.7272 307.203 19.7291C305.094 19.7638 302.975 19.7985 300.875 19.836C300.391 19.8444 299.989 19.8397 299.643 19.8051C299.396 19.7807 299.14 19.7685 298.839 19.7741C295.671 19.8275 292.511 19.881 289.343 19.9335C289.224 19.9353 289.069 19.926 288.95 19.9185C288.695 19.9016 288.448 19.8819 288.202 19.8641C288.019 19.8857 287.782 19.9053 287.663 19.9297C287.499 19.9625 287.279 19.9719 286.932 19.9775C286.585 19.9831 286.366 19.9813 286.092 19.9569C285.764 19.9269 285.426 19.9035 284.887 19.9128C281.573 19.9719 278.258 20.0253 274.944 20.0834C274.396 20.0928 274.14 20.0516 273.757 20.03C273.629 20.0234 273.483 20.0131 273.364 20.015C272.003 20.0366 270.652 20.06 269.292 20.0825C265.521 20.1462 261.75 20.2072 257.988 20.2747C257.303 20.2868 256.837 20.2634 256.353 20.2231C256.253 20.2147 256.079 20.21 255.952 20.2119C250.674 20.3 245.396 20.389 240.128 20.4781C239.845 20.4827 239.571 20.4677 239.342 20.4434C239.105 20.4181 238.84 20.4059 238.548 20.4106C236.138 20.4509 233.727 20.4912 231.317 20.5324C230.714 20.5427 230.705 20.5437 230.084 20.4987C229.956 20.4893 229.819 20.4715 229.719 20.4734C229.509 20.4781 229.308 20.5015 229.162 20.5334C229.016 20.5671 228.787 20.5765 228.449 20.583C228.102 20.5896 227.874 20.5868 227.609 20.5643C227.272 20.5362 226.961 20.509 226.413 20.5184C219.483 20.6383 212.553 20.7536 205.622 20.8727C205.065 20.882 204.81 20.8427 204.426 20.8211C204.298 20.8146 204.171 20.8052 204.034 20.8033C203.887 20.8014 203.732 20.8071 203.586 20.8099C192.282 21.0002 180.978 21.1914 169.674 21.3817C168.999 21.3929 169.008 21.3929 168.268 21.4791C168.177 21.4895 168.058 21.5035 167.93 21.5054C164.47 21.5654 161 21.6235 157.53 21.6816C156.024 21.7069 154.517 21.7332 153.011 21.7575C152.472 21.766 152.472 21.766 151.184 21.8672C151.075 21.8756 150.947 21.8869 150.819 21.8888C144.793 21.9909 138.766 22.0931 132.731 22.1934C132.256 22.2009 131.873 22.2178 131.653 22.2628C131.498 22.2946 131.297 22.3134 130.996 22.319C126.778 22.3902 122.559 22.4624 118.332 22.5318C117.829 22.5402 117.528 22.5665 117.281 22.6058C117.199 22.6189 117.126 22.6339 117.008 22.6433C116.898 22.6517 116.734 22.6546 116.597 22.6574C112.981 22.7183 109.365 22.7811 105.74 22.8392C105.201 22.8477 104.982 22.8823 104.717 22.9189C104.626 22.9311 104.562 22.948 104.443 22.9564C104.325 22.9639 104.151 22.9639 104.005 22.9658C100.992 23.0164 97.979 23.0679 94.9658 23.1185C94.3814 23.1139 94.2535 23.1682 93.9704 23.201C93.87 23.2123 93.7971 23.2273 93.6784 23.2348C93.5506 23.2423 93.386 23.2413 93.2308 23.2432C90.8203 23.2835 88.4098 23.3266 85.9901 23.3641C85.4331 23.3726 85.3235 23.4204 85.0222 23.4532C84.9217 23.4635 84.8214 23.4794 84.7027 23.4822C83.1961 23.5094 81.6896 23.5347 80.183 23.5591C79.6808 23.5675 79.6808 23.5666 78.7951 23.6594C78.6947 23.6697 78.5759 23.681 78.448 23.6838C76.1927 23.7231 73.9283 23.7606 71.6639 23.7991C71.3717 23.8037 71.1709 23.8262 71.0248 23.8581C70.8787 23.89 70.6687 23.9106 70.3765 23.9153C68.5686 23.9462 66.7605 23.9781 64.9526 24.0062C64.4504 24.0137 64.1218 24.0371 63.9027 24.0793C63.7383 24.1112 63.5374 24.1271 63.2179 24.1327C61.4099 24.1627 59.6021 24.1955 57.7851 24.2218C57.2555 24.2293 56.9814 24.2612 56.7623 24.3005C56.5888 24.3324 56.3879 24.3436 56.0501 24.3493C52.7356 24.4036 49.412 24.458 46.1067 24.518C45.5497 24.5283 45.2666 24.4955 44.9013 24.4721C44.3809 24.4393 43.8971 24.4036 43.8971 24.3305C43.8971 24.3193 43.7418 24.3061 43.6323 24.2968C42.8196 24.2265 42.8196 24.2265 42.6918 24.1515C42.6187 24.1056 42.5365 24.0587 42.4726 24.0118C42.3539 23.935 42.0616 23.9153 41.2216 23.9293C40.9203 23.934 40.619 23.9406 40.3176 23.9443C39.8702 23.9509 39.5324 23.92 39.4503 23.8637C39.4046 23.8328 39.3499 23.8019 39.3042 23.7709C39.7608 23.7634 39.7515 23.7625 40.5551 23.6491C40.8929 23.6013 40.893 23.6013 40.2448 23.5535C39.9982 23.5357 39.7608 23.516 39.496 23.4991C39.3773 23.4916 39.2221 23.4869 39.0943 23.4888C38.3364 23.5 37.5877 23.5132 36.839 23.5263C35.6337 23.5469 35.6336 23.5469 34.41 23.4513C34.3096 23.4438 34.1543 23.4297 34.1726 23.4222C34.2731 23.3876 34.5196 23.3726 34.83 23.3688C35.2865 23.3632 35.7339 23.3538 36.1814 23.3463C36.4827 23.3416 36.784 23.336 37.0853 23.3313C37.3684 23.2957 37.6607 23.261 37.9255 23.2245C38.3455 23.1682 38.3453 23.1663 37.7701 23.127C37.4049 23.1007 37.0123 23.0773 36.6379 23.0529C36.1905 23.0604 35.734 23.0689 35.2865 23.0754C34.7204 23.0839 34.4921 23.066 34.346 23.0051C34.2182 22.9517 34.3734 22.9058 34.8117 22.8945C35.2591 22.8833 35.6793 22.8758 35.9076 22.828C36.1267 22.782 36.5102 22.7642 36.985 22.7605C37.2863 22.7577 37.5876 22.7511 37.8889 22.7455C38.2815 22.738 38.4916 22.6902 38.4094 22.6368C38.3638 22.6021 38.2724 22.573 37.9163 22.5655C36.3367 22.5327 36.3184 22.5336 35.5331 22.4699C35.4601 22.4643 35.4054 22.4474 35.4328 22.439C35.4784 22.4249 35.5789 22.4043 35.6885 22.4015C36.7385 22.3809 37.7885 22.3621 38.8386 22.3481C39.1855 22.3434 39.4412 22.3368 39.5599 22.3021C39.7243 22.2543 39.6512 22.2103 39.3317 22.1775C39.2312 22.1671 39.0667 22.154 38.9572 22.155C37.7519 22.1718 36.5558 22.1934 35.3505 22.2103C35.241 22.2121 35.0402 22.1962 34.9945 22.184C34.9032 22.1615 35.0401 22.1315 35.3597 22.1212C35.7797 22.1072 36.2088 22.1062 36.4919 22.0593C36.8845 21.9928 37.3684 21.9319 37.8067 21.8681C37.8797 21.8569 37.9986 21.8353 37.9712 21.8334C37.7429 21.8128 37.4781 21.7969 37.2407 21.7772C36.8389 21.7444 36.8388 21.6985 36.9301 21.6544C37.0032 21.6188 37.2771 21.6047 37.615 21.6047C37.761 21.6047 37.9437 21.6047 38.0624 21.5963C38.3728 21.5757 38.4733 21.5494 38.318 21.5297C38.2267 21.5185 38.0625 21.5026 37.9529 21.5044C35.9989 21.5354 34.0356 21.5654 32.0908 21.6038C31.5155 21.615 31.2509 21.5794 30.9039 21.5541C30.6391 21.5344 30.3924 21.5269 30.0637 21.541C29.7533 21.5541 29.4521 21.5466 29.2603 21.5157C29.1051 21.4904 29.379 21.4688 30.1186 21.4445C30.2555 21.4398 30.4107 21.437 30.5111 21.4276C31.5703 21.3263 31.5703 21.3254 32.3007 21.3123C33.013 21.3001 33.0131 21.2992 33.3875 21.2448C33.561 21.2195 33.7526 21.1942 33.9169 21.1679C33.9808 21.1576 34.0905 21.1389 34.054 21.1333C33.8531 21.1042 33.5791 21.0976 33.2595 21.1042C32.5473 21.1201 31.7074 21.107 31.333 21.1961C31.187 21.2298 30.9587 21.2392 30.63 21.2448C27.3246 21.2992 24.0191 21.3573 20.7046 21.4098C20.1659 21.4182 19.9195 21.4529 19.7095 21.4913C19.5269 21.5232 19.326 21.5326 18.979 21.5382C18.632 21.5438 18.358 21.5466 18.1571 21.5157C18.0384 21.4969 18.1389 21.4707 18.4128 21.4445C18.8054 21.407 18.7323 21.3601 18.6045 21.316C18.5132 21.287 18.2301 21.2664 17.9288 21.2682C17.4814 21.272 17.0524 21.2823 16.678 21.2448C16.4589 21.2232 16.1849 21.2082 15.9384 21.1895C15.4636 21.1511 14.9887 21.1117 14.3222 21.137C13.8656 21.1276 13.5461 21.0939 13.1808 21.0676C12.5691 21.0245 12.5143 21.018 12.9526 20.972C13.4456 20.9205 13.0621 20.853 13.336 20.8024C13.6282 20.748 14.0301 20.7002 14.3862 20.6496C14.4775 20.6365 14.5597 20.6243 14.651 20.6112C14.441 20.5924 14.2493 20.569 14.0027 20.5559C13.6832 20.539 13.5188 20.5184 13.5371 20.4603C13.4731 20.4518 13.5003 20.4734 13.5734 20.479C13.6556 20.4846 13.8566 20.4799 13.957 20.4734C14.2127 20.4556 14.3404 20.4321 14.2765 20.4124C14.24 20.4021 14.0666 20.389 13.957 20.389C13.7562 20.389 13.5827 20.4096 13.5279 20.4603C12.5053 20.4987 11.4459 20.5174 10.3867 20.5324C10.2772 20.5343 10.1403 20.5156 10.0125 20.5062C9.59244 20.4743 9.59239 20.4752 8.35972 20.4659C8.23189 20.4649 8.05849 20.4518 7.99458 20.4387C7.72978 20.3815 7.73899 20.3187 7.61116 20.2578C7.84856 20.2184 8.08577 20.18 8.3323 20.1416C8.82537 20.0638 9.46467 19.9953 9.84817 19.91C9.76599 19.8641 9.6564 19.8182 10.0582 19.7807C11.1995 19.7338 11.1905 19.7338 11.5009 19.6888C12.3866 19.5613 13.2631 19.4329 14.1853 19.3073C14.4318 19.2745 14.4319 19.2567 13.9936 19.2427C13.8566 19.2389 13.7103 19.238 13.5643 19.2398C13.1077 19.2464 12.6512 19.2633 12.2038 19.2595C11.7564 19.2567 11.4276 19.2155 11.0624 19.1902C10.6881 19.1639 10.3137 19.1367 9.93934 19.1095C9.51019 19.1124 9.08112 19.1386 8.65197 19.0964C8.32326 19.0636 7.9124 19.0402 7.53804 19.013C7.82109 18.9418 8.35076 18.8874 8.76165 18.8246C9.13601 18.7674 9.14494 18.7684 10.1493 18.7243C10.6241 18.7037 10.7885 18.5978 10.3867 18.5668C9.90281 18.5293 9.39159 18.4946 8.89852 18.459C8.46937 18.4618 8.03118 18.4872 7.62029 18.445C7.30072 18.4131 6.93541 18.3915 6.40582 18.4037C5.511 18.4243 4.59794 18.4347 3.69399 18.4515C3.38354 18.4572 3.0456 18.4534 2.90864 18.4215C2.81733 18.399 3.08214 18.3681 3.38346 18.3615C3.84 18.3522 4.25085 18.3409 4.47912 18.2941C4.69826 18.2472 5.09997 18.2331 5.57477 18.2266C5.70261 18.2247 5.84881 18.2134 5.91272 18.2022C6.24143 18.1478 6.60669 18.101 7.30977 18.1028C7.60195 18.0841 7.75708 18.0607 7.66577 18.0382C7.61099 18.026 7.41934 18.01 7.30977 18.0119C6.55191 18.0213 5.79407 18.0307 5.05448 18.0475C4.7075 18.055 4.44257 18.0569 4.22343 18.0288C4.0682 18.01 4.15037 17.9847 4.44256 17.9576C4.69822 17.9341 4.77135 17.9069 4.75309 17.8751C4.70743 17.801 4.43345 17.7795 3.55689 17.7841C2.92687 17.7879 2.77163 17.7757 2.63467 17.712C2.59815 17.697 2.507 17.6763 2.57092 17.666C2.96354 17.6023 3.21922 17.5236 3.95882 17.4936C4.25101 17.4823 4.56133 17.4823 4.74395 17.458C4.92656 17.4336 5.091 17.4055 5.28275 17.382C5.52015 17.3539 5.68434 17.3277 5.57477 17.3099C5.39216 17.278 5.10007 17.2752 4.76223 17.2864C4.47004 17.2958 4.1596 17.2967 3.85828 17.3024C3.31956 17.3127 2.88138 17.2883 2.81747 17.2471C2.64398 17.1383 2.46131 17.0305 2.30609 16.9218C2.28782 16.9087 2.33335 16.8918 2.4064 16.8805C2.66206 16.8412 2.9361 16.8037 3.20089 16.7653C3.51134 16.7212 4.00448 16.7296 4.4245 16.7212C5.01801 16.709 5.0178 16.71 5.81218 16.62C6.12263 16.5843 6.66138 16.5984 6.98096 16.5665C7.0814 16.5562 7.23662 16.5394 7.20923 16.53C7.17271 16.5178 6.99019 16.5084 6.85322 16.5028C6.72539 16.4972 6.5702 16.4944 6.43324 16.4972C4.77143 16.5244 3.11879 16.5534 1.45698 16.5797C1.17392 16.5844 0.863468 16.5637 0.763028 16.5347C0.662589 16.5075 0.689893 16.4747 0.671631 16.4437C0.936425 16.4053 1.23763 16.3697 1.4659 16.3285C1.63938 16.2966 1.8403 16.2825 2.18727 16.2806C2.64381 16.2778 3.09127 16.2666 3.60259 16.2582C4.5522 16.1213 5.48348 15.9779 6.50614 15.841C6.91702 15.7857 6.81675 15.7295 6.89892 15.6704C6.9811 15.6161 7.59283 15.6245 8.00372 15.6086C8.33243 15.5955 8.44186 15.5655 8.31402 15.5448C8.24098 15.5327 8.07671 15.5186 7.94888 15.5186C7.64756 15.5186 7.34625 15.527 7.04494 15.5317C6.74362 15.5364 6.39666 15.5336 6.15013 15.5495C5.91273 15.5645 5.75742 15.5964 5.60219 15.6236C5.42871 15.6536 5.2006 15.6639 4.85362 15.6658C4.40621 15.6676 3.95883 15.6761 3.51142 15.6826C3.01835 15.6461 2.50692 15.6105 2.03212 15.572C1.94081 15.5645 1.92245 15.543 1.93158 15.5289C1.94984 15.4924 1.81291 15.4699 1.5116 15.452C1.25593 15.437 1.04591 15.4155 0.808504 15.3967C0.991121 15.3714 1.19207 15.3471 1.33816 15.3199C1.65774 15.2627 2.05954 15.2215 2.75349 15.2233C3.02741 15.1868 3.24649 15.1418 3.60259 15.1165C3.94043 15.0921 4.5157 15.1165 4.77137 15.0612C4.8992 15.034 5.09105 15.0031 5.33759 14.9918C5.73021 14.974 6.24153 14.9834 6.4698 14.9309C6.60676 14.9009 6.80756 14.8737 7.07236 14.8662C7.37367 14.8578 7.68404 14.8559 7.90318 14.8381C8.02188 14.8287 8.14973 14.8137 8.14973 14.8006C8.14973 14.7922 7.96726 14.779 7.83943 14.7734C7.72073 14.7669 7.56532 14.7622 7.42836 14.764C6.97182 14.7697 6.52442 14.78 6.06787 14.7856C5.94004 14.7875 5.79399 14.7809 5.65703 14.7753C5.25527 14.7603 5.28261 14.7415 5.60219 14.7078C5.92177 14.675 6.15017 14.6328 6.41496 14.5944C6.70715 14.5878 7.07233 14.5906 7.27321 14.5728C7.61105 14.5438 7.84839 14.5016 8.12231 14.465C8.42363 14.4594 8.73406 14.4575 9.01712 14.4472C9.13582 14.4435 9.19065 14.4228 9.29109 14.4107C9.4737 14.3872 9.62905 14.3535 9.87558 14.3422C10.2773 14.3254 10.7704 14.3319 11.0078 14.2804C11.1448 14.2504 11.3547 14.2185 11.6104 14.2166C12.3226 14.2129 12.6239 14.1613 12.9891 14.1126C13.263 14.076 13.8474 14.0948 14.1488 14.0582C14.3496 14.0348 14.4958 14.0057 14.6967 13.9832C14.7789 13.9739 14.9523 13.9692 15.0893 13.9664C15.838 13.9523 16.5958 13.942 17.3445 13.927C17.4632 13.9242 17.5729 13.9101 17.6642 13.8989C17.856 13.8745 17.9745 13.8408 18.2119 13.8248C18.4493 13.8089 18.7871 13.8089 19.0793 13.8042C20.0198 13.7901 20.0929 13.7939 20.5221 13.7142C20.869 13.6495 21.7183 13.6955 22.0014 13.6242C22.1657 13.583 22.4669 13.5492 23.0056 13.5446C23.7635 13.538 24.5122 13.5202 25.27 13.508C25.9457 13.4968 25.9366 13.4968 26.6671 13.4096C26.9958 13.3702 27.4798 13.3758 27.909 13.3683C28.3655 13.3608 28.7855 13.3496 29.0046 13.3027C29.2238 13.2568 29.6255 13.2418 30.0912 13.2352C30.5203 13.2287 31.0043 13.2334 31.3422 13.1959C32.164 13.1059 32.1548 13.1049 32.7301 13.0956C33.634 13.0806 34.538 13.0656 35.4419 13.0496C36.0446 13.0393 36.6746 13.0375 37.2407 13.0168C37.6516 13.0018 37.8341 12.9494 38.0989 12.9128C38.8476 12.8987 39.5963 12.8847 40.3451 12.8715C41.3951 12.8528 42.4543 12.8359 43.5134 12.8181C43.97 12.7825 44.034 12.7038 44.801 12.7C45.2576 12.6981 45.705 12.686 46.1615 12.6785C46.9194 12.6653 47.6681 12.6485 48.4259 12.6419C49.0012 12.6372 49.1015 12.5866 49.4028 12.5547C49.5032 12.5435 49.5946 12.5275 49.7133 12.5247C50.9003 12.4985 52.1238 12.4929 53.2834 12.4544C53.4021 12.4507 53.5117 12.431 53.5391 12.4169C53.5573 12.4094 53.4021 12.3954 53.3017 12.3888C53.183 12.3813 53.0278 12.3738 52.9 12.3757C49.1289 12.4385 45.358 12.5022 41.587 12.565C41.0574 12.5744 41.0574 12.5735 39.7699 12.6766C39.6604 12.685 39.5324 12.6944 39.3954 12.6972C38.7928 12.7085 38.181 12.715 37.5875 12.7291C37.1036 12.7403 36.702 12.7291 36.355 12.6953C36.1085 12.671 35.8527 12.6635 35.5422 12.6653C35.1953 12.6681 34.9671 12.6785 34.7663 12.7038C34.5015 12.7385 34.3644 12.7834 33.8075 12.7928C31.2417 12.8331 28.6758 12.8781 26.1192 12.9212C25.7631 12.9081 25.5896 12.8884 25.6809 12.865C25.7357 12.8509 25.8453 12.8322 25.9549 12.8303C27.0049 12.8106 28.064 12.7938 29.1141 12.775C29.2602 12.7722 29.461 12.7741 29.5432 12.7647C29.945 12.7225 30.0912 12.6541 30.8491 12.6494C31.2874 12.6466 31.7347 12.6325 32.1547 12.6194C32.2734 12.6157 32.383 12.596 32.4104 12.5819C32.4196 12.5744 32.2734 12.5603 32.1639 12.5538C31.7621 12.5266 31.2965 12.5594 30.8948 12.5407C30.7578 12.5341 30.566 12.5247 30.5386 12.5135C30.5203 12.5032 30.6755 12.4863 30.7851 12.476C30.8855 12.4666 31.0224 12.4582 31.1594 12.4554C32.3647 12.4338 33.5701 12.4113 34.7754 12.3944C35.2685 12.3879 35.6153 12.3644 35.8345 12.3213C35.9988 12.2895 36.1997 12.2726 36.5102 12.2679C38.6194 12.2332 40.7286 12.1948 42.8469 12.1629C43.3765 12.1554 43.6505 12.1245 43.8697 12.0842C44.0432 12.0523 44.2441 12.0411 44.5819 12.0354C47.6042 11.9867 50.6082 11.9323 53.6305 11.8855C54.1875 11.877 54.3519 11.8367 54.635 11.8021C54.7354 11.7899 54.7992 11.7749 54.927 11.7674C55.0548 11.7599 55.2192 11.7608 55.3744 11.7589C57.7849 11.7186 60.1956 11.6755 62.6153 11.638C63.1814 11.6296 63.2908 11.5827 63.583 11.5499C63.6834 11.5396 63.7748 11.5227 63.8935 11.5199C65.7014 11.488 67.5093 11.458 69.3172 11.4271C70.5225 11.4065 71.7277 11.3859 72.933 11.3662C73.5265 11.3568 73.5265 11.3559 74.33 11.2668C74.4213 11.2565 74.5493 11.2443 74.668 11.2415C78.1377 11.1815 81.5982 11.1244 85.0679 11.0653C85.3601 11.0606 85.57 11.039 85.7161 11.0072C85.8622 10.9753 86.0724 10.9538 86.3555 10.9491C89.0673 10.9022 91.7791 10.8563 94.5001 10.8122C94.9932 10.8047 95.3401 10.7822 95.5592 10.74C95.7236 10.7082 95.9244 10.6913 96.2349 10.6866C98.9467 10.6416 101.659 10.5938 104.38 10.5507C104.9 10.5423 105.156 10.5104 105.411 10.4729C105.503 10.4598 105.576 10.4382 105.685 10.4363C107.037 10.4101 108.379 10.3829 109.739 10.3651C110.306 10.3576 110.497 10.3182 110.726 10.2807C110.908 10.2507 111.118 10.2404 111.465 10.2367C112.223 10.2283 112.972 10.2123 113.711 10.1964C113.821 10.1936 113.958 10.173 113.967 10.1598C113.985 10.1355 113.775 10.1186 113.428 10.1102C109.812 10.1711 106.188 10.232 102.572 10.2929C101.978 10.3032 101.978 10.3032 101.175 10.3923C101.083 10.4026 100.956 10.4148 100.828 10.4176C97.358 10.4767 93.8975 10.5348 90.4278 10.5938C90.1356 10.5985 89.9256 10.6201 89.7795 10.6519C89.6334 10.6838 89.4233 10.7054 89.1402 10.71C85.8257 10.7663 82.5113 10.8235 79.1877 10.8769C78.6946 10.8844 78.3477 10.9059 78.1286 10.9491C77.9642 10.9809 77.7634 10.9978 77.4529 11.0025C74.2845 11.055 71.1251 11.1103 67.9476 11.1609C67.628 11.1656 67.3907 11.1384 67.409 11.1131C67.4181 11.1 67.5549 11.0784 67.6645 11.0766C69.3171 11.0456 70.9608 11.0137 72.6227 10.9903C73.1796 10.9828 73.3439 10.9416 73.6269 10.9069C73.7182 10.8947 73.7913 10.8788 73.91 10.8722C74.0379 10.8647 74.2022 10.8656 74.3574 10.8638C78.2746 10.7972 82.1918 10.7297 86.1181 10.6669C86.6842 10.6576 86.7936 10.6116 87.0858 10.5788C87.1862 10.5676 87.2776 10.5507 87.3963 10.5488C88.6016 10.5263 89.8068 10.5066 91.0121 10.487C93.1213 10.4513 95.2305 10.4157 97.3488 10.3801C97.9606 10.3698 97.9606 10.3698 98.7459 10.2817C98.8372 10.2714 98.9651 10.2583 99.0838 10.2564C104.663 10.1617 110.242 10.067 115.821 9.9733C116.113 9.96862 116.323 9.94706 116.469 9.91519C116.615 9.88426 116.825 9.86176 117.108 9.85614C124.65 9.72866 132.183 9.60117 139.725 9.47557C140.218 9.46713 140.565 9.44745 140.784 9.40339C140.939 9.37152 141.149 9.35466 141.46 9.34903C149.751 9.20937 158.042 9.06971 166.341 8.92911C171.92 8.83537 177.499 8.73976 183.078 8.6479C183.59 8.63947 183.864 8.6104 184.119 8.57197C184.201 8.55885 184.284 8.53729 184.393 8.53542C185.589 8.51198 186.785 8.49043 187.981 8.46887C188.356 8.49418 188.73 8.51855 189.105 8.54386C189.388 8.50824 189.662 8.47168 189.945 8.43606C191.753 8.40888 193.533 8.3667 195.359 8.35358C195.478 8.35264 195.606 8.37045 195.734 8.37983C196.583 8.43888 197.067 8.43419 197.605 8.35545C197.797 8.32733 197.961 8.30203 198.254 8.29734C199.158 8.28047 200.071 8.26922 200.966 8.24953C201.45 8.23922 201.851 8.2486 202.198 8.28234C202.445 8.30671 202.701 8.31703 203.002 8.3114C204.664 8.28328 206.316 8.2561 207.978 8.2261C208.097 8.22423 208.206 8.20829 208.298 8.19704C208.489 8.17267 208.654 8.14643 208.836 8.12112C209.083 8.13705 209.357 8.14924 209.558 8.16986C209.813 8.19423 210.051 8.19423 210.398 8.18767C217.027 8.07425 223.665 7.96364 230.294 7.84929C230.86 7.83992 231.107 7.87929 231.49 7.89991C231.618 7.90741 231.746 7.91678 231.883 7.91865C232.029 7.92053 232.184 7.91491 232.33 7.91209C237.306 7.82773 242.283 7.74431 247.259 7.65994C247.916 7.6487 247.916 7.6487 248.893 7.70681C249.012 7.71431 249.167 7.72275 249.295 7.71994C251.56 7.68338 253.824 7.64401 256.079 7.60652C256.372 7.60183 256.618 7.61683 256.883 7.63839C257.403 7.68057 257.44 7.68057 257.823 7.61871C258.006 7.58965 258.198 7.57183 258.499 7.5634C258.828 7.55402 259.093 7.55684 259.348 7.57372C259.713 7.59715 259.978 7.63651 260.535 7.6262C262.946 7.58215 265.365 7.54559 267.767 7.5006C268.315 7.49029 268.607 7.52216 268.972 7.54559C269.1 7.55403 269.219 7.56715 269.356 7.56996C269.493 7.57278 269.657 7.56621 269.803 7.5634C272.816 7.51278 275.838 7.46311 278.842 7.40874C279.409 7.39843 279.655 7.43873 280.039 7.45935C280.166 7.46685 280.313 7.47998 280.431 7.47811C282.239 7.44905 284.056 7.41811 285.864 7.38718C286.513 7.37593 286.512 7.37687 287.498 7.43404C287.617 7.44154 287.773 7.44904 287.9 7.44717C290.01 7.41249 292.128 7.37687 294.237 7.34125C294.885 7.33 294.885 7.33 296.757 7.37874C296.894 7.38249 297.04 7.38812 297.177 7.38625C299.588 7.34594 302.007 7.30657 304.418 7.26345C304.902 7.25502 305.304 7.26251 305.651 7.29626C305.897 7.32063 306.153 7.33094 306.454 7.32532C309.166 7.27939 311.887 7.23534 314.59 7.1866C315.11 7.17722 315.448 7.19784 315.813 7.22502C315.932 7.23439 316.051 7.24752 316.188 7.25127C316.325 7.25502 316.48 7.25126 316.626 7.24845C319.338 7.20252 322.059 7.15941 324.761 7.10973C325.309 7.09942 325.602 7.13128 325.967 7.15472C326.095 7.16315 326.231 7.18003 326.341 7.17909C327.4 7.16315 328.459 7.1491 329.509 7.12567C330.076 7.11254 330.322 7.15565 330.706 7.17627C330.833 7.18284 330.98 7.1969 331.098 7.19503C333.363 7.15847 335.627 7.12004 337.883 7.08068C338.202 7.07505 338.439 7.08348 338.695 7.10785C339.033 7.14066 339.426 7.15378 339.919 7.14347C340.969 7.12191 342.028 7.10692 343.087 7.08911C343.708 7.0788 343.708 7.0788 345.607 7.12754C345.744 7.13129 345.89 7.13691 346.027 7.13504C347.835 7.10504 349.652 7.07599 351.451 7.04318C351.935 7.03381 352.337 7.04224 352.684 7.07598C352.93 7.10036 353.177 7.11067 353.487 7.10505C355.149 7.07693 356.802 7.0488 358.464 7.02068C359.066 7.01037 359.669 6.99256 360.271 6.99256C360.71 6.9935 361.029 7.03849 361.422 7.06098C361.531 7.06755 361.714 7.06006 361.86 7.05818C363.969 7.02256 366.088 6.98975 368.188 6.94945C368.736 6.93914 369.028 6.971 369.393 6.99444C369.521 7.00287 369.658 7.01975 369.767 7.01881C370.525 7.0085 371.274 6.99444 372.032 6.98225C372.936 6.96725 373.849 6.956 374.744 6.93538C375.474 6.91851 375.748 7.00006 376.332 7.00287C376.78 7.00568 377.236 6.98975 377.684 6.98225C378.588 6.96725 379.492 6.95038 380.396 6.93726C380.715 6.93257 380.962 6.91757 381.062 6.88383C381.081 6.87726 380.925 6.86321 380.825 6.85477C379.611 6.75917 379.61 6.75916 378.387 6.77978C377.629 6.7929 376.88 6.80603 376.122 6.81728C375.995 6.81915 375.849 6.81165 375.721 6.80603C375.355 6.7901 375.392 6.77135 375.702 6.73761C376.013 6.70386 376.25 6.66262 376.515 6.62419C376.889 6.64856 377.255 6.67292 377.629 6.6973C377.93 6.69261 378.232 6.68699 378.533 6.68231C380.04 6.65794 381.546 6.63263 383.053 6.61013C383.162 6.60825 383.299 6.627 383.427 6.63638C383.792 6.66356 384.121 6.68699 384.651 6.67668C386.002 6.64949 387.363 6.62981 388.714 6.60638C389.307 6.59607 389.307 6.59607 390.348 6.65418C390.467 6.66074 390.622 6.66824 390.75 6.66637C392.111 6.64481 393.462 6.62138 394.822 6.59888C395.115 6.5942 395.398 6.60638 395.608 6.63356C395.69 6.64481 395.672 6.66355 396.019 6.81728C397.096 6.94194 397.836 6.92883 398.584 6.91758C398.904 6.91289 399.187 6.9082 399.397 6.88945C399.506 6.87914 399.643 6.86414 399.643 6.85196C399.643 6.84259 399.443 6.82759 399.315 6.82571C398.411 6.80696 397.552 6.84634 396.667 6.85477C396.256 6.85852 395.9 6.82572 395.827 6.77229C395.809 6.75729 395.781 6.74136 395.754 6.72636C395.726 6.71136 395.708 6.69543 395.681 6.68043C395.325 6.67574 395.115 6.69261 394.959 6.72448C394.832 6.75073 394.649 6.78072 394.402 6.79478C394.156 6.80978 393.818 6.80697 393.517 6.81166C393.225 6.81635 392.905 6.82853 392.631 6.82197C392.357 6.81447 392.138 6.78728 391.882 6.77041C391.764 6.76197 391.618 6.74979 391.499 6.75167C390.449 6.7676 389.408 6.78353 388.367 6.80415C387.819 6.8154 387.545 6.77604 387.198 6.75167C386.924 6.73292 386.65 6.7376 386.605 6.78072C386.486 6.88383 386.906 6.92694 387.837 6.90726C388.604 6.89039 389.298 6.88758 389.901 6.95132C389.983 6.95976 390.175 6.96351 390.293 6.96163C391.042 6.95038 391.782 6.93632 392.53 6.92507C392.667 6.9232 392.814 6.92694 392.942 6.93069C394.804 6.98131 394.804 6.98225 395.434 6.971C395.736 6.96538 396.028 6.96069 396 6.81822C396.575 6.66543 397.489 6.65512 398.374 6.63262C398.95 6.61856 399.196 6.65981 399.57 6.68137C399.698 6.68887 399.835 6.70386 399.954 6.70199C401.917 6.67105 403.871 6.63824 405.825 6.60356C406.154 6.59794 406.391 6.60356 406.647 6.62793C406.975 6.65887 407.341 6.67855 407.861 6.66731C408.902 6.64481 409.961 6.63075 411.02 6.61201C411.559 6.60263 411.559 6.60262 412.646 6.66074C412.764 6.6673 412.92 6.6748 413.047 6.67292C414.107 6.65699 415.157 6.63731 416.207 6.62044C416.499 6.61575 416.764 6.62887 416.992 6.65418C417.22 6.67949 417.494 6.69261 417.777 6.68792C418.837 6.67105 419.887 6.65231 420.937 6.63544C421.064 6.63356 421.22 6.64013 421.338 6.64669C422.452 6.7048 422.452 6.70479 422.964 6.69542C423.712 6.68136 424.479 6.6748 425.219 6.65606C425.94 6.63731 426.315 6.69167 426.808 6.72167C428.159 6.70011 429.519 6.6823 430.862 6.65606C431.41 6.64481 431.702 6.67574 432.067 6.70011C432.195 6.70855 432.323 6.72636 432.441 6.72542C432.898 6.72167 433.345 6.71136 433.793 6.70386C434.24 6.69636 434.697 6.68887 435.144 6.68137C435.656 6.70855 435.993 6.77229 436.724 6.75073C437.162 6.73761 437.628 6.7348 438.075 6.7273C438.523 6.7198 438.979 6.7123 439.427 6.7048C439.728 6.70011 440.038 6.6973 440.331 6.68886C440.869 6.6748 441.134 6.72074 441.518 6.74136C441.645 6.74792 441.791 6.75916 441.91 6.75729C442.814 6.74416 443.727 6.73292 444.613 6.71136C445.298 6.69449 445.763 6.72261 446.247 6.76198C446.348 6.77041 446.521 6.7751 446.649 6.77323C447.708 6.75729 448.758 6.7376 449.808 6.72073C450.091 6.71604 450.365 6.73104 450.594 6.75541C450.831 6.78072 451.096 6.79291 451.388 6.78823C452.438 6.77135 453.497 6.7526 454.547 6.73573C454.675 6.73386 454.83 6.74136 454.949 6.74885C455.972 6.80697 455.972 6.80791 456.574 6.79666C456.72 6.79385 456.876 6.79197 457.022 6.78915C457.77 6.77603 458.547 6.77135 459.277 6.74885C460.117 6.72355 460.729 6.75542 461.322 6.80884C462.071 6.7976 462.838 6.79103 463.568 6.77229C464.116 6.75823 464.409 6.79384 464.774 6.81728C464.902 6.82571 465.038 6.84259 465.148 6.84071C466.207 6.82478 467.266 6.81072 468.307 6.78729C468.873 6.77417 469.12 6.81634 469.503 6.8379C469.631 6.8454 469.768 6.85852 469.887 6.85665C470.49 6.84915 471.092 6.8379 471.695 6.82759C472.398 6.8154 472.398 6.81634 473.329 6.87352C473.768 6.9007 474.206 6.87914 474.635 6.87258C475.092 6.86508 475.521 6.85946 475.886 6.89789C476.114 6.92226 476.388 6.93726 476.671 6.93351C477.274 6.92507 477.886 6.91664 478.479 6.90258C478.954 6.89133 479.365 6.89883 479.712 6.93351C479.958 6.95788 480.214 6.97007 480.515 6.96445C481.867 6.94195 483.227 6.91851 484.578 6.89695C484.697 6.89507 484.861 6.90351 484.971 6.91195C485.227 6.92882 485.473 6.94756 485.72 6.96631C486.313 6.95788 486.925 6.95414 487.509 6.94101C488.13 6.92789 488.697 6.9232 489.18 6.97476C489.281 6.986 489.427 7.00193 489.546 7.00099C490.002 6.99724 490.45 6.98787 490.897 6.98037C491.344 6.97288 491.801 6.96538 492.248 6.95788C492.769 6.98131 493.098 7.0488 493.828 7.02724C494.266 7.01412 494.732 7.01131 495.18 7.00381C495.627 6.99631 496.083 6.98787 496.531 6.98131C496.677 6.97944 496.841 6.97475 496.969 6.9785C497.106 6.98225 497.225 6.99537 497.343 7.00475C497.709 7.03193 498.047 7.05911 498.567 7.04318C499.005 7.03006 499.471 7.02724 499.918 7.01881C500.53 7.0085 500.53 7.0085 501.544 7.06755C501.955 7.09192 502.42 7.06005 502.813 7.08068C503.078 7.09474 503.306 7.11816 503.562 7.1341C503.671 7.14066 503.845 7.14347 503.972 7.14159C504.575 7.13316 505.187 7.12473 505.78 7.11067C506.264 7.09942 506.666 7.11066 507.004 7.14441C507.25 7.16878 507.497 7.1791 507.807 7.17347C509.314 7.14723 510.821 7.12472 512.318 7.09566C512.829 7.08535 513.24 7.10129 513.523 7.13504C514.007 7.19315 514.692 7.12473 515.194 7.17159C515.505 7.20065 515.815 7.2344 516.381 7.22034C517.422 7.19597 518.481 7.18284 519.531 7.16597C519.906 7.19127 520.28 7.21659 520.664 7.2419C521.266 7.23158 521.869 7.22127 522.471 7.21189C522.919 7.2044 523.375 7.19596 523.823 7.1894C523.969 7.18752 524.124 7.18377 524.261 7.18846C524.398 7.19315 524.508 7.20534 524.636 7.21471C525.266 7.26064 525.265 7.26158 526.306 7.24283C526.754 7.2344 527.183 7.22877 527.557 7.26627C527.904 7.30095 528.315 7.30751 528.79 7.29719C529.685 7.27845 530.589 7.26439 531.502 7.25127C531.785 7.24658 532.05 7.26251 532.287 7.28689C532.643 7.32532 533.082 7.32157 533.529 7.31126C534.122 7.29813 534.707 7.28501 535.209 7.33751C535.309 7.34875 535.465 7.36468 535.574 7.36374C536.323 7.35624 537.081 7.35062 537.811 7.33281C538.542 7.315 538.898 7.37312 539.4 7.40124C540.149 7.38905 540.907 7.37687 541.655 7.36468C541.801 7.36187 541.975 7.35344 542.103 7.35812C542.642 7.37781 542.952 7.44811 543.692 7.42655C544.121 7.41436 544.586 7.41062 545.034 7.40781C545.152 7.40687 545.308 7.4228 545.39 7.43498C545.436 7.44154 545.39 7.45935 545.335 7.46872C545.171 7.49497 544.97 7.51935 544.824 7.54653C544.805 7.55028 544.979 7.56714 545.079 7.57464C545.326 7.59152 545.609 7.58871 545.938 7.58121C546.221 7.57465 546.513 7.58777 546.714 7.61589C546.796 7.62714 546.769 7.64589 546.595 7.70775C546.595 7.75368 546.787 7.73305 546.851 7.70306C546.951 7.65994 546.759 7.64588 546.394 7.66932C546.139 7.68619 546.011 7.71056 546.075 7.73025C546.111 7.74056 546.285 7.75368 546.595 7.70775C547.399 7.65151 548.001 7.6412 548.604 7.63089C548.759 7.62808 548.942 7.6187 549.051 7.62433C549.444 7.64682 549.809 7.67401 550.193 7.69932C550.631 7.69369 551.042 7.67963 551.471 7.71618C552.074 7.76774 552.101 7.76305 552.685 7.75274C552.987 7.74712 553.288 7.74244 553.589 7.73775C553.891 7.73306 554.128 7.74712 554.393 7.76868C554.932 7.81273 554.977 7.81273 555.333 7.75274C555.543 7.71618 555.689 7.704 555.954 7.72087C556.831 7.77805 556.84 7.7818 557.589 7.76493C558.21 7.75087 558.794 7.74712 559.25 7.80055C559.561 7.83804 559.661 7.8296 559.908 7.79024C560.565 7.68619 560.867 7.68806 562.099 7.76305C562.674 7.79867 563.268 7.76024 563.852 7.75556C564.346 7.75181 564.692 7.7743 564.729 7.83335C564.756 7.86991 564.839 7.89616 565.167 7.90834C565.295 7.91303 565.45 7.91959 565.578 7.91771C566.336 7.90646 567.085 7.89334 567.843 7.88022C568.226 7.87366 568.436 7.82961 568.363 7.77149C568.281 7.70963 568.427 7.68713 568.975 7.66932C569.303 7.65901 569.568 7.66089 569.833 7.67776C570.125 7.69651 570.043 7.71338 569.788 7.74712C569.176 7.82961 569.249 7.88022 570.034 7.93739C570.308 7.95708 570.527 7.97489 570.591 8.00395C570.627 8.01895 570.591 8.03863 570.673 8.04988C571.121 8.11268 571.741 8.15299 572.435 8.18299C573.102 8.15768 573.558 8.19985 574.07 8.2336C574.472 8.25984 574.946 8.23735 575.375 8.22798C575.859 8.21767 576.261 8.22516 576.608 8.25984C576.855 8.28421 577.11 8.29546 577.412 8.29077C578.014 8.28046 578.626 8.2739 579.22 8.25891C579.731 8.24578 580.114 8.26453 580.434 8.2964C580.836 8.33671 581.283 8.30952 581.703 8.31514C582.269 8.32171 582.552 8.40513 583.292 8.38263C583.73 8.36951 584.187 8.36482 584.643 8.36107C584.762 8.36014 584.908 8.37607 585.009 8.38732C585.492 8.43887 586.059 8.43606 586.68 8.42106C587.109 8.41075 587.529 8.40138 587.949 8.437C588.643 8.49699 589.41 8.54949 590.14 8.60479C590.241 8.64791 590.167 8.69851 590.688 8.72382C590.962 8.73695 591.218 8.75664 591.428 8.7782C591.683 8.8035 591.92 8.81007 592.249 8.80351C592.843 8.79038 593.464 8.78756 594.048 8.77069C594.587 8.75569 594.925 8.78663 595.253 8.81569C595.518 8.83912 595.765 8.85037 596.084 8.8335C596.413 8.81756 596.65 8.82787 596.915 8.85318C597.29 8.88786 597.317 8.88411 598.559 8.89442C598.687 8.89536 598.842 8.90941 598.915 8.9216C598.951 8.92816 598.869 8.94692 598.805 8.95629C598.723 8.96754 598.595 8.98066 598.477 8.98347C597.125 9.00784 595.765 9.0294 594.413 9.05377C594.276 9.05658 594.13 9.06315 594.03 9.07252C593.92 9.08283 593.783 9.09688 593.783 9.11001C593.783 9.11938 593.966 9.13063 594.094 9.13719C594.495 9.15875 594.97 9.12595 595.363 9.15032C595.628 9.16625 595.847 9.18874 596.112 9.20374C596.221 9.2103 596.395 9.20937 596.532 9.20749C596.988 9.20093 597.436 9.19156 597.892 9.18594C598.02 9.185 598.166 9.19438 598.285 9.20187C599.161 9.25811 599.161 9.25811 599.919 9.24593C600.221 9.24124 600.54 9.22718 600.823 9.2328C601.097 9.23843 601.335 9.26373 601.581 9.27967C602.092 9.31341 602.576 9.34622 602.613 9.41933C602.631 9.44745 602.932 9.47182 603.234 9.47369C603.526 9.47557 603.836 9.46527 604.138 9.45964C604.85 9.44839 604.85 9.44839 605.772 9.50557C606.028 9.52151 606.302 9.52338 606.63 9.514C606.758 9.51025 606.914 9.51401 607.051 9.5187C607.498 9.53276 607.498 9.55056 607.206 9.5843C606.795 9.63398 606.831 9.63867 607.982 9.68085C608.42 9.69679 608.758 9.72678 609.123 9.75303C609.716 9.79521 609.708 9.7952 609.315 9.85051C609.224 9.86269 609.141 9.87582 609.05 9.88894C608.785 9.9255 608.575 9.96486 608.027 9.96861C607.425 9.97236 606.822 9.98736 606.219 9.99767C605.635 10.008 605.48 10.0305 605.535 10.0942C605.599 10.1711 605.717 10.1795 606.767 10.1786C607.069 10.1786 607.333 10.1861 607.562 10.2114C607.452 10.2414 607.251 10.2648 606.959 10.2704C606.21 10.2845 605.453 10.2967 604.704 10.3089C604.101 10.3192 603.499 10.3295 602.896 10.3398C602.522 10.3464 602.284 10.3951 602.385 10.4495C602.439 10.4804 602.485 10.5113 602.531 10.5423C602.631 10.6041 602.823 10.6201 603.435 10.6173C603.59 10.6163 603.736 10.6088 603.882 10.6107C604.475 10.6172 604.758 10.695 605.471 10.6791C606.064 10.666 606.685 10.6632 607.27 10.6463C607.808 10.6313 608.11 10.6651 608.484 10.6904C608.612 10.6988 608.749 10.7166 608.858 10.7157C609.616 10.7054 610.374 10.6951 611.114 10.6772C611.461 10.6697 611.671 10.6754 611.945 10.6979C612.602 10.7522 612.62 10.7494 613.597 10.7325C614.309 10.7194 614.319 10.7213 615.232 10.7785C615.487 10.7944 615.761 10.7944 616.09 10.7869C616.519 10.7775 616.966 10.7625 617.414 10.7766C617.551 10.7803 617.724 10.7916 617.77 10.8038C617.797 10.8122 617.67 10.8328 617.56 10.8394C616.757 10.8881 615.816 10.8797 614.939 10.8994C614.666 10.905 614.392 10.8872 614.163 10.8619C613.926 10.8366 613.67 10.8263 613.36 10.831C612.757 10.8413 612.145 10.8478 611.552 10.8628C611.041 10.876 610.684 10.8544 610.328 10.8253C610.21 10.816 610.073 10.7982 609.954 10.7991C608.603 10.8178 607.242 10.8366 605.9 10.8628C605.361 10.8741 605.051 10.8441 604.686 10.8188C604.558 10.8103 604.43 10.7925 604.311 10.7935C603.855 10.7972 603.407 10.8075 602.951 10.815C601.289 10.8432 599.636 10.8713 597.974 10.8975C597.865 10.8994 597.728 10.8797 597.6 10.8713C597.353 10.8544 597.098 10.8385 596.842 10.8225C596.386 10.83 595.938 10.8394 595.482 10.845C595.153 10.8488 594.861 10.8619 594.815 10.8975C594.788 10.921 595.089 10.9425 595.409 10.9406C595.719 10.9388 596.03 10.9275 596.285 10.9397C597.554 10.9997 597.554 11.0006 598.349 10.9884C599.043 10.9772 598.97 10.9678 599.581 11.0194C599.846 11.0419 600.084 11.055 600.385 11.0494C601.134 11.0362 601.891 11.0231 602.649 11.0119C602.768 11.01 602.923 11.0194 603.042 11.0269C603.937 11.0831 603.937 11.085 604.676 11.0709C605.644 11.0541 605.681 11.0494 606.329 11.1065C606.777 11.1459 607.187 11.1187 607.617 11.1169C608.11 11.1534 608.648 11.1862 609.096 11.2275C609.625 11.2762 610.182 11.2678 610.785 11.2537C611.232 11.2434 611.671 11.2396 612.036 11.2781C612.383 11.3137 612.803 11.3174 613.278 11.3081C613.707 11.2996 614.145 11.2818 614.593 11.3024C614.711 11.3081 614.894 11.3221 614.885 11.3306C614.876 11.3437 614.757 11.3624 614.638 11.3681C613.798 11.4065 612.876 11.4056 611.99 11.4234C611.872 11.4262 611.716 11.4159 611.598 11.4084C611.342 11.3915 611.095 11.3718 610.849 11.354C610.401 11.3596 609.945 11.3615 609.507 11.3727C609.169 11.3812 608.913 11.3803 608.666 11.3578C608.438 11.3371 608.192 11.3118 607.918 11.3053C607.644 11.2987 607.324 11.3128 607.023 11.3184C606.722 11.324 606.375 11.3212 606.137 11.3362C605.9 11.3512 605.754 11.384 605.599 11.4102C605.425 11.4393 605.188 11.4487 604.841 11.4515C604.521 11.4543 604.266 11.4505 604.028 11.4243C603.928 11.4131 603.791 11.4046 603.654 11.3971C603.526 11.3906 603.38 11.3802 603.261 11.3821C601.901 11.4037 600.549 11.4271 599.189 11.4496C598.513 11.4609 598.522 11.4609 597.116 11.4055C596.988 11.4009 596.833 11.3943 596.705 11.3962C595.947 11.4074 595.199 11.4206 594.441 11.4337C593.674 11.4468 593.683 11.4449 592.377 11.3859C592.14 11.3746 591.793 11.3896 591.51 11.3877C590.916 11.3831 590.624 11.3043 589.93 11.3193C589.337 11.3324 588.716 11.3353 588.122 11.3521C587.583 11.3671 587.273 11.3343 586.908 11.309C586.78 11.3006 586.643 11.2818 586.533 11.2837C585.173 11.3043 583.822 11.3278 582.014 11.3306C581.566 11.3306 581.767 11.3503 582.059 11.3568C582.479 11.3671 582.616 11.3474 582.388 11.3099C582.224 11.2837 581.986 11.2706 581.794 11.2771C581.694 11.2809 581.566 11.2987 582.014 11.3306C582.488 11.3662 582.461 11.3859 582.543 11.3971C582.744 11.4243 583.027 11.4355 583.319 11.4318C583.776 11.4252 584.223 11.4159 584.68 11.4102C584.808 11.4084 584.963 11.4149 585.082 11.4224C586.086 11.4805 586.095 11.4843 587.164 11.4618C587.501 11.4552 587.748 11.4552 588.013 11.473C588.378 11.4974 588.643 11.5387 589.2 11.5255C589.939 11.5077 590.697 11.4974 591.455 11.4871C591.574 11.4852 591.701 11.5021 591.838 11.5096C592.213 11.5321 592.487 11.5743 593.044 11.5565C593.473 11.5424 593.939 11.5387 594.395 11.5358C594.514 11.5349 594.696 11.5499 594.751 11.5621C594.861 11.5836 594.724 11.609 594.413 11.6268C594.285 11.6343 594.112 11.6324 593.966 11.6352C593.363 11.6455 592.761 11.6568 592.158 11.6652C591.839 11.6699 591.537 11.6839 591.501 11.7186C591.473 11.7421 591.802 11.7627 592.112 11.7608C592.569 11.758 593.025 11.7505 593.464 11.7383C594.24 11.7177 594.916 11.7233 595.546 11.7824C595.993 11.8236 595.966 11.8086 596.44 11.9305C596.559 11.9614 596.915 11.9642 597.226 11.9623C597.974 11.9576 598.321 11.9717 598.257 12.0008C598.175 12.0364 597.91 12.0476 597.573 12.0523C596.97 12.0598 596.367 12.072 595.765 12.0823C595.619 12.0851 595.454 12.0907 595.317 12.0889C595.18 12.087 595.053 12.0758 594.934 12.0673C594.678 12.0495 594.459 12.0223 594.185 12.0158C593.911 12.0092 593.592 12.0233 593.29 12.0289C592.989 12.0336 592.669 12.0476 592.395 12.0411C592.122 12.0345 591.893 12.0064 591.647 11.9895C591.528 11.9811 591.382 11.968 591.263 11.9689C590.661 11.9764 590.058 11.9886 589.455 11.998C588.716 12.0101 588.716 12.0101 587.821 11.952C587.565 11.9352 587.3 11.9361 586.963 11.9436C586.232 11.9586 586.223 11.9558 584.89 11.9014C584.762 11.8958 584.607 11.8892 584.479 11.892C583.118 11.9136 581.767 11.937 580.416 11.9595C579.256 11.9792 579.256 11.9792 578.617 12.0729C578.142 12.1423 578.133 12.1423 578.599 12.1742C578.973 12.2004 579.311 12.2388 579.722 12.2529C580.105 12.266 580.58 12.2239 581 12.267C581.21 12.2885 581.484 12.312 581.749 12.3157C582.169 12.3204 582.616 12.2932 583.018 12.3345C583.219 12.3551 583.52 12.3766 583.776 12.3776C584.223 12.3795 584.68 12.3644 585.127 12.3579C585.264 12.356 585.42 12.356 585.547 12.3607C585.684 12.3663 585.803 12.3776 585.922 12.387C586.287 12.4188 586.68 12.4338 587.154 12.4179C587.93 12.3916 588.624 12.4048 589.227 12.4647C589.309 12.4732 589.51 12.4741 589.638 12.4704C589.967 12.461 590.25 12.4601 590.496 12.4779C590.597 12.4854 590.743 12.4985 590.724 12.5069C590.697 12.521 590.587 12.5397 590.469 12.5444C589.61 12.5763 588.688 12.58 587.803 12.5969C587.684 12.5988 587.538 12.5866 587.419 12.5782C587.164 12.5613 586.944 12.5332 586.67 12.5266C586.396 12.5201 586.077 12.5322 585.776 12.5369C585.474 12.5416 585.155 12.5557 584.881 12.55C584.607 12.5435 584.351 12.52 584.132 12.4994C583.876 12.476 583.63 12.4732 583.292 12.4826C582.854 12.4947 582.397 12.4966 581.95 12.5032C581.703 12.4854 581.457 12.4657 581.201 12.4488C581.082 12.4404 580.936 12.4301 580.808 12.431C580.206 12.4385 579.603 12.4497 579 12.4601C578.398 12.4704 578.398 12.4704 577.375 12.4123C577.257 12.4057 577.101 12.3982 576.973 12.4001C576.216 12.4113 575.467 12.4254 574.709 12.4366C574.417 12.4413 574.152 12.4282 573.915 12.4029C573.686 12.3776 573.412 12.3635 573.129 12.3682C571.924 12.3879 570.719 12.4066 569.514 12.4301C569.03 12.4394 568.619 12.431 568.29 12.3973C567.906 12.3588 567.477 12.3682 567.03 12.3757C566.016 12.3944 566.007 12.3935 565.359 12.3457C565.231 12.3363 565.103 12.3185 564.985 12.3195C563.935 12.3335 562.876 12.3466 561.835 12.3691C561.287 12.3813 560.995 12.3485 560.629 12.3241C560.501 12.3157 560.365 12.2979 560.255 12.2998C559.497 12.3101 558.739 12.3195 557.999 12.3382C557.26 12.357 556.977 12.2698 556.42 12.2707C555.662 12.2717 554.913 12.2932 554.165 12.3063C553.562 12.3167 552.959 12.327 552.357 12.3373C551.754 12.3476 551.151 12.356 550.549 12.3682C550.229 12.3748 549.992 12.3663 549.727 12.3429C549.389 12.312 548.988 12.2876 548.622 12.2595C548.065 12.2192 548.065 12.2192 547.39 12.2304C547.243 12.2332 547.088 12.2351 546.942 12.2379C545.837 12.2585 545.837 12.2567 544.431 12.1976C544.367 12.1948 544.203 12.2051 544.139 12.2126C543.947 12.237 543.774 12.2632 543.6 12.2885C543.354 12.2735 543.052 12.2651 542.888 12.2435C542.422 12.1826 541.692 12.266 541.217 12.206C541.044 12.1835 540.742 12.1639 540.468 12.1582C540.185 12.1526 539.866 12.1657 539.573 12.1714C538.816 12.1854 538.816 12.1845 538.167 12.2679C537.839 12.3091 537.364 12.3016 536.935 12.311C536.487 12.3213 536.058 12.327 535.684 12.2885C535.346 12.2538 534.935 12.2454 534.451 12.2567C533.858 12.2707 533.246 12.2792 532.643 12.2876C532.515 12.2895 532.36 12.2848 532.232 12.2792C530.835 12.2239 530.835 12.2229 530.16 12.2351C529.858 12.2407 529.548 12.2426 529.256 12.251C528.763 12.266 528.388 12.2463 528.032 12.2163C527.914 12.207 527.776 12.1892 527.658 12.1901C527.055 12.1948 526.462 12.2032 525.868 12.2117C525.412 12.2182 524.955 12.222 524.517 12.2351C523.786 12.2567 523.43 12.1957 522.928 12.1676C522.179 12.1798 521.421 12.1882 520.673 12.2051C520.326 12.2126 520.098 12.2098 519.833 12.1873C519.495 12.1592 519.184 12.1273 518.637 12.1414C517.906 12.1601 517.139 12.1667 516.39 12.1779C515.888 12.1489 515.523 12.0898 514.802 12.1114C514.363 12.1245 513.898 12.1273 513.45 12.1348C512.848 12.1451 512.245 12.1545 511.642 12.1657C510.994 12.177 511.003 12.1742 510.008 12.1189C509.433 12.0861 508.839 12.1226 508.255 12.1282C507.798 12.1329 507.57 12.176 507.68 12.2313C507.789 12.2867 507.542 12.3298 507.122 12.3373C506.072 12.3551 505.013 12.3738 503.963 12.3898C503.835 12.3916 503.68 12.3851 503.562 12.3785C502.438 12.3195 502.438 12.3204 501.936 12.3288C501.187 12.3429 500.421 12.3504 499.681 12.3682C499.17 12.3804 498.795 12.3607 498.466 12.3288C498.211 12.3045 497.973 12.2988 497.645 12.3045C494.029 12.3673 490.413 12.4254 486.806 12.4901C486.268 12.4994 485.957 12.4723 485.592 12.4469C485.464 12.4385 485.345 12.4207 485.218 12.4207C484.916 12.4207 484.615 12.4291 484.314 12.4348C482.962 12.4573 481.611 12.4844 480.25 12.5013C479.675 12.5088 479.52 12.5519 479.273 12.5875C479.082 12.6147 478.863 12.626 478.525 12.6297C478.196 12.6335 477.959 12.6288 477.703 12.6044C477.374 12.5725 477 12.5529 476.489 12.566C475.895 12.581 475.292 12.5875 474.681 12.5979C474.37 12.6025 474.133 12.6194 474.032 12.6532C474.014 12.6588 474.206 12.6728 474.315 12.6813C474.681 12.7094 475.028 12.7422 475.439 12.7619C475.859 12.7816 476.315 12.7591 476.753 12.7534C476.909 12.7516 477.055 12.7459 477.201 12.7469C477.338 12.7478 477.502 12.7525 477.603 12.7609C478.077 12.8031 478.579 12.8322 479.237 12.8069C479.803 12.8191 480.095 12.8969 480.817 12.8762C481.255 12.8641 481.712 12.8584 482.168 12.8537C482.287 12.8528 482.414 12.8697 482.542 12.8781C482.908 12.9015 483.2 12.939 483.748 12.9231C484.332 12.9062 484.953 12.9034 485.546 12.8903C485.875 12.8828 486.112 12.8894 486.368 12.9137C486.697 12.9447 487.071 12.9681 487.583 12.9531C488.021 12.94 488.487 12.9372 488.934 12.9287C489.518 12.9184 489.518 12.9194 490.559 12.9775C490.678 12.984 490.833 12.9915 490.961 12.9897C491.719 12.9784 492.468 12.9643 493.225 12.9531C493.518 12.9484 493.801 12.9606 494.002 12.9878C494.084 12.999 494.056 13.0178 494.084 13.0337C492.577 13.059 491.07 13.0806 489.573 13.1115C489.007 13.1237 488.751 13.0853 488.377 13.0637C488.249 13.0562 488.112 13.0403 487.993 13.0421C486.934 13.0581 485.884 13.075 484.834 13.0956C484.505 13.1021 484.259 13.0984 484.013 13.0712C483.382 12.999 482.615 13.0384 481.903 13.0487C481.355 13.0562 481.182 13.0853 481.246 13.1471C481.328 13.2202 481.657 13.2427 482.497 13.2296C482.798 13.2249 483.099 13.2184 483.401 13.2146C483.693 13.2109 483.958 13.2231 484.195 13.2484C484.423 13.2737 484.697 13.2868 484.98 13.283C485.583 13.2746 486.195 13.2662 486.779 13.2521C487.263 13.2409 487.665 13.2502 488.003 13.2849C488.377 13.3233 488.815 13.3149 489.254 13.3065C490.276 13.2877 490.285 13.2887 490.924 13.3355C491.052 13.3449 491.18 13.3627 491.299 13.3618C492.349 13.3477 493.408 13.3355 494.44 13.313C494.979 13.3018 495.289 13.3318 495.645 13.3562C495.773 13.3646 495.901 13.3833 496.019 13.3815C496.777 13.3712 497.535 13.3608 498.275 13.343C498.622 13.3346 498.832 13.3402 499.115 13.3627C499.79 13.418 499.809 13.4161 500.767 13.3983C501.06 13.3927 501.379 13.3824 501.653 13.3899C501.927 13.3974 502.146 13.4246 502.402 13.4415C502.521 13.449 502.667 13.4593 502.794 13.4574C503.397 13.4499 504 13.4386 504.602 13.4283C505.168 13.418 505.168 13.419 506.228 13.4771C506.657 13.5014 507.104 13.4808 507.534 13.4733C507.999 13.4649 508.419 13.4649 508.775 13.5014C509.131 13.538 509.561 13.5361 510.017 13.5286C510.446 13.5211 510.884 13.5005 511.323 13.5258C512.327 13.5839 512.327 13.5849 512.948 13.5736C513.852 13.5577 514.747 13.5427 515.66 13.5286C515.779 13.5267 515.934 13.538 516.052 13.5455C516.308 13.5624 516.527 13.5905 516.801 13.597C517.075 13.6045 517.395 13.5933 517.687 13.5877C518.627 13.5699 518.691 13.5633 519.321 13.6252C519.851 13.6758 520.508 13.6027 521.002 13.6608C521.285 13.6936 521.668 13.7198 522.198 13.7039C522.636 13.6908 523.092 13.687 523.549 13.6795C524.27 13.6673 524.27 13.6683 525.183 13.7245C525.302 13.732 525.457 13.7414 525.576 13.7395C526.179 13.732 526.79 13.7255 527.375 13.7086C528.06 13.6889 528.498 13.7245 529.009 13.7592C529.411 13.7864 529.886 13.7639 530.315 13.7545C530.781 13.7452 531.201 13.748 531.547 13.7845C531.913 13.822 532.342 13.8173 532.798 13.8098C533.228 13.8033 533.666 13.7817 534.104 13.8079C535.045 13.8661 535.045 13.8661 535.729 13.8548C536.332 13.8445 536.935 13.8333 537.537 13.8258C537.656 13.8239 537.802 13.8361 537.921 13.8445C538.176 13.8614 538.396 13.8895 538.67 13.8961C538.943 13.9026 539.263 13.8904 539.564 13.8858C539.866 13.8811 540.185 13.867 540.459 13.8726C540.733 13.8783 540.989 13.9017 541.208 13.9223C541.464 13.9467 541.701 13.9495 542.048 13.9401C542.486 13.9279 542.943 13.9251 543.39 13.9186C543.637 13.9364 543.892 13.9542 544.13 13.9739C544.376 13.9945 544.641 13.9926 544.979 13.986C546.102 13.9635 546.111 13.9664 547.052 14.0245C547.481 14.0507 547.928 14.0292 548.357 14.0226C548.814 14.0151 549.243 14.0114 549.599 14.0489C549.946 14.0845 550.375 14.0892 550.832 14.0779C551.124 14.0704 551.435 14.0657 551.736 14.0629C551.873 14.062 552.037 14.0657 552.138 14.0732C552.621 14.1126 553.096 14.1482 553.763 14.1229C554.347 14.1304 554.639 14.2073 555.342 14.1923C555.936 14.1791 556.557 14.1763 557.141 14.1595C557.68 14.1445 558.063 14.1707 558.337 14.2035C558.83 14.2616 559.525 14.1829 560.018 14.2401C560.301 14.2729 560.666 14.2991 561.214 14.2851C561.816 14.2701 562.008 14.2897 562.181 14.3488C562.282 14.3825 562.264 14.4097 562.081 14.436C561.898 14.4632 561.698 14.4585 561.405 14.4275C561.068 14.3929 560.666 14.3863 560.182 14.3938C559.707 14.4013 559.415 14.3526 559.022 14.3338C558.63 14.3141 558.164 14.3469 557.753 14.3216C556.785 14.2626 556.785 14.2626 556.128 14.2738C555.68 14.2813 555.215 14.2851 554.776 14.2982C554.256 14.3141 553.918 14.2851 553.562 14.2588C553.434 14.2494 553.306 14.2316 553.197 14.2326C552.147 14.2466 551.087 14.2598 550.047 14.2832C549.499 14.2954 549.207 14.2616 548.841 14.2382C548.714 14.2298 548.576 14.2129 548.467 14.2148C547.563 14.2279 546.668 14.2448 545.764 14.2607C545.591 14.286 545.399 14.3104 545.235 14.3375C545.061 14.3657 544.824 14.3779 544.477 14.3769C543.902 14.3769 543.335 14.4163 542.76 14.3666C542.167 14.316 542.121 14.3188 541.546 14.331C540.815 14.3469 540.039 14.3432 539.354 14.3797C539.236 14.3863 539.108 14.4041 539.108 14.4172C539.099 14.4257 539.29 14.4378 539.409 14.4453C539.811 14.4678 540.277 14.435 540.678 14.4585C540.943 14.4735 541.162 14.496 541.427 14.5119C541.537 14.5185 541.701 14.5175 541.847 14.5166C542.002 14.5156 542.148 14.5091 542.294 14.51C542.431 14.511 542.578 14.5166 542.687 14.525C543.189 14.5606 543.719 14.5934 544.166 14.6356C544.605 14.6769 545.015 14.6487 545.454 14.6469C547.207 14.7125 547.207 14.7134 548.385 14.6928C548.677 14.6881 548.978 14.6825 549.28 14.6834C549.407 14.6834 549.526 14.7003 549.654 14.7097C550.019 14.7378 550.366 14.7631 550.878 14.7481C551.316 14.735 551.782 14.7322 552.229 14.7237C552.832 14.7134 552.832 14.7134 553.854 14.7725C554.11 14.7875 554.384 14.7856 554.713 14.7781C554.996 14.7715 555.288 14.7856 555.488 14.8128C555.571 14.824 555.543 14.8428 555.571 14.8587C554.667 14.8737 553.754 14.884 552.877 14.9065C552.311 14.9206 552.055 14.8803 551.681 14.8587C551.553 14.8512 551.416 14.8353 551.298 14.8372C550.403 14.8512 549.508 14.8671 548.613 14.8859C548.504 14.8878 548.367 14.9093 548.357 14.9224C548.339 14.9468 548.567 14.9703 548.896 14.9693C549.334 14.9684 549.764 14.9524 550.156 14.9909C550.485 15.0246 550.896 15.0396 551.38 15.0246C551.672 15.0162 551.982 15.0162 552.275 15.0087C553.051 14.9862 553.754 14.9909 554.338 15.0546C554.785 15.0715 555.224 15.0556 555.653 15.0471C555.973 15.0406 556.283 15.034 556.511 15.0518C556.995 15.0893 557.47 15.1268 558.137 15.1015C558.858 15.1277 559.406 15.183 560.008 15.228C560.291 15.2496 560.511 15.2618 560.839 15.2477C560.976 15.2421 561.141 15.2421 561.287 15.2393C561.588 15.2346 561.908 15.2205 562.181 15.2261C562.455 15.2327 562.684 15.2599 562.93 15.2768C563.049 15.2852 563.186 15.2993 563.305 15.2983C563.761 15.2936 564.208 15.2843 564.656 15.2768C565.103 15.2702 565.551 15.2636 565.998 15.2571C566.372 15.2815 566.756 15.3058 567.13 15.3302C567.733 15.3199 568.336 15.3096 568.929 15.3002C569.596 15.2889 569.596 15.2899 570.554 15.348C570.984 15.3742 571.44 15.3574 571.851 15.3452C572.536 15.3255 572.992 15.3611 573.476 15.3986C573.577 15.4061 573.759 15.4108 573.878 15.4071C574.353 15.3939 574.764 15.4042 575.111 15.4389C575.357 15.4633 575.604 15.4745 575.905 15.4699C576.955 15.4521 578.005 15.4333 579.055 15.4174C579.183 15.4155 579.329 15.4239 579.448 15.4314C580.379 15.4886 580.388 15.4914 581.073 15.4764C581.685 15.4633 582.251 15.4577 582.735 15.5092C582.835 15.5205 582.991 15.5364 583.1 15.5355C583.849 15.5261 584.607 15.5158 585.346 15.4998C585.684 15.4924 585.922 15.4952 586.186 15.5167C586.524 15.5439 586.826 15.5767 587.383 15.5645C588.926 15.5299 588.935 15.5355 590.761 15.6001C590.889 15.6048 591.062 15.5973 591.208 15.5936C591.519 15.5842 591.747 15.5973 592.021 15.6189C592.633 15.6676 592.651 15.6648 593.235 15.6545C593.683 15.6461 594.149 15.6442 594.587 15.6301C595.262 15.6095 595.71 15.6461 596.212 15.6808C596.614 15.7079 597.079 15.6854 597.509 15.677C597.974 15.6676 598.394 15.6704 598.741 15.7061C598.979 15.7304 599.234 15.7436 599.536 15.7389C600.586 15.722 601.636 15.7033 602.686 15.6864C602.814 15.6845 602.969 15.692 603.088 15.6986C604.129 15.7567 604.129 15.7595 605.16 15.7379C605.489 15.7314 605.763 15.7295 606.009 15.7492C606.247 15.7679 606.503 15.7857 606.749 15.8035C607.197 15.797 607.653 15.7951 608.091 15.7839C608.429 15.7754 608.666 15.7792 608.931 15.7989C609.278 15.8242 609.57 15.8682 610.118 15.8467C610.401 15.8363 610.73 15.8392 611.013 15.8298C611.351 15.8176 611.579 15.8251 611.844 15.8495C612.173 15.8785 612.511 15.9085 613.04 15.8935C613.625 15.8767 614.245 15.8738 614.839 15.8607C615.168 15.8532 615.396 15.8607 615.661 15.8851C615.99 15.916 616.364 15.9357 616.875 15.9235C617.916 15.9001 617.925 15.9048 618.939 15.9638C619.194 15.9788 619.468 15.977 619.797 15.9695C620.08 15.9629 620.372 15.977 620.573 16.0041C620.765 16.0341 620.747 16.0529 620.765 16.0688ZM539.4 7.61495C539.099 7.61964 538.797 7.62526 538.359 7.54372C538.332 7.52966 538.35 7.51279 538.286 7.5006C538.14 7.47529 537.912 7.45748 537.638 7.45467C537.145 7.45092 536.551 7.48279 536.56 7.50716C536.569 7.52778 536.725 7.54559 537.026 7.56246C537.154 7.56902 537.254 7.58027 537.373 7.58777C537.72 7.60933 537.994 7.65151 538.496 7.62995C538.405 7.57184 538.45 7.6009 538.496 7.62995C538.45 7.66557 538.587 7.69088 538.916 7.70119C539.007 7.70401 539.144 7.70213 539.217 7.6965C539.501 7.67588 539.546 7.64777 539.336 7.57372C539.3 7.5859 539.327 7.60745 539.409 7.61308C539.491 7.6187 539.692 7.61402 539.793 7.60746C540.048 7.58965 540.176 7.56621 540.112 7.54653C540.076 7.53622 539.902 7.5231 539.793 7.5231C539.601 7.5231 539.427 7.54372 539.4 7.61495ZM613.232 18.4853C612.565 18.5031 611.799 18.4965 611.132 18.5331C611.013 18.5396 610.895 18.5565 610.885 18.5696C610.876 18.5781 611.059 18.5903 611.169 18.5968C611.415 18.6118 611.689 18.6071 612.008 18.6024C612.492 18.5959 612.775 18.639 613.15 18.6606C613.269 18.6671 613.424 18.6718 613.552 18.6699C614.291 18.6587 615.022 18.6465 615.761 18.6334C615.889 18.6306 616.026 18.624 616.136 18.6156C616.501 18.5884 616.464 18.5706 616.108 18.55C615.716 18.5275 615.405 18.49 615.003 18.4721C614.428 18.4468 613.844 18.4806 613.232 18.4853ZM561.378 19.1695C560.931 19.177 560.492 19.1845 560.045 19.192C559.899 19.1948 559.743 19.1958 559.607 19.1995C559.323 19.2061 559.113 19.2258 558.977 19.2567C559.187 19.2811 559.442 19.2951 559.725 19.2923C560.173 19.2867 560.611 19.2745 561.058 19.2717C561.542 19.268 561.825 19.3101 562.2 19.3317C562.318 19.3383 562.464 19.3392 562.601 19.3401C563.277 19.3439 563.688 19.2951 563.56 19.2267C563.469 19.1733 563.122 19.1414 562.702 19.148C562.264 19.1545 561.816 19.162 561.378 19.1695ZM616.355 17.0999C616.464 17.0839 616.583 17.0727 616.638 17.0586C616.802 17.0108 616.738 16.9752 616.437 16.9377C616.072 16.8918 615.624 16.9227 615.213 16.9274C615.113 16.9284 615.003 16.948 614.949 16.9602C614.912 16.9687 614.912 16.9865 614.967 16.9912C615.414 17.0287 615.889 17.0633 616.355 17.0999ZM537.145 14.331C536.706 14.3385 536.259 14.3441 535.821 14.3544C535.711 14.3572 535.611 14.375 535.547 14.3872C535.428 14.4097 535.556 14.4407 535.93 14.4435C536.359 14.4472 536.807 14.4313 537.254 14.4238C537.82 14.4144 538.158 14.3797 537.948 14.3497C537.747 14.3207 537.473 14.3151 537.145 14.331ZM56.5066 12.3279C56.7988 12.3232 57.1001 12.3195 57.3923 12.3129C57.6662 12.3063 57.8764 12.2857 58.0133 12.2548C57.7851 12.2304 57.5293 12.2173 57.2463 12.2201C56.7988 12.2257 56.3606 12.2332 55.9223 12.2426C55.6484 12.2482 55.3837 12.2688 55.3198 12.3007C55.2559 12.3251 55.8674 12.3391 56.5066 12.3279ZM498.53 12.1835C498.649 12.192 498.768 12.2089 498.886 12.2089C499.179 12.2089 499.48 12.2032 499.754 12.1939C499.873 12.1901 499.964 12.1732 500.019 12.1601C500.055 12.1517 500.046 12.1367 499.991 12.1292C499.727 12.0842 498.667 12.1001 498.494 12.1517C498.476 12.1611 498.521 12.1732 498.53 12.1835ZM469.723 7.05067C469.75 7.06567 469.759 7.08067 469.796 7.09566C469.869 7.12378 470.07 7.14441 470.362 7.15847C470.59 7.13504 470.709 7.1088 470.7 7.08068C470.691 7.06568 470.663 7.05067 470.627 7.03567C470.554 7.00755 470.353 6.98694 470.061 6.97288C469.832 6.99538 469.723 7.02162 469.723 7.05067ZM637.456 19.3326C637.374 19.3448 637.292 19.357 637.2 19.3682C637.447 19.3954 637.675 19.4039 637.849 19.3889C637.958 19.3795 638.022 19.3654 638.104 19.3532C637.858 19.3261 637.639 19.3186 637.456 19.3326ZM631.777 19.4601C631.895 19.4685 632.005 19.4798 632.133 19.4854C632.343 19.4948 632.535 19.4789 632.681 19.4451C632.562 19.4367 632.452 19.4254 632.325 19.4198C632.115 19.4104 631.923 19.4264 631.777 19.4601ZM635.374 19.2886C635.31 19.3111 635.438 19.3298 635.776 19.3458C635.858 19.3336 635.968 19.3223 636.023 19.3092C636.114 19.2876 635.959 19.268 635.63 19.253C635.539 19.2642 635.456 19.2764 635.374 19.2886ZM616.099 18.2781C616.035 18.3006 616.163 18.3194 616.501 18.3353C616.583 18.3231 616.693 18.3119 616.747 18.2987C616.839 18.2772 616.684 18.2575 616.355 18.2425C616.263 18.2538 616.181 18.2659 616.099 18.2781ZM589.839 11.6455C589.757 11.6577 589.674 11.6699 589.583 11.6811C589.83 11.7083 590.058 11.7167 590.231 11.7018C590.341 11.6924 590.405 11.6783 590.487 11.6661C590.241 11.6389 590.021 11.6315 589.839 11.6455ZM564.683 8.12674C564.902 8.1333 565.085 8.12018 565.24 8.0855C565.122 8.07706 565.012 8.06581 564.884 8.06019C564.674 8.05082 564.483 8.06676 564.336 8.1005C564.455 8.10987 564.574 8.1183 564.683 8.12674ZM551.325 7.90647C551.243 7.91865 551.161 7.93084 551.069 7.94208C551.316 7.96927 551.544 7.9777 551.718 7.9627C551.827 7.95333 551.891 7.93927 551.973 7.92708C551.727 7.8999 551.508 7.89334 551.325 7.90647ZM460.738 7.04974C460.656 7.06192 460.574 7.07411 460.482 7.08536C460.729 7.11254 460.957 7.12097 461.131 7.10597C461.24 7.0966 461.304 7.08254 461.386 7.07035C461.14 7.04317 460.921 7.03661 460.738 7.04974ZM9.68365 14.6759C9.56495 14.6675 9.44636 14.6591 9.33679 14.6497C9.07199 14.675 8.98984 14.6984 9.13593 14.7162C9.22724 14.7275 9.3641 14.734 9.4828 14.7425C9.75672 14.7172 9.82061 14.6947 9.68365 14.6759Z" fill="#FFE492"/>
<path d="M52.888 5.42362C51.8379 5.44142 50.7971 5.46391 49.747 5.47516C49.19 5.48079 48.9893 5.52109 48.761 5.55859C48.5784 5.58858 48.3684 5.59795 48.0305 5.60358C45.1817 5.64951 42.3419 5.69825 39.5022 5.74605C39.1461 5.73387 38.9727 5.71419 39.0548 5.69075C39.1005 5.67669 39.2101 5.65701 39.3197 5.65514C41.2645 5.62045 43.2002 5.58483 45.1542 5.55765C45.7112 5.55015 45.8665 5.50891 46.1495 5.47516C46.2408 5.46391 46.3139 5.44704 46.4326 5.44048C46.5513 5.43298 46.7248 5.43392 46.88 5.43205C50.021 5.37862 53.1621 5.32613 56.3031 5.27271C56.6592 5.28489 56.8327 5.30457 56.7505 5.328C56.7049 5.34206 56.5953 5.36175 56.4857 5.36362C55.2804 5.38331 54.0841 5.40299 52.888 5.42362Z" fill="#FFE492"/>
<path d="M626.271 10.4151C625.796 10.4263 625.194 10.4423 624.7 10.3879C624.463 10.3617 624.207 10.3532 623.897 10.3589C623.449 10.3682 622.993 10.3757 622.536 10.3813C622.418 10.3823 622.263 10.372 622.144 10.3635C621.888 10.3467 621.669 10.3185 621.395 10.311C621.121 10.3035 620.792 10.3242 620.509 10.3195C620.135 10.3129 619.98 10.2876 620.08 10.2642C620.135 10.2511 620.245 10.2323 620.363 10.2295C622.053 10.1948 622.062 10.1948 622.536 10.2286C622.902 10.2548 623.24 10.2839 623.76 10.2679C624.198 10.2548 624.664 10.252 625.111 10.2436C625.732 10.2323 625.732 10.2332 626.737 10.2923C626.992 10.3073 627.266 10.3064 627.595 10.2979C627.878 10.2914 628.152 10.3064 628.38 10.3317C628.234 10.3635 628.024 10.3842 627.741 10.3898C627.284 10.3992 626.837 10.4057 626.271 10.4151Z" fill="#FFE492"/>
<path d="M611.378 10.1263C612.529 10.1066 613.689 10.0898 614.839 10.0673C615.314 10.0579 615.688 10.0682 616.017 10.1001C616.373 10.1348 616.775 10.132 617.213 10.1254C617.487 10.1217 617.752 10.1366 617.935 10.1629C618.008 10.1732 617.989 10.192 618.017 10.207C617.012 10.2238 615.999 10.2416 614.985 10.2566C614.867 10.2585 614.72 10.2491 614.611 10.2416C614.364 10.2257 614.154 10.1976 613.889 10.1919C613.323 10.1788 612.757 10.2041 612.182 10.2088C611.908 10.2107 611.643 10.1966 611.461 10.1713C611.388 10.1591 611.406 10.1413 611.378 10.1263Z" fill="#FFE492"/>
<path d="M193.208 2.06727C194.404 2.04664 195.601 2.02697 196.797 2.00635C197.153 2.01947 197.317 2.03821 197.244 2.06165C197.198 2.07571 197.089 2.09539 196.979 2.09727C194.587 2.13945 192.195 2.17975 189.812 2.22005C189.456 2.20693 189.291 2.18819 189.364 2.16475C189.41 2.15069 189.52 2.13101 189.629 2.12913C190.816 2.10757 192.012 2.08789 193.208 2.06727Z" fill="#FFE492"/>
<path d="M9.21954 7.27578C8.68082 7.27765 8.11482 7.31233 7.51219 7.28609C7.39349 7.2814 7.22909 7.2664 7.23822 7.25796C7.25648 7.2439 7.36607 7.22609 7.48477 7.22047C8.00523 7.19703 8.65358 7.19422 8.91837 7.12861C9.0462 7.09487 9.28361 7.08363 9.60318 7.07706C9.94103 7.06957 10.1784 7.07237 10.4432 7.09205C10.7901 7.11736 11.0824 7.16423 11.6302 7.13986C11.6576 7.15486 11.7214 7.17173 11.694 7.18579C11.6666 7.19985 11.5481 7.21297 11.4385 7.22328C11.3381 7.23266 11.201 7.24109 11.0731 7.2439C10.4705 7.25515 9.86783 7.26453 9.21954 7.27578Z" fill="#FFE492"/>
<path d="M485.589 7.08748C486.036 7.07998 486.502 7.07623 486.94 7.0631C487.287 7.05279 487.506 7.05935 487.78 7.08185C488.246 7.12121 488.273 7.11747 489.414 7.12309C489.542 7.12403 489.698 7.13808 489.771 7.15027C489.816 7.15683 489.752 7.17465 489.697 7.18402C489.615 7.19621 489.496 7.21214 489.387 7.21214C488.666 7.21495 487.935 7.27026 487.232 7.20652C486.876 7.17465 486.483 7.15964 485.999 7.1737C485.707 7.18214 485.397 7.18589 485.095 7.18964C484.803 7.19339 484.502 7.18308 484.319 7.15496C484.055 7.11372 484.21 7.09779 484.685 7.1006C484.986 7.10247 485.287 7.09216 485.589 7.08748Z" fill="#FFE492"/>
<path d="M650.292 13.5484C650.867 13.539 651.442 13.5277 652.027 13.5202C652.145 13.5184 652.291 13.5287 652.401 13.5352C652.839 13.5634 652.775 13.6112 652.794 13.6533C652.803 13.6974 651.789 13.733 651.36 13.703C650.885 13.6693 650.456 13.6309 649.799 13.6515C649.543 13.659 649.242 13.6421 649.077 13.6149C648.831 13.5755 648.968 13.5596 649.434 13.5624C649.707 13.5643 650 13.554 650.292 13.5484Z" fill="#FFE492"/>
<path d="M359.069 0.790379C359.662 0.780069 360.256 0.764142 360.849 0.763204C361.196 0.762267 361.37 0.793193 361.288 0.815689C361.242 0.82975 361.132 0.849434 361.023 0.851309C359.836 0.873805 358.649 0.892555 357.462 0.913176C357.115 0.900054 356.941 0.880373 357.024 0.857877C357.069 0.843816 357.179 0.825069 357.288 0.822257C357.882 0.809134 358.475 0.80069 359.069 0.790379Z" fill="#FFE492"/>
<path d="M638.748 10.4972C639.323 10.4879 639.907 10.4738 640.482 10.4691C640.784 10.4672 641.021 10.4888 641.058 10.5132C641.076 10.5244 640.93 10.5441 640.811 10.5488C639.989 10.5806 639.104 10.5844 638.245 10.6003C637.971 10.605 637.679 10.59 637.515 10.5638C637.268 10.5235 637.405 10.5085 637.871 10.5113C638.163 10.5122 638.455 10.5019 638.748 10.4972Z" fill="#FFE492"/>
<path d="M499.824 7.21378C500.116 7.20909 500.417 7.19691 500.7 7.20066C501.002 7.20534 501.193 7.23253 501.285 7.25971C501.385 7.29064 501.376 7.3197 501.285 7.34595C501.139 7.39094 500.992 7.38907 500.655 7.35907C500.134 7.31221 500.098 7.31783 499.066 7.3197C498.947 7.3197 498.801 7.30564 498.71 7.29345C498.573 7.27471 498.646 7.24565 498.966 7.22878C499.203 7.2166 499.532 7.21847 499.824 7.21378Z" fill="#FFE492"/>
<path d="M618.055 10.1899C618.484 10.1824 618.913 10.1702 619.342 10.1702C619.644 10.1693 619.881 10.1908 619.909 10.2142C619.918 10.2255 619.781 10.2442 619.671 10.2499C619.151 10.2752 618.566 10.2771 618 10.2855C617.735 10.2892 617.443 10.2742 617.279 10.248C617.032 10.2086 617.178 10.1908 617.626 10.1964C617.763 10.1983 617.909 10.1927 618.055 10.1899Z" fill="#FFE492"/>
<path d="M548.983 9.03979C548.344 9.05104 547.742 9.03699 547.787 9.01262C547.851 8.98075 548.116 8.96012 548.39 8.95449C548.828 8.94512 549.266 8.93762 549.714 8.932C549.997 8.92825 550.252 8.94231 550.481 8.96668C550.344 8.99667 550.134 9.01823 549.86 9.02479C549.577 9.03135 549.276 9.03511 548.983 9.03979Z" fill="#FFE492"/>
<path d="M545.789 8.9201C546.219 8.9126 546.648 8.90042 547.077 8.90042C547.378 8.89948 547.616 8.92104 547.643 8.94447C547.652 8.95572 547.515 8.97447 547.406 8.98009C546.885 9.0054 546.301 9.00727 545.735 9.01571C545.47 9.01946 545.178 9.00446 545.013 8.97822C544.767 8.93885 544.913 8.92104 545.36 8.92667C545.497 8.92854 545.643 8.92291 545.789 8.9201Z" fill="#FFE492"/>
<path d="M493.758 7.20669C494.187 7.1992 494.616 7.187 495.045 7.18606C495.347 7.18513 495.584 7.20669 495.611 7.23013C495.621 7.24138 495.484 7.25919 495.374 7.26575C494.854 7.29106 494.269 7.29293 493.703 7.30137C493.438 7.30512 493.146 7.29012 492.982 7.26387C492.735 7.2245 492.881 7.20669 493.329 7.21231C493.466 7.21419 493.612 7.20857 493.758 7.20669Z" fill="#FFE492"/>
<path d="M491.123 7.1511C491.58 7.1436 491.726 7.13892 491.872 7.13892C492.146 7.13892 492.429 7.15017 492.593 7.17735C492.84 7.21672 492.694 7.22797 492.246 7.22985C491.671 7.23172 491.105 7.25141 490.53 7.25516C490.228 7.25703 489.991 7.23453 489.973 7.21109C489.963 7.19984 490.1 7.18016 490.21 7.17641C490.594 7.16235 491.014 7.15391 491.123 7.1511Z" fill="#FFE492"/>
<path d="M543.326 1.63685C543.034 1.64154 542.724 1.65466 542.45 1.64997C542.085 1.64341 541.939 1.61811 542.03 1.59467C542.085 1.58155 542.185 1.5628 542.295 1.55999C542.879 1.54687 543.473 1.53843 544.057 1.52905C544.404 1.54311 544.559 1.5628 544.468 1.58623C544.413 1.59935 544.313 1.61716 544.203 1.62091C543.92 1.63028 543.619 1.63216 543.326 1.63685Z" fill="#FFE492"/>
<path d="M187.507 2.17754C187.79 2.1766 188.045 2.18879 188.264 2.21222C188.128 2.24222 187.927 2.2619 187.653 2.27034C187.516 2.27409 187.361 2.27689 187.215 2.27783C186.931 2.27971 186.676 2.26658 186.457 2.24315C186.594 2.21315 186.804 2.19347 187.068 2.18504C187.205 2.18129 187.361 2.18035 187.507 2.17754Z" fill="#FFE492"/>
<path d="M634.504 10.494C634.494 10.4668 635.051 10.4359 635.554 10.4368C635.818 10.4377 636.092 10.4509 636.247 10.4762C636.485 10.5146 636.348 10.5296 635.9 10.5268C635.626 10.5249 635.334 10.5408 635.06 10.538C634.75 10.5371 634.568 10.5165 634.504 10.494Z" fill="#FFE492"/>
<path d="M501.571 7.32731C501.562 7.317 501.516 7.30482 501.543 7.29544C501.717 7.24389 502.767 7.22796 503.041 7.27295C503.087 7.28139 503.105 7.29544 503.068 7.30388C503.014 7.317 502.913 7.33387 502.803 7.33762C502.52 7.34699 502.228 7.35168 501.936 7.35262C501.808 7.35262 501.689 7.33668 501.571 7.32731Z" fill="#FFE492"/>
<path d="M14.0162 7.12583C12.9387 7.14551 12.9205 7.14363 13.1122 7.09676C13.2857 7.05458 13.6053 7.02928 14.071 7.02928C14.208 7.02928 14.354 7.0274 14.4727 7.03115C14.6006 7.03584 14.7833 7.0452 14.8107 7.05645C14.8655 7.07801 14.7101 7.10145 14.4362 7.11738C14.3175 7.12488 14.1623 7.12301 14.0162 7.12583Z" fill="#FFE492"/>
<path d="M201.764 2.04521C201.445 2.06115 201.171 2.05553 200.97 2.02553C200.769 1.99554 201.089 1.95991 201.646 1.95148C201.792 1.9496 201.947 1.94211 202.084 1.94586C202.221 1.94867 202.358 1.95991 202.44 1.97116C202.586 1.98991 202.495 2.01522 202.203 2.03678C202.084 2.04522 201.91 2.04334 201.764 2.04521Z" fill="#FFE492"/>
<path d="M634.523 10.4233C634.605 10.4111 634.687 10.3989 634.778 10.3877C635.116 10.4036 635.262 10.4224 635.171 10.4439C635.116 10.4571 635.006 10.4683 634.924 10.4805C634.586 10.4646 634.45 10.4449 634.523 10.4233Z" fill="#FFE492"/>
<path d="M27.4722 17.7967C27.4722 17.7854 27.6 17.7676 27.7005 17.7639C27.8922 17.7573 28.1295 17.7704 28.2939 17.7967C28.5222 17.8342 28.3853 17.8539 27.9653 17.8436C27.6731 17.8361 27.4722 17.8173 27.4722 17.7967Z" fill="#FFE492"/>
<path d="M504.982 6.45476C505.101 6.46319 505.22 6.47163 505.329 6.48101C505.174 6.51569 504.982 6.53068 504.782 6.5213C504.654 6.51568 504.544 6.50443 504.425 6.49599C504.581 6.46131 504.763 6.4482 504.982 6.45476Z" fill="#FFE492"/>
<path d="M501.781 6.4127C501.964 6.39864 502.183 6.40615 502.439 6.43333C502.356 6.44552 502.283 6.45958 502.183 6.46895C502.009 6.48395 501.781 6.47644 501.535 6.44832C501.608 6.43707 501.69 6.42489 501.781 6.4127Z" fill="#FFE492"/>
<path d="M499.201 6.45387C499.32 6.4623 499.438 6.47074 499.548 6.48011C499.393 6.5148 499.21 6.52979 499 6.52041C498.872 6.51479 498.763 6.50354 498.644 6.4951C498.799 6.46042 498.982 6.44637 499.201 6.45387Z" fill="#FFE492"/>
<path d="M499.266 6.40442C499.402 6.42317 499.329 6.44566 499.065 6.47097C498.946 6.46253 498.809 6.45598 498.718 6.44473C498.572 6.42692 498.645 6.40348 498.919 6.37817C499.028 6.38755 499.147 6.39599 499.266 6.40442Z" fill="#FFE492"/>
</svg>
