<svg width="1920" height="829" viewBox="0 0 1920 829" fill="none" xmlns="http://www.w3.org/2000/svg">
<rect width="1920" height="829" fill="#043873"/>
<g opacity="0.3">
<path d="M648.673 739.273C639.202 739.273 629.983 738.826 621.124 737.935C602.543 736.064 585.377 732.222 570.102 726.516C553.684 720.386 539.284 712.031 527.299 701.687C503.212 680.896 491.161 655.996 479.506 631.916C477.216 627.187 474.849 622.298 472.445 617.554C456.045 585.221 435.255 556.898 408.892 530.968C356.303 479.243 282.344 435.1 195.009 403.31C94.0064 366.547 -14.5879 348.234 -110.772 351.745C-167.304 353.81 -241.999 373.444 -275.382 406.975C-295.193 426.875 -296.791 448.959 -279.999 470.836L-280.332 470.929C-289.137 459.455 -292.973 447.953 -291.731 436.742C-290.591 426.457 -285.198 416.403 -275.697 406.861C-260.587 391.682 -235.668 378.23 -203.633 367.956C-174.032 358.464 -141.063 352.628 -110.794 351.523C-60.4578 349.687 -6.92279 353.762 48.3233 363.637C98.4032 372.59 147.82 385.873 195.199 403.118C282.586 434.926 356.589 479.093 409.208 530.849C435.585 556.797 456.386 585.135 472.797 617.486C475.204 622.23 477.571 627.121 479.857 631.85C491.502 655.912 503.545 680.794 527.6 701.555C550.862 721.636 582.351 733.801 621.186 737.71C674.966 743.126 740.274 731.8 795.879 707.411C876.011 672.266 931.624 621.111 985.408 571.643C994.836 562.971 1004.58 554.005 1014.23 545.347C1039.29 522.865 1073.22 493.732 1113.55 467.779C1154.77 441.25 1196.65 421.759 1241.6 408.19C1269.12 399.885 1298.28 394.289 1328.27 391.559C1355.97 389.036 1385.3 388.88 1415.43 391.09C1467.11 394.883 1522.78 405.597 1585.64 423.842C1709.42 459.77 1833.05 503.379 1953.12 553.459C2067.25 601.059 2179.18 654.922 2285.8 713.546L2285.55 713.709C2064.53 592.183 1828.99 494.725 1585.48 424.04C1447.91 384.105 1338.69 379.13 1241.77 408.386C1143.17 438.148 1074.29 491.859 1014.54 545.469C1004.89 554.124 995.143 563.09 985.716 571.761C931.917 621.248 876.286 672.418 796.099 707.587C770.187 718.953 741.036 727.817 711.801 733.222C696.357 736.077 681.005 737.944 666.166 738.771C660.252 739.108 654.415 739.273 648.673 739.273Z" fill="#FFE492"/>
<path d="M657.934 726.943C633.781 726.943 611.408 724.181 591.414 718.728C569.118 712.648 549.878 703.226 534.226 690.727C532.841 689.619 531.466 688.475 530.14 687.321C506.309 666.62 493.723 642.044 481.555 618.276C479.093 613.473 476.55 608.504 473.971 603.683C458.607 574.978 440.108 549.677 417.409 526.341C414.613 523.468 411.719 520.589 408.799 517.784C355.436 466.504 280.877 422.919 193.182 391.742C91.4504 355.606 -17.4517 338.051 -113.464 342.31C-169.586 344.826 -243.936 364.782 -277.462 398.055C-297.537 417.98 -299.809 440.107 -284.039 462.048L-284.376 462.136C-292.642 450.637 -296.038 439.112 -294.466 427.888C-293.023 417.579 -287.41 407.503 -277.777 397.941C-262.513 382.789 -237.667 369.321 -205.933 358.994C-176.602 349.449 -143.776 343.446 -113.497 342.09C-63.2227 339.86 -9.62904 343.545 45.793 353.042C95.9937 361.645 145.645 374.602 193.365 391.552C281.111 422.748 355.711 466.359 409.106 517.668C412.027 520.474 414.925 523.356 417.721 526.231C440.434 549.583 458.945 574.896 474.315 603.617C476.898 608.438 479.441 613.406 481.903 618.212C494.068 641.965 506.643 666.523 530.441 687.196C531.763 688.345 533.137 689.49 534.519 690.595C566.865 716.432 611.309 726.943 658.047 726.943C658.304 726.943 658.557 726.943 658.813 726.943C658.52 726.941 658.227 726.943 657.934 726.943ZM667.904 726.789C711.355 725.449 756.192 715.417 794.657 700.494C877.629 668.172 937.261 618.249 994.932 569.972C997.307 567.982 999.681 565.996 1002.06 564.01C1007.27 559.652 1013.45 554.492 1019.76 549.29C1048.06 525.962 1082.32 498.82 1121.77 474.389C1163.74 448.393 1205.68 429.103 1249.97 415.413C1277.18 407.01 1305.94 401.091 1335.44 397.82C1362.78 394.788 1391.67 393.932 1421.3 395.273C1472.49 397.591 1527.53 406.378 1589.57 422.14C1650.06 437.483 1699.78 451.927 1746.05 467.594C1811.59 489.81 1874.02 515.407 1926.45 537.515C2048.34 589.062 2167.93 647.593 2281.91 711.485L2281.66 711.646C2167.69 647.763 2048.11 589.236 1926.24 537.695C1873.82 515.59 1811.4 489.997 1745.87 467.787C1699.62 452.125 1649.91 437.686 1589.43 422.347C1454.29 388.01 1346.47 385.868 1250.14 415.611C1150.15 446.513 1078.95 500.885 1020.06 549.422C1013.74 554.624 1007.57 559.782 1002.35 564.143C999.978 566.126 997.603 568.114 995.229 570.104C937.539 618.397 877.885 668.337 794.855 700.683C774.267 708.67 752.359 715.014 729.738 719.538C708.681 723.745 687.924 726.177 667.904 726.789Z" fill="#FFE492"/>
<path d="M668.145 714.896C665.24 714.896 662.352 714.858 659.487 714.781C635.356 714.141 613.024 710.814 593.113 704.891C571.338 698.412 552.472 688.816 537.043 676.368C535.672 675.258 534.306 674.111 532.987 672.958C509.423 652.358 496.314 628.11 483.64 604.663C480.998 599.776 478.265 594.722 475.495 589.817C459.373 561.209 440.386 536.111 417.442 513.089C414.602 510.243 411.664 507.388 408.699 504.605C354.563 453.772 279.403 410.746 191.35 380.181C88.8926 344.673 -20.3173 327.872 -116.161 332.88C-170.124 335.744 -244.259 354.561 -279.507 389.105C-299.871 409.062 -302.835 431.25 -288.08 453.268L-288.421 453.349C-296.152 441.814 -299.102 430.264 -297.196 419.019C-295.445 408.677 -289.597 398.575 -279.818 388.99C-264.392 373.874 -239.627 360.402 -208.197 350.027C-179.142 340.435 -146.466 334.269 -116.194 332.662C-65.9783 330.041 -12.326 333.334 43.2682 342.452C93.5935 350.707 143.476 363.336 191.533 379.991C279.638 410.577 354.838 453.626 409.007 504.489C411.971 507.273 414.914 510.128 417.753 512.979C440.708 536.014 459.706 561.127 475.835 589.751C478.605 594.658 481.339 599.712 483.98 604.599C496.651 628.033 509.75 652.263 533.284 672.839C534.603 673.992 535.962 675.137 537.332 676.242C600.027 726.825 711.135 721.394 793.433 693.576C879.867 664.102 944.101 615.115 1006.22 567.742L1006.86 567.256C1012.87 562.664 1019.1 557.918 1025.29 553.231C1090.63 503.789 1162.45 452.977 1258.33 422.631C1285.25 414.13 1313.62 407.887 1342.63 404.076C1369.62 400.532 1398.07 398.976 1427.19 399.451C1477.97 400.279 1532.37 407.143 1593.51 420.435C1657.76 434.354 1706.12 447.148 1750.29 461.921C1813.23 483.012 1874.19 509.664 1927.98 533.179C2047.74 585.815 2165.51 645.111 2278.03 709.414L2277.77 709.573C2165.27 645.276 2047.51 585.987 1927.76 533.355C1873.98 509.845 1813.03 483.197 1750.11 462.113C1705.95 447.344 1657.62 434.554 1593.39 420.639C1460.86 391.828 1354.45 392.521 1258.5 422.823C1162.68 453.149 1090.89 503.938 1025.57 553.363C1019.38 558.05 1013.16 562.798 1007.14 567.388L1006.51 567.874C975.549 591.482 943.54 615.892 908.974 637.697C870.128 662.2 832.392 680.539 793.609 693.763C753.033 707.477 708.834 714.896 668.145 714.896Z" fill="#FFE492"/>
<path d="M2273.89 707.497C2162.85 642.786 2046.91 582.736 1929.29 529.014C1924.31 526.755 1919.32 524.486 1914.31 522.209C1863.37 499.047 1810.69 475.096 1754.36 456.438C1699.71 438.386 1644.32 427.349 1597.35 418.933C1467.69 395.559 1362.69 399.088 1266.88 430.035C1168.54 461.897 1092.33 514.797 1031.1 557.306C1027.43 559.857 1023.76 562.413 1020.09 564.971C1017.37 566.859 1014.66 568.748 1011.94 570.635C977.081 594.863 945.368 616.524 910.329 636.29C870.3 658.869 831.718 675.406 792.37 686.846C755.495 697.569 716.103 703.242 679.463 703.244C672.787 703.244 666.21 703.057 659.747 702.676C636.151 701.287 614.306 697.384 594.82 691.075C573.558 684.191 555.066 674.413 539.849 662.011C538.49 660.899 537.134 659.75 535.822 658.594C512.537 638.102 498.918 614.195 485.75 591.076C482.914 586.097 479.979 580.946 477.011 575.947C460.12 547.428 440.642 522.531 417.471 499.83C414.587 497.006 411.601 494.177 408.596 491.419C353.684 441.032 277.926 398.566 189.517 368.61C86.3347 333.73 -23.1792 317.689 -118.854 323.439C-184.261 327.447 -251.144 350.751 -281.504 380.106C-302.187 400.105 -305.855 422.363 -292.118 444.473L-292.463 444.55C-299.655 432.973 -302.162 421.388 -299.912 410.115C-297.842 399.735 -291.752 389.6 -281.815 379.989C-266.229 364.916 -241.544 351.444 -210.429 341.032C-181.652 331.401 -149.145 325.074 -118.891 323.221C-68.734 320.205 -15.0268 323.108 40.7396 331.848C91.1859 339.755 141.306 352.058 189.7 368.417C278.165 398.39 353.962 440.881 408.908 491.298C411.916 494.059 414.902 496.889 417.786 499.714C440.972 522.427 460.457 547.338 477.359 575.87C480.327 580.871 483.262 586.02 486.098 591.002C499.259 614.107 512.871 637.998 536.126 658.466C537.438 659.62 538.79 660.767 540.146 661.876C605.596 715.224 716.84 708.56 792.212 686.646C882.138 660.498 950.952 612.68 1011.67 570.489C1014.38 568.601 1017.1 566.712 1019.81 564.825C1023.48 562.267 1027.15 559.712 1030.83 557.16C1065.78 532.897 1100.29 509.318 1138.24 487.591C1181.87 462.603 1223.9 443.714 1266.71 429.841C1293.35 421.236 1321.31 414.669 1349.82 410.326C1376.47 406.264 1404.48 404.01 1433.09 403.623C1483.54 402.94 1537.31 407.88 1597.46 418.722C1644.45 427.142 1699.86 438.184 1754.54 456.246C1810.89 474.911 1863.58 498.869 1914.54 522.036C1919.54 524.312 1924.54 526.581 1929.52 528.84C2047.14 582.566 2163.1 642.623 2274.15 707.341L2273.89 707.497Z" fill="#FFE492"/>
<path d="M2270.01 705.423C2158.33 639.061 2044.22 578.247 1930.82 524.672C1924.04 521.467 1917.1 518.163 1910.38 514.969C1862.31 492.092 1812.6 468.437 1758.61 450.762C1704.69 433.175 1648.84 423.939 1601.31 417.224C1474.81 399.18 1371.2 405.542 1275.26 437.246C1183.75 467.596 1112.05 513.234 1042.72 557.369L1035.1 562.214C1029.09 566.042 1022.87 569.998 1016.74 573.879C947.34 617.761 877.863 658.889 791.132 679.925C770.086 685.03 748.475 688.567 726.894 690.445C703.719 692.459 681.208 692.488 659.982 690.529C636.928 688.4 615.578 683.929 596.525 677.239C575.79 669.959 557.668 660.002 542.667 647.648C541.315 646.53 539.97 645.379 538.67 644.225C515.671 623.854 501.561 600.3 487.916 577.52C484.871 572.437 481.72 567.18 478.54 562.075C460.864 533.645 440.903 508.948 417.512 486.574C414.588 483.778 411.558 480.971 408.505 478.235C352.82 428.295 276.465 386.388 187.693 357.042C83.7814 322.793 -26.0404 307.507 -121.55 314.003C-186.36 318.505 -252.939 341.971 -283.453 371.071C-304.48 391.121 -308.874 413.465 -296.159 435.687L-296.508 435.76C-303.161 424.132 -305.217 412.503 -302.619 401.196C-300.223 390.773 -293.88 380.598 -283.768 370.956C-268.012 355.934 -243.416 342.475 -212.631 332.032C-184.139 322.366 -151.808 315.888 -121.594 313.787C-71.4962 310.38 -17.734 312.891 38.2083 321.252C88.7791 328.812 139.13 340.787 187.865 356.85C276.689 386.212 353.087 428.145 408.806 478.114C411.858 480.852 414.892 483.661 417.816 486.457C441.221 508.842 461.194 533.553 478.877 561.998C482.057 567.103 485.208 572.362 488.253 577.445C501.89 600.212 515.993 623.755 538.967 644.102C540.264 645.251 541.608 646.4 542.957 647.519C606.832 700.124 712.964 698.647 790.989 679.722C877.651 658.704 947.098 617.591 1016.47 573.729C1022.6 569.848 1028.82 565.893 1034.83 562.064L1042.45 557.219C1076.48 535.556 1111.67 513.153 1149.89 492.312C1193.18 468.71 1234.13 450.634 1275.08 437.052C1301.44 428.339 1329.01 421.449 1357 416.575C1383.32 411.992 1410.9 409.038 1438.97 407.794C1489.21 405.568 1542.33 408.584 1601.39 417.009C1648.94 423.727 1704.82 432.966 1758.77 450.568C1812.8 468.25 1862.52 491.912 1910.61 514.795C1917.32 517.989 1924.26 521.291 1931.05 524.498C2044.45 578.077 2158.58 638.896 2270.26 705.264L2270.01 705.423Z" fill="#FFE492"/>
<path d="M2266.12 703.349C2155.41 636.25 2043.11 574.674 1932.35 520.334C1924.03 516.25 1915.49 512.004 1907.24 507.898C1861.76 485.268 1814.73 461.868 1762.85 445.092C1709.19 427.807 1653.08 420.443 1605.27 415.521C1482.28 402.663 1380.07 411.86 1283.63 444.462C1199.47 473.033 1130.37 513.525 1063.54 552.683C1056.51 556.803 1049.24 561.063 1042.15 565.191C1033.83 570.038 1027.47 573.721 1021.54 577.129C989.769 595.369 951.942 616.372 912.246 633.842C870.179 652.353 830.157 665.165 789.89 673.01C768.715 677.136 747.196 679.738 725.927 680.742C703.089 681.82 680.976 681.028 660.209 678.384C637.708 675.52 616.856 670.481 598.225 663.408C578.021 655.739 560.276 645.604 545.481 633.289C544.147 632.173 542.81 631.02 541.513 629.862C518.818 609.627 504.235 586.436 490.129 564.008C486.857 558.807 483.475 553.429 480.063 548.205C461.593 519.854 441.144 495.359 417.544 473.317C414.576 470.546 411.502 467.766 408.406 465.051C351.947 415.558 274.992 374.21 185.861 345.474C81.2272 311.855 -28.9023 297.328 -124.244 304.566C-178.493 308.775 -249.348 328.165 -285.351 361.991C-306.756 382.102 -311.893 404.547 -300.201 426.897L-300.549 426.963C-306.665 415.277 -308.262 403.596 -305.302 392.246C-302.568 381.77 -295.962 371.551 -285.659 361.872C-269.735 346.911 -245.23 333.474 -214.786 323.009C-186.58 313.314 -154.443 306.688 -124.288 304.348C-74.2482 300.549 -20.4274 302.669 35.6834 310.651C86.3752 317.862 136.961 329.512 186.033 345.28C275.215 374.032 352.215 415.404 408.707 464.926C411.803 467.64 414.88 470.425 417.848 473.198C441.459 495.252 461.919 519.759 480.401 548.124C483.815 553.35 487.197 558.727 490.469 563.929C504.565 586.346 519.144 609.524 541.813 629.736C543.11 630.892 544.444 632.043 545.778 633.157C598.917 677.391 690.133 692.211 789.776 672.797C880.014 655.217 953.624 615.815 1021.29 576.966C1027.22 573.558 1033.57 569.875 1041.89 565.028C1048.98 560.9 1056.25 556.641 1063.28 552.52C1096.18 533.242 1130.2 513.309 1166.49 494.644C1207.51 473.535 1245.78 457.056 1283.46 444.266C1309.57 435.439 1336.73 428.225 1364.19 422.827C1390.2 417.713 1417.35 414.061 1444.87 411.968C1494.98 408.16 1547.47 409.249 1605.34 415.299C1653.17 420.225 1709.31 427.591 1763.02 444.891C1814.93 461.679 1861.98 485.086 1907.47 507.722C1915.72 511.828 1924.26 516.074 1932.58 520.158C2043.35 574.505 2155.66 636.085 2266.38 703.189L2266.12 703.349Z" fill="#FFE492"/>
<path d="M2262.24 701.276C2152.48 633.435 2042.01 571.095 1933.87 515.993C1924.67 511.306 1915.23 506.386 1906.09 501.629C1862.56 478.969 1817.56 455.537 1767.09 439.417C1713.39 422.339 1657.16 416.891 1609.23 413.813C1491.81 406.071 1388.04 418.456 1292 451.674C1215.53 478.244 1149.98 513.79 1086.58 548.166C1073.78 555.109 1060.54 562.29 1047.67 569.134C1039.79 573.323 1032.82 577.001 1026.33 580.378C996.173 596.065 956.055 616.179 913.186 632.616C870.112 649.131 829.372 660.082 788.639 666.094C744.213 672.652 699.874 672.7 660.42 666.237C638.484 662.642 618.126 657.038 599.912 649.578C580.248 641.523 562.88 631.212 548.286 618.935C546.964 617.816 545.637 616.661 544.348 615.503C521.975 595.422 506.938 572.612 492.399 550.554C488.882 545.218 485.247 539.702 481.579 534.341C462.299 506.065 441.363 481.769 417.572 460.068C414.561 457.32 411.442 454.564 408.302 451.874C351.07 402.828 273.518 362.037 184.028 333.915C78.6723 300.928 -31.765 287.158 -126.942 295.138C-191.443 300.664 -255.846 323.866 -287.195 352.871C-309.011 373.055 -314.906 395.617 -304.244 418.117L-304.595 418.176C-310.168 406.419 -311.304 394.677 -307.974 383.278C-304.896 372.742 -298.007 362.471 -287.503 352.75C-271.41 337.86 -247.001 324.454 -216.912 313.98C-189.003 304.265 -157.067 297.494 -126.993 294.918C-77.012 290.727 -23.1326 292.457 33.1505 300.058C83.9668 306.922 134.787 318.246 184.196 333.717C273.738 361.857 351.334 402.67 408.603 451.747C411.743 454.437 414.861 457.195 417.876 459.945C441.678 481.659 462.625 505.966 481.916 534.255C485.584 539.616 489.219 545.135 492.736 550.471C507.268 572.517 522.297 595.316 544.648 615.377C545.938 616.535 547.26 617.687 548.583 618.805C600.81 662.753 690.516 680.35 788.551 665.881C877.924 652.688 955.535 616.909 1026.09 580.213C1032.57 576.836 1039.55 573.16 1047.42 568.971C1060.29 562.127 1073.53 554.948 1086.33 548.005C1149.74 513.622 1215.31 478.068 1291.82 451.487C1317.7 442.534 1344.46 434.999 1371.37 429.086C1397.1 423.433 1423.81 419.081 1450.75 416.151C1500.84 410.703 1552.7 409.868 1609.27 413.597C1657.22 416.677 1713.5 422.128 1767.26 439.225C1817.76 455.357 1862.78 478.797 1906.33 501.466C1915.46 506.223 1924.91 511.141 1934.11 515.828C2042.25 570.934 2152.74 633.279 2262.5 701.124L2262.24 701.276Z" fill="#FFE492"/>
<path d="M2258.35 699.202C2149.58 630.613 2040.92 567.513 1935.4 511.654C1925.71 506.52 1915.73 501.085 1906.09 495.828C1864.15 472.976 1820.78 449.345 1771.33 433.744C1717.41 416.811 1661.13 413.304 1613.19 412.107C1500.21 409.078 1397.88 424.379 1300.38 458.888C1231.99 483.204 1171.04 513.979 1112.08 543.739C1091.81 553.973 1072.66 563.639 1053.19 573.076C1045.27 576.917 1038.05 580.369 1031.13 583.625C986.446 604.615 949.271 619.791 914.133 631.383C870.051 645.927 828.596 655.019 787.398 659.175C771.415 660.787 755.491 661.59 739.857 661.59C712.142 661.59 685.325 659.072 660.637 654.083C615.958 645.056 579.105 628.398 551.101 604.573C549.782 603.444 548.467 602.288 547.192 601.134C525.16 581.228 509.701 558.822 494.752 537.152C490.963 531.662 487.05 525.987 483.104 520.468C463 492.258 441.572 468.164 417.61 446.809C414.554 444.086 411.392 441.354 408.208 438.688C350.203 390.089 272.049 349.857 182.2 322.345C76.1227 289.991 -34.6187 276.977 -129.63 285.699C-194.399 291.768 -256.944 314.53 -288.964 343.689C-311.223 363.957 -317.899 386.653 -308.277 409.324L-308.633 409.379C-313.656 397.54 -314.323 385.728 -310.611 374.27C-307.174 363.664 -299.997 353.335 -289.268 343.568C-273.007 328.759 -248.704 315.397 -218.981 304.923C-191.373 295.193 -159.661 288.29 -129.685 285.481C-79.7631 280.898 -25.825 282.236 30.6266 289.459C81.5675 295.977 132.618 306.975 182.368 322.146C272.269 349.677 350.466 389.93 408.508 438.558C411.692 441.226 414.854 443.958 417.914 446.683C441.891 468.05 463.329 492.157 483.441 520.378C487.387 525.897 491.304 531.574 495.089 537.064C510.031 558.723 525.482 581.12 547.496 601.009C548.771 602.16 550.082 603.316 551.401 604.443C603.694 648.937 689.689 668.806 787.335 658.955C880.288 649.577 962.619 615.525 1030.9 583.449C1037.82 580.193 1045.04 576.743 1052.96 572.902C1072.43 563.465 1091.58 553.801 1111.85 543.567C1170.81 513.8 1231.78 483.021 1300.19 458.696C1325.88 449.605 1352.24 441.746 1378.56 435.335C1404.05 429.128 1430.32 424.076 1456.64 420.322C1506.84 413.166 1558.06 410.405 1613.21 411.884C1661.19 413.082 1717.51 416.593 1771.5 433.546C1820.99 449.158 1864.37 472.8 1906.33 495.661C1915.98 500.918 1925.95 506.353 1935.64 511.484C2041.16 567.348 2149.83 630.454 2258.61 699.048L2258.35 699.202Z" fill="#FFE492"/>
<path d="M2254.47 697.129C2145.15 626.809 2041.28 564.72 1936.93 507.313C1926.97 501.836 1917.17 496.242 1906.79 490.321C1866.22 467.171 1824.26 443.236 1775.58 428.071C1720.98 411.145 1662.23 409.736 1617.15 410.401C1509.31 411.783 1408.43 430.004 1308.75 466.104C1248.94 487.868 1193.72 514.005 1140.32 539.283C1112.25 552.568 1085.74 565.114 1058.71 577.021C1050.68 580.558 1043.23 583.781 1035.92 586.874C990.63 606.017 952.231 619.767 915.071 630.148C869.967 642.749 827.797 649.98 786.152 652.256C764.754 653.425 743.503 653.205 722.988 651.603C701.268 649.905 680.361 646.65 660.85 641.928C617.603 631.46 581.626 614.063 553.915 590.216C552.607 589.084 551.303 587.926 550.035 586.773C528.373 567.071 512.526 545.093 497.2 523.839C493.111 518.168 488.883 512.303 484.629 506.602C463.681 478.453 441.771 454.56 417.643 433.557C414.54 430.858 411.333 428.15 408.113 425.509C349.335 377.356 270.584 337.684 180.375 310.781C97.1142 286.053 11.2515 273.151 -67.4847 273.151C-89.7436 273.151 -111.416 274.181 -132.32 276.266C-196.308 282.773 -258.461 305.617 -290.668 334.463C-313.399 354.826 -320.885 377.676 -312.315 400.541L-312.674 400.589C-317.148 388.658 -317.334 376.764 -313.231 365.24C-309.427 354.557 -301.938 344.16 -290.975 334.34C-274.546 319.624 -250.356 306.317 -221.015 295.854C-193.318 285.976 -162.669 279.128 -132.386 276.05C-82.5218 271.075 -28.5251 272.024 28.0987 278.866C79.1605 285.034 130.45 295.704 180.537 310.581C270.796 337.499 349.595 377.193 408.41 425.374C411.634 428.016 414.844 430.726 417.947 433.427C442.086 454.441 464.008 478.345 484.966 506.507C489.22 512.209 493.452 518.073 497.541 523.746C512.86 544.991 528.699 566.961 550.343 586.647C551.611 587.799 552.915 588.957 554.219 590.086C606.04 634.679 690.561 657.256 786.123 652.034C882.82 646.749 970.302 614.336 1035.72 586.689C1043.02 583.596 1050.47 580.374 1058.5 576.838C1085.53 564.936 1112.03 552.388 1140.1 539.105C1193.51 513.825 1248.73 487.681 1308.56 465.91C1359.89 447.324 1410.25 433.779 1462.53 424.498C1512.96 415.548 1563.54 410.863 1617.15 410.176C1647.74 409.725 1672.7 410.509 1695.69 412.64C1725.38 415.391 1751.57 420.373 1775.75 427.871C1824.48 443.049 1866.46 466.998 1907.05 490.158C1917.43 496.08 1927.23 501.671 1937.18 507.148C2041.54 564.557 2145.42 626.65 2254.74 696.975L2254.47 697.129Z" fill="#FFE492"/>
<path d="M2250.58 695.055C2142.27 623.965 2040.17 561.136 1938.45 502.972C1928.39 497.218 1918.47 491.289 1907.97 485.013C1868.61 461.499 1827.91 437.18 1779.82 422.396C1724.77 405.549 1666.09 406.223 1621.11 408.69C1519.35 414.081 1419.91 435.221 1317.12 473.313C1266.48 492.172 1218.26 513.754 1171.63 534.627C1134.76 551.126 1099.95 566.712 1064.23 580.957C1056.16 584.18 1048.24 587.262 1040.71 590.115C995.335 607.294 954.544 619.98 916.009 628.9C869.868 639.581 826.984 644.957 784.907 645.331C763.498 645.52 742.331 644.358 722.006 641.873C700.7 639.266 680.196 635.192 661.063 629.759C619.3 617.9 584.195 599.763 556.726 575.85C555.436 574.721 554.139 573.56 552.875 572.4C531.62 552.938 515.429 531.424 499.769 510.619C495.339 504.733 490.755 498.644 486.15 492.725C464.345 464.629 441.947 440.938 417.676 420.294C414.529 417.619 411.279 414.936 408.014 412.318C348.463 364.613 269.111 325.499 178.544 299.206C71.0268 268.123 -40.3338 256.623 -135.016 266.824C-198.176 273.748 -259.915 296.65 -292.301 325.169C-315.546 345.639 -323.863 368.661 -316.359 391.749L-316.718 391.791C-320.632 379.756 -320.331 367.769 -315.821 356.166C-311.633 345.395 -303.825 334.923 -292.605 325.043C-276.015 310.433 -251.946 297.192 -223 286.751C-195.622 276.876 -165.222 269.911 -135.082 266.606C-85.2731 261.242 -31.2214 261.797 25.571 268.26C76.7574 274.084 128.277 284.429 178.701 299.006C269.324 325.312 348.719 364.45 408.304 412.184C411.572 414.801 414.826 417.487 417.973 420.164C442.258 440.819 464.664 464.521 486.479 492.628C491.089 498.547 495.669 504.636 500.102 510.525C515.755 531.321 531.939 552.826 553.179 572.275C554.443 573.433 555.74 574.593 557.026 575.72C609.393 621.305 690.32 645.952 784.899 645.106C861.642 644.424 942.866 626.888 1040.52 589.923C1048.04 587.07 1055.95 583.99 1064.02 580.768C1099.73 566.525 1134.55 550.944 1171.4 534.445C1218.04 513.569 1266.27 491.983 1316.93 473.119C1368.75 453.913 1418.3 439.375 1468.42 428.67C1519.18 417.826 1569.12 411.215 1621.08 408.464C1666.1 405.992 1724.85 405.32 1779.99 422.193C1828.13 436.995 1868.85 461.325 1908.23 484.85C1918.73 491.126 1928.65 497.052 1938.71 502.805C2040.43 560.971 2142.53 623.804 2250.85 694.899L2250.58 695.055Z" fill="#FFE492"/>
<path d="M2246.7 692.981C2139.39 621.118 2039.07 557.545 1939.98 498.633C1929.93 492.652 1919.99 486.437 1909.48 479.858C1871.24 455.922 1831.69 431.173 1784.07 416.723C1728.5 399.938 1669.91 402.7 1625.08 406.982C1529.32 415.952 1434.13 439.322 1325.5 480.527C1284.75 496.051 1244.93 513.08 1206.43 529.549C1159.66 549.55 1115.49 568.444 1069.75 584.899C1061.51 587.867 1053.35 590.715 1045.51 593.361C999.316 608.934 957.265 620.152 916.949 627.654C894.368 631.856 872.076 634.901 850.693 636.704C827.884 638.626 805.332 639.2 783.663 638.412C739.699 636.812 698.522 629.807 661.281 617.594C621.061 604.403 586.832 585.529 559.546 561.49C558.263 560.352 556.977 559.19 555.721 558.036C534.92 538.86 518.439 517.857 502.504 497.548C497.679 491.399 492.692 485.042 487.676 478.856C464.992 450.806 442.107 427.316 417.712 407.039C414.52 404.387 411.223 401.727 407.918 399.136C347.593 351.876 267.644 313.321 176.718 287.642C68.4825 257.196 -43.1822 246.453 -137.707 257.392C-238.918 269.285 -337.542 320.676 -320.395 382.963L-320.758 382.998C-325.048 367.417 -322.535 352.067 -313.29 337.371C-304.848 323.949 -290.995 311.318 -272.114 299.831C-254.56 289.15 -233.499 279.929 -209.522 272.422C-186.717 265.283 -161.908 260.009 -137.78 257.174C-88.0299 251.417 -33.9196 251.582 23.045 257.667C74.356 263.146 126.11 273.164 176.872 287.444C267.849 313.141 347.846 351.717 408.207 399.004C411.516 401.597 414.813 404.257 418.008 406.912C442.414 427.197 465.311 450.701 488.006 478.761C493.022 484.947 498.009 491.305 502.834 497.455C518.765 517.758 535.239 538.753 556.028 557.917C557.281 559.071 558.564 560.233 559.846 561.369C612.289 607.567 691.784 634.848 783.685 638.194C861.487 641.023 947.071 626.298 1045.33 593.172C1053.17 590.526 1061.32 587.68 1069.56 584.712C1115.29 568.262 1159.46 549.37 1206.22 529.37C1244.73 512.9 1284.55 495.868 1325.3 480.342C1433.98 439.119 1529.21 415.741 1625.02 406.764C1655.14 403.887 1680.08 402.967 1703.52 403.871C1733.47 405.027 1759.87 409.166 1784.23 416.525C1831.9 430.99 1871.47 455.755 1909.74 479.704C1920.25 486.281 1930.18 492.496 1940.24 498.474C2039.33 557.391 2139.66 620.966 2246.96 692.834L2246.7 692.981Z" fill="#FFE492"/>
<path d="M2242.81 690.907C2136.53 618.261 2037.97 553.948 1941.51 494.292C1931.53 488.119 1921.67 481.654 1911.23 474.805C1874.02 450.412 1835.54 425.187 1788.31 411.048C1731.53 394.121 1670.22 399.645 1629.04 405.271C1517.27 420.355 1417.11 455.422 1333.87 487.74C1303.96 499.403 1274.12 511.757 1245.25 523.704C1187.36 547.67 1132.68 570.306 1075.28 588.842C1066.83 591.569 1058.44 594.182 1050.31 596.61C1003.22 610.653 959.904 620.4 917.899 626.406C870.282 633.214 824.705 634.927 782.426 631.493C738.992 627.964 698.307 619.194 661.506 605.425C622.905 590.984 589.552 571.372 562.365 547.133C561.097 545.995 559.818 544.83 558.569 543.672C538.285 524.849 521.599 504.422 505.459 484.667C500.171 478.193 494.701 471.501 489.205 464.987C465.297 436.585 442.591 413.962 417.753 393.785C414.518 391.156 411.18 388.523 407.827 385.954C346.722 339.143 266.172 301.147 174.887 276.076C65.9335 246.268 -46.0391 236.28 -140.402 247.956C-241.976 260.691 -338.586 311.384 -324.435 374.177L-324.798 374.206C-328.308 358.627 -325.271 343.292 -315.773 328.629C-307.068 315.194 -293.133 302.55 -274.352 291.05C-256.838 280.325 -235.887 271.035 -212.078 263.434C-189.409 256.196 -164.647 250.77 -140.476 247.738C-90.7805 241.59 -36.6152 241.365 20.5179 247.069C71.9534 252.203 123.942 261.895 175.041 275.876C266.381 300.96 346.975 338.978 408.109 385.818C411.462 388.389 414.803 391.024 418.042 393.653C442.895 413.839 465.609 436.475 489.527 464.888C495.023 471.402 500.494 478.096 505.781 484.57C521.917 504.319 538.6 524.738 558.869 543.553C560.119 544.711 561.394 545.874 562.661 547.012C615.511 594.129 693.573 624.055 782.47 631.275C862.199 637.751 949.754 626.346 1050.14 596.412C1058.27 593.986 1066.67 591.376 1075.1 588.648C1132.49 570.117 1187.16 547.485 1245.05 523.521C1273.91 511.574 1303.75 499.218 1333.67 487.553C1389.64 465.824 1436.2 449.769 1480.2 437.03C1531.98 422.035 1580.64 411.576 1628.95 405.056C1658.41 401.031 1684.08 399.209 1707.43 399.486C1737.51 399.843 1764.02 403.559 1788.47 410.85C1835.77 425.006 1874.26 450.247 1911.49 474.656C1921.94 481.502 1931.8 487.967 1941.77 494.135C2038.24 553.794 2136.8 618.111 2243.09 690.76L2242.81 690.907Z" fill="#FFE492"/>
<path d="M2238.93 688.832C2133.67 615.399 2036.88 550.345 1943.04 489.949C1933.2 483.615 1923.46 476.925 1913.15 469.841C1876.92 444.957 1839.47 419.226 1792.56 405.373C1735.16 388.486 1674.01 396.25 1633 403.561C1531.74 421.46 1441.41 455.541 1342.25 494.952C1324.36 502.087 1306.27 509.45 1288.78 516.574C1221.49 543.967 1151.92 572.292 1080.8 592.782C1072.16 595.274 1063.51 597.654 1055.1 599.855C1007.69 612.253 961.846 620.764 918.841 625.151C870.124 630.122 823.811 629.926 781.176 624.572C738.351 619.194 698.16 608.656 661.718 593.251C624.84 577.661 592.355 557.314 565.167 532.776C563.911 531.635 562.643 530.469 561.401 529.311C541.729 510.927 524.937 491.166 508.698 472.056C502.846 465.17 496.797 458.051 490.718 451.123C465.876 422.75 442.698 400.321 417.775 380.535C414.503 377.937 411.117 375.326 407.717 372.777C345.85 326.406 264.707 288.97 173.055 264.511C63.3869 235.341 -48.8897 226.11 -143.099 238.521C-241.449 251.619 -339.842 300.533 -328.48 365.39L-328.843 365.412C-331.573 349.833 -328.011 334.516 -318.261 319.886C-309.296 306.435 -295.277 293.78 -276.598 282.267C-242.134 261.028 -193.505 245.004 -143.18 238.304C-93.5432 231.766 -39.3193 231.149 17.986 236.472C69.5461 241.262 121.766 250.627 173.201 264.308C264.905 288.78 346.096 326.241 408.003 372.634C411.407 375.186 414.792 377.796 418.068 380.396C443.002 400.193 466.191 422.631 491.041 451.015C497.119 457.945 503.172 465.064 509.024 471.95C525.259 491.056 542.047 510.813 561.709 529.188C562.947 530.345 564.215 531.51 565.472 532.65C619.864 581.745 694.478 613.455 781.246 624.354C861.591 634.445 953.675 626.135 1054.95 599.653C1063.35 597.451 1071.99 595.074 1080.63 592.584C1151.73 572.101 1221.29 543.78 1288.56 516.391C1306.06 509.268 1324.15 501.904 1342.04 494.769C1385.44 477.518 1435.95 457.73 1486.08 441.208C1538.52 423.928 1586.54 411.545 1632.89 403.352C1662.07 398.15 1687.74 395.451 1711.35 395.103C1741.12 394.663 1768.49 398.053 1792.71 405.177C1813.72 411.382 1834.87 420.643 1857.37 433.491C1877.23 444.834 1895.63 457.474 1913.42 469.696C1923.72 476.778 1933.46 483.468 1943.3 489.799C2037.15 550.197 2133.94 615.254 2239.2 688.688L2238.93 688.832Z" fill="#FFE492"/>
<path d="M2235.04 686.758C2130.82 612.532 2035.8 546.736 1944.57 485.609C1934.9 479.137 1925.33 472.245 1915.2 464.95C1879.92 439.548 1843.44 413.282 1796.8 399.702C1753.22 387.05 1700.93 387.755 1636.96 401.855C1547.51 421.458 1467.56 454.247 1382.9 488.964C1372.36 493.288 1361.47 497.756 1350.62 502.17C1346.37 503.902 1342.12 505.639 1337.88 507.374C1257.22 540.326 1173.81 574.401 1086.32 596.727C1077.47 598.985 1068.59 601.132 1059.9 603.104C1011.45 614.095 964.307 621.091 919.797 623.896C869.955 627.035 822.898 624.935 779.941 617.653C737.783 610.505 698.087 598.199 661.956 581.077C626.935 564.481 595.322 543.401 567.992 518.418C566.746 517.276 565.49 516.107 564.255 514.947C545.33 497.14 528.593 478.175 512.401 459.836C505.847 452.409 499.064 444.728 492.253 437.252C466.451 408.899 442.803 386.663 417.822 367.278C414.502 364.702 411.077 362.118 407.632 359.593C344.981 313.671 263.237 276.791 171.226 252.944C60.8473 224.415 -51.7408 215.94 -145.793 229.086C-242.336 242.693 -340.59 292.007 -332.519 356.604L-332.885 356.621C-334.831 341.04 -330.749 325.741 -320.746 311.148C-311.516 297.682 -297.417 285.011 -278.837 273.489C-244.52 252.207 -196.059 235.945 -145.877 228.873C-96.2953 221.943 -42.0165 220.934 15.4574 225.879C67.1421 230.321 119.6 239.36 171.373 252.742C263.435 276.604 345.23 313.503 407.907 359.45C411.351 361.975 414.785 364.564 418.104 367.139C443.096 386.535 466.759 408.778 492.568 437.142C499.383 444.618 506.162 452.301 512.72 459.728C528.904 478.063 545.642 497.023 564.559 514.823C565.794 515.983 567.047 517.15 568.293 518.293C623.865 569.091 697.083 603.373 780.036 617.435C861.924 631.317 956.038 626.423 1059.77 602.893C1068.45 600.92 1077.33 598.776 1086.17 596.52C1173.64 574.203 1257.03 540.134 1337.67 507.187C1341.92 505.45 1346.16 503.715 1350.41 501.983C1361.26 497.569 1372.15 493.1 1382.69 488.779C1467.37 454.055 1547.35 421.257 1636.83 401.645C1665.73 395.275 1691.39 391.702 1715.27 390.718C1745.16 389.487 1772.64 392.444 1796.96 399.501C1817.85 405.584 1838.73 414.887 1860.81 427.943C1880.28 439.462 1898.18 452.347 1915.48 464.807C1925.62 472.1 1935.18 478.99 1944.84 485.46C2036.08 546.589 2131.1 612.387 2235.32 686.614L2235.04 686.758Z" fill="#FFE492"/>
<path d="M2231.16 684.684C2136.03 615.518 2040.12 547.078 1946.09 481.269C1936.52 474.607 1927.03 467.451 1916.99 459.876C1884.33 435.234 1847.3 407.306 1801.05 394.029C1756.95 381.4 1704.58 383.401 1640.92 400.145C1565.23 419.988 1498.24 449.164 1427.33 480.054C1405.12 489.726 1382.15 499.731 1358.99 509.382C1318.56 526.264 1274.82 544.128 1228.97 560.398C1179.87 577.824 1135.01 590.995 1091.83 600.668C1082.76 602.7 1073.63 604.613 1064.68 606.349C1015.2 615.954 966.785 621.42 920.768 622.595C869.827 623.894 822.026 619.905 778.688 610.73C698.659 593.577 628.713 557.689 570.795 504.059C569.561 502.915 568.315 501.744 567.087 500.583C549.123 483.563 532.678 465.606 516.777 448.24C509.291 440.066 501.553 431.613 493.767 423.386C466.983 395.04 442.859 373 417.848 354.026C414.481 351.473 411.011 348.913 407.526 346.414C344.113 300.934 261.768 264.616 169.398 241.379C58.3047 213.488 -54.5875 205.772 -148.485 219.652C-245.615 234.09 -341.407 282.751 -336.56 347.819L-336.926 347.827C-338.088 332.242 -333.478 316.96 -323.23 302.405C-313.733 288.921 -299.553 276.237 -281.079 264.707C-263.675 253.843 -243.047 244.344 -219.769 236.472C-197.169 228.831 -173.218 223.099 -148.577 219.436C-99.0504 212.116 -44.713 210.716 12.9295 215.28C64.7387 219.381 117.427 228.092 169.537 241.174C261.962 264.425 344.355 300.765 407.805 346.267C411.289 348.767 414.766 351.33 418.134 353.883C443.155 372.868 467.29 394.916 494.085 423.272C501.871 431.501 509.61 439.954 517.095 448.13C532.997 465.494 549.438 483.448 567.395 500.462C568.619 501.625 569.868 502.794 571.099 503.938C628.973 557.526 698.857 593.386 778.809 610.521C861.165 627.956 959.98 626.441 1064.57 606.138C1073.51 604.401 1082.64 602.491 1091.7 600.461C1188.25 578.837 1276.58 543.521 1358.78 509.2C1381.94 499.549 1404.9 489.546 1427.11 479.873C1498.04 448.977 1565.04 419.794 1640.77 399.942C1704.52 383.172 1757 381.171 1801.2 393.829C1821.92 399.775 1842.49 409.095 1864.09 422.319C1883.13 433.979 1900.49 447.075 1917.28 459.737C1927.32 467.312 1936.8 474.467 1946.37 481.123C2040.4 546.935 2136.31 615.375 2231.44 684.544L2231.16 684.684Z" fill="#FFE492"/>
<path d="M2227.27 682.611C2133.6 613.061 2039.51 543.86 1947.62 476.928C1938.35 470.194 1929.15 462.912 1919.4 455.203C1887.54 429.986 1851.43 401.404 1805.29 388.352C1760.67 375.745 1708.2 379.043 1644.87 398.43C1578.53 418.713 1517.57 447.353 1458.63 475.052C1429.07 488.94 1398.5 503.302 1367.36 516.592C1318.2 537.588 1276.84 553.605 1237.2 567C1188.31 583.517 1142.56 595.818 1097.35 604.606C1088.07 606.411 1078.69 608.089 1069.48 609.592C1021.46 617.422 974.314 621.385 929.209 621.387C926.703 621.387 924.212 621.374 921.72 621.349C869.574 620.839 821.033 614.935 777.446 603.805C756.407 598.403 735.804 591.545 716.212 583.422C697.797 575.788 679.701 566.796 662.425 556.696C631.343 538.526 602.287 516.609 573.605 489.698C572.374 488.54 571.146 487.38 569.926 486.215C553.284 470.337 537.54 453.739 522.316 437.686C513.526 428.421 504.439 418.838 495.287 409.511C467.107 380.775 443.235 359.572 417.877 340.765C414.466 338.236 410.952 335.7 407.423 333.226C343.241 288.197 260.298 252.439 167.569 229.811C55.7651 202.56 -57.4349 195.602 -151.179 210.214C-246.487 225.113 -342.155 274.144 -340.598 339.029L-340.964 339.031C-341.69 308.808 -321.754 280.07 -283.315 255.923C-265.94 245.009 -245.421 235.442 -222.323 227.482C-199.848 219.737 -175.944 213.855 -151.271 209.999C-101.803 202.287 -47.4065 200.498 10.4045 204.68C62.3384 208.438 115.261 216.823 167.705 229.604C260.492 252.247 343.482 288.028 407.705 333.083C411.234 335.559 414.755 338.097 418.166 340.627C443.536 359.444 467.418 380.654 495.605 409.401C504.758 418.731 513.849 428.313 522.635 437.579C537.859 453.629 553.6 470.225 570.238 486.099C571.458 487.263 572.682 488.423 573.913 489.579C634.86 546.766 701.483 584.063 777.589 603.602C882.999 630.52 994.447 621.603 1069.38 609.381C1078.59 607.877 1087.96 606.202 1097.24 604.397C1201.22 584.184 1296.1 546.759 1367.15 516.413C1398.29 503.128 1428.85 488.767 1458.4 474.88C1517.37 447.176 1578.33 418.528 1644.71 398.236C1673.04 389.561 1698.69 384.233 1723.1 381.953C1753.22 379.139 1780.92 381.226 1805.44 388.156C1826.1 394.001 1846.48 403.396 1867.72 416.877C1886.44 428.756 1903.35 442.133 1919.7 455.073C1929.44 462.78 1938.63 470.06 1947.9 476.789C2039.79 543.721 2133.88 612.923 2227.56 682.472L2227.27 682.611Z" fill="#FFE492"/>
<path d="M2223.39 680.537L1949.15 472.589C1940.19 465.798 1931.3 458.408 1921.88 450.586C1890.81 424.773 1855.58 395.517 1809.53 382.681C1765 370.27 1710.94 374.994 1648.83 396.724C1589.13 417.612 1534.68 445.391 1482.02 472.256C1447.7 489.768 1412.2 507.874 1375.74 523.81C1266.13 571.707 1170.34 599.996 1074.28 612.841C1034.43 618.168 995.114 620.85 956.99 620.85C945.434 620.85 933.995 620.603 922.676 620.11C869.299 617.785 820.018 609.971 776.207 596.886C735.602 584.756 698.457 567.634 662.659 544.538C634.072 526.095 606.669 504.108 576.423 475.343C560.458 460.162 545 444.389 530.051 429.136C496.217 394.619 461.233 358.926 417.921 327.513C351.485 279.332 264.281 241.548 165.737 218.245C53.2257 191.637 -60.282 185.434 -153.872 200.779C-244.483 215.636 -342.829 262.485 -344.639 330.243L-345.006 330.238C-344.196 299.952 -323.637 271.218 -285.553 247.142C-251.119 225.373 -204.388 208.832 -153.967 200.566C-104.554 192.465 -50.0997 190.283 7.87616 194.085C59.9346 197.497 113.092 205.558 165.873 218.04C214.633 229.571 260.943 244.749 303.519 263.155C346.45 281.714 385.036 303.318 418.199 327.368C461.53 358.792 496.525 394.494 530.366 429.02C545.315 444.271 560.773 460.041 576.734 475.219C620.863 517.19 683.438 568.924 776.372 596.683C882.951 628.517 997.155 622.921 1074.19 612.621C1170.21 599.785 1265.95 571.506 1375.52 523.627C1411.97 507.698 1447.46 489.592 1481.78 472.085C1534.45 445.215 1588.92 417.429 1648.65 396.53C1710.86 374.763 1765.04 370.034 1809.69 382.479C1830.31 388.226 1850.49 397.703 1871.4 411.455C1889.8 423.56 1906.26 437.233 1922.18 450.454C1931.59 458.276 1940.49 465.661 1949.44 472.45L2223.68 680.398L2223.39 680.537Z" fill="#FFE492"/>
<path d="M2221.18 664.551C2151.35 606.651 2091.43 559.667 2032.62 516.695C2004.08 495.819 1974.92 475.272 1945.97 455.623C1937.21 449.679 1928.54 443.357 1919.35 436.663C1896.27 419.838 1872.4 402.44 1844.93 389.529C1830.18 382.584 1815.98 377.611 1801.52 374.327C1757.14 364.146 1705.07 370.877 1646.75 394.337C1616.57 406.46 1589.09 420.256 1566.19 432.152C1541.95 444.746 1518.03 458.634 1494.9 472.065C1461.66 491.37 1427.28 511.332 1390.33 528.476C1367.84 538.939 1345.05 548.288 1322.58 556.266C1277.62 572.226 1229.36 585.377 1179.15 595.353C1148.13 601.449 1116.95 606.056 1086.5 609.046C1060.26 611.613 1033.96 613.094 1008.35 613.448C970.012 613.981 932.661 611.949 897.333 607.403C859.769 602.569 824.221 594.854 791.677 584.468C762.658 575.207 735.247 563.546 707.881 548.817C656.885 521.392 616.21 489.682 586.473 465.119C571.865 452.997 557.601 440.634 543.806 428.678C504.084 394.247 466.564 361.726 419.614 332.759C381.321 309.288 337.631 289.033 289.746 272.554C252.948 259.89 212.926 249.532 170.793 241.768C160.758 239.921 150.531 238.2 140.408 236.657C96.8206 230.024 47.752 225.705 -5.43133 223.818C-59.0506 221.872 -105.441 223.557 -147.244 228.972C-170.877 232.01 -193.773 236.776 -215.307 243.135C-291.328 265.589 -340.143 303.283 -345.889 343.968L-346.347 343.944C-344.815 333.098 -340.319 322.415 -332.988 312.187C-326.022 302.473 -316.456 293.104 -304.555 284.34C-282.069 267.786 -251.276 253.451 -215.508 242.887C-193.942 236.516 -171.009 231.743 -147.339 228.701C-105.492 223.281 -59.0653 221.595 -5.40203 223.543C47.8106 225.43 96.9048 229.753 140.521 236.39C150.656 237.936 160.886 239.657 170.929 241.506C213.095 249.275 253.15 259.641 289.977 272.316C337.895 288.807 381.621 309.079 419.932 332.565C466.913 361.55 504.439 394.08 544.176 428.52C557.967 440.475 572.231 452.836 586.836 464.956C616.558 489.508 657.214 521.203 708.181 548.61C735.518 563.324 762.9 574.973 791.886 584.223C855.577 604.548 928.4 614.289 1008.33 613.173C1033.93 612.819 1060.2 611.337 1086.43 608.773C1116.86 605.783 1148.01 601.18 1179 595.089C1229.19 585.119 1277.41 571.977 1322.34 556.026C1344.8 548.055 1367.58 538.71 1390.04 528.256C1426.98 511.121 1461.35 491.163 1494.58 471.864C1517.71 458.432 1541.63 444.539 1565.89 431.941C1588.8 420.038 1616.29 406.238 1646.5 394.106C1672.46 383.661 1697.6 376.445 1721.22 372.656C1750.24 368.002 1777.31 368.478 1801.68 374.069C1816.19 377.365 1830.42 382.351 1845.21 389.311C1872.72 402.242 1896.6 419.65 1919.7 436.486C1928.89 443.178 1937.56 449.501 1946.31 455.44C1975.27 475.091 2004.43 495.641 2032.98 516.521C2091.79 559.498 2151.71 606.486 2221.55 664.39L2221.18 664.551Z" fill="#FFE492"/>
<path d="M2218.97 648.56C2154.22 589.681 2093.46 540.41 2033.19 497.935C2003.81 477.187 1973.39 457.243 1942.79 438.657C1934.67 433.726 1926.66 428.601 1918.17 423.177C1892.76 406.933 1866.48 390.137 1837.05 378.516C1822.19 372.623 1807.95 368.52 1793.51 365.971C1738.22 356.206 1682.06 374.706 1644.67 391.944C1618.19 404.122 1594 417.892 1569.49 432.106C1548.05 444.548 1527.87 457.932 1506.51 472.1C1474.8 493.132 1442.02 514.879 1404.92 533.139C1382.9 544.034 1359.92 553.453 1336.62 561.136C1293.22 575.449 1245.7 586.564 1191.33 595.118C1160.9 599.904 1129.75 603.314 1098.72 605.249C1072.54 606.862 1046.41 607.439 1021.04 606.957C983.313 606.248 946.431 603.06 911.417 597.484C874.645 591.627 839.559 583.068 807.136 572.046C778.728 562.391 751.3 550.411 723.281 535.424C672.395 508.244 628.804 478.112 596.517 454.896C584.565 446.302 572.803 437.655 561.426 429.29C516.121 395.98 473.328 364.513 421.307 338.005C382.428 318.193 338.778 301.44 291.578 288.215C255.865 278.207 218.012 270.71 175.861 265.292C166.133 264.044 156.237 262.919 146.45 261.948C103.464 257.706 57.5864 256.101 2.08012 254.442C-37.931 253.185 -90.3082 252.357 -140.626 257.16C-164.457 259.392 -187.493 263.269 -209.1 268.678C-285.172 287.726 -336.776 321.002 -347.145 357.694L-347.688 357.639C-344.939 347.909 -339.37 338.366 -331.144 329.272C-323.303 320.608 -313 312.3 -300.524 304.573C-276.814 289.894 -245.274 277.375 -209.312 268.372C-187.665 262.952 -164.585 259.069 -140.714 256.832C-90.3485 252.022 -37.931 252.852 2.10575 254.109C57.6304 255.769 103.522 257.374 146.538 261.618C156.332 262.591 166.236 263.716 175.975 264.964C218.166 270.388 256.056 277.893 291.809 287.911C339.057 301.15 382.743 317.915 421.662 337.747C473.72 364.276 516.531 395.751 561.851 429.075C573.224 437.438 584.986 446.084 596.938 454.676C629.218 477.883 672.791 508.004 723.647 535.171C751.633 550.142 779.032 562.109 807.407 571.753C871.161 593.425 943.049 605.156 1021.06 606.622C1046.4 607.102 1072.51 606.528 1098.66 604.914C1129.66 602.981 1160.79 599.576 1191.19 594.792C1245.51 586.247 1293 575.141 1336.36 560.841C1359.63 553.167 1382.58 543.761 1404.57 532.877C1441.64 514.632 1474.41 492.894 1506.11 471.873C1527.48 457.699 1547.66 444.312 1569.12 431.864C1593.63 417.641 1617.83 403.867 1644.34 391.676C1668.58 380.5 1692.48 372.46 1715.39 367.776C1743.17 362.096 1769.51 361.381 1793.67 365.647C1808.16 368.207 1822.45 372.324 1837.36 378.234C1866.84 389.877 1893.14 406.689 1918.58 422.946C1927.06 428.368 1935.08 433.491 1943.19 438.419C1973.8 457.012 2004.22 476.963 2033.62 497.717C2093.89 540.203 2154.68 589.483 2219.43 648.375L2218.97 648.56Z" fill="#FFE492"/>
<path d="M2216.76 632.57C2156.16 571.912 2096.31 521.736 2033.77 479.178C2003.53 458.558 1971.85 439.219 1939.62 421.694C1932.73 417.947 1925.63 413.972 1918.77 410.128C1890.45 394.248 1861.16 377.828 1829.18 367.506C1814.17 362.627 1799.88 359.391 1785.51 357.615C1730.33 350.793 1677.34 371.217 1642.59 389.55C1619.05 401.926 1597.52 415.953 1576.7 429.52L1572.8 432.06C1553.9 444.368 1536.17 457.867 1517.4 472.16C1487.5 494.92 1456.59 518.452 1419.51 537.802C1397.93 549.143 1374.77 558.633 1350.67 566.008C1308.64 578.866 1261.88 588.041 1203.5 594.883C1173.31 598.42 1142.17 600.631 1110.93 601.45C1084.81 602.108 1058.84 601.778 1033.73 600.463C957.701 596.503 886.663 582.762 822.587 559.624C794.887 549.621 767.44 537.326 738.681 522.031C690.012 496.203 646.725 469.655 606.563 444.676C601.177 441.328 595.85 438.002 590.563 434.702C535.709 400.473 483.899 368.142 423.011 343.258C383.26 327.012 339.654 313.764 293.41 303.88C259.46 296.624 222.665 291.698 180.932 288.818C171.527 288.173 161.96 287.643 152.496 287.242C128.687 286.252 103.434 286.091 76.6981 285.921C55.2233 285.785 33.0193 285.644 9.58787 285.069C-35.6665 283.865 -86.9555 282.503 -134.016 285.356C-158.298 286.828 -181.473 289.813 -202.9 294.229C-278.943 309.903 -333.339 338.765 -348.409 371.435L-349.028 371.331C-345.057 362.718 -338.417 354.315 -329.298 346.357C-320.577 338.747 -309.541 331.496 -296.497 324.806C-271.549 312.012 -239.254 301.313 -203.112 293.864C-181.637 289.437 -158.415 286.445 -134.086 284.97C-86.9774 282.115 -35.6628 283.48 9.60985 284.684C33.0266 285.257 55.2306 285.4 76.6981 285.536C103.445 285.706 128.705 285.866 152.536 286.859C162.008 287.262 171.585 287.792 180.998 288.437C222.783 291.319 259.621 296.252 293.619 303.519C339.918 313.414 383.571 326.677 423.366 342.941C484.31 367.847 536.145 400.193 591.021 434.438C596.308 437.737 601.639 441.061 607.021 444.412C647.175 469.386 690.448 495.928 739.102 521.747C767.832 537.025 795.25 549.308 822.917 559.298C886.909 582.408 957.855 596.129 1033.78 600.085C1058.87 601.397 1084.81 601.727 1110.9 601.069C1142.1 600.25 1173.22 598.042 1203.37 594.509C1261.69 587.674 1308.41 578.509 1350.37 565.669C1374.43 558.31 1397.54 548.837 1419.08 537.516C1456.12 518.19 1487.01 494.671 1516.89 471.924C1535.67 457.624 1553.41 444.119 1572.33 431.803L1576.22 429.262C1597.05 415.689 1618.59 401.653 1642.17 389.264C1677.02 370.871 1730.2 350.388 1785.63 357.241C1800.07 359.026 1814.41 362.273 1829.48 367.171C1861.53 377.515 1890.85 393.953 1919.21 409.851C1926.06 413.694 1933.16 417.67 1940.04 421.414C1972.29 438.948 2003.98 458.298 2034.24 478.929C2096.81 521.505 2156.68 571.698 2217.3 632.376L2216.76 632.57Z" fill="#FFE492"/>
<path d="M2214.55 616.577C2158.91 555.003 2098.28 502.463 2034.34 460.422C2003.26 439.932 1970.32 421.196 1936.45 404.735C1931.56 402.357 1926.55 399.889 1921.7 397.503C1889.69 381.739 1856.59 365.436 1821.33 356.499C1806.19 352.622 1791.86 350.256 1777.52 349.261C1722.5 345.448 1672.65 367.763 1640.52 387.155C1620.57 399.134 1602.57 412.457 1585.15 425.341C1582.14 427.571 1579.13 429.797 1576.11 432.014C1559.55 444.192 1544.06 457.796 1527.66 472.197C1499.79 496.681 1470.96 521.996 1434.1 542.469C1412.45 554.49 1389.76 563.784 1364.71 570.886C1312.32 585.738 1259.97 591.235 1215.67 594.656C1185.7 596.967 1154.57 597.98 1123.14 597.659C1097.1 597.361 1071.29 596.122 1046.42 593.978C972.673 587.636 902.565 571.901 838.045 547.208C811.199 536.937 783.737 524.323 754.084 508.647C724.131 492.85 696.218 477.65 669.222 462.949C650.876 452.957 633.545 443.52 616.621 434.466C552.647 400.239 494.049 370.147 424.729 348.517C384.124 335.848 340.563 326.1 295.253 319.547C262.779 314.849 228.066 312.562 186.014 312.344C176.942 312.304 167.701 312.368 158.552 312.535C144.655 312.806 130.277 313.372 115.06 313.973C85.8582 315.124 52.7537 316.43 17.0955 315.699C3.5166 315.419 -10.3371 315.025 -23.7364 314.642C-58.2002 313.658 -93.8365 312.641 -127.41 313.55C-152.065 314.22 -175.383 316.315 -196.708 319.78C-272.622 332.119 -329.807 356.569 -349.681 385.184L-350.358 385.015C-345.155 377.522 -337.446 370.261 -327.447 363.435C-317.844 356.879 -306.075 350.687 -292.474 345.032C-266.265 334.135 -233.22 325.257 -196.905 319.355C-175.53 315.882 -152.16 313.779 -127.45 313.11C-93.8402 312.199 -58.1892 313.218 -23.7071 314.202C-10.3114 314.585 3.54225 314.979 17.1175 315.259C52.7428 315.989 85.8215 314.686 115.009 313.535C130.233 312.934 144.614 312.368 158.527 312.097C167.687 311.93 176.935 311.866 186.018 311.906C228.129 312.122 262.893 314.415 295.422 319.12C340.786 325.682 384.406 335.441 425.062 348.127C456.375 357.897 488.106 370.275 522.067 385.966C552.472 400.013 582.047 415.383 617.105 434.138C634.029 443.194 651.36 452.632 669.709 462.623C696.702 477.322 724.615 492.522 754.561 508.317C784.184 523.977 811.617 536.578 838.43 546.838C902.862 571.498 972.87 587.211 1046.51 593.544C1071.36 595.686 1097.14 596.923 1123.14 597.221C1154.54 597.542 1185.64 596.532 1215.56 594.22C1259.81 590.806 1312.1 585.316 1364.39 570.49C1389.37 563.408 1412.01 554.138 1433.6 542.147C1470.39 521.71 1499.2 496.414 1527.05 471.951C1543.46 457.541 1558.95 443.93 1575.54 431.739C1578.55 429.522 1581.56 427.296 1584.57 425.068C1602 412.175 1620.02 398.844 1639.99 386.849C1660.9 374.233 1682.34 364.527 1703.73 358.002C1729.07 350.273 1753.92 347.187 1777.59 348.829C1792 349.829 1806.4 352.206 1821.6 356.098C1856.95 365.06 1890.1 381.383 1922.15 397.166C1927 399.553 1932.01 402.02 1936.89 404.396C1970.79 420.87 2003.75 439.624 2034.86 460.129C2068.81 482.453 2102.06 507.888 2133.68 535.726C2161.63 560.33 2189.05 587.464 2215.17 616.37L2214.55 616.577Z" fill="#FFE492"/>
<path d="M2212.33 600.579C2160.84 537.24 2101.15 483.774 2034.92 441.664C2002.98 421.304 1968.79 403.173 1933.29 387.773C1931.6 387.04 1929.91 386.307 1928.22 385.571C1891.3 369.537 1853.13 352.956 1813.49 345.491C1798.13 342.599 1783.75 341.1 1769.55 340.906C1714.75 340.162 1668.02 364.341 1638.47 384.755C1621.08 396.697 1605.64 409.786 1590.71 422.444C1587.02 425.574 1583.2 428.81 1579.44 431.963C1565.09 443.969 1551.75 457.619 1537.62 472.073C1511.94 498.364 1485.38 525.549 1448.71 547.131C1427.49 559.617 1404.61 568.981 1378.76 575.761C1327.84 589.117 1276.13 592.624 1227.84 594.424C1198.06 595.534 1166.94 595.344 1135.34 593.863C1109.4 592.608 1083.75 590.462 1059.11 587.486C987.871 578.9 918.694 561.171 853.507 534.788C827.401 524.223 800.705 511.662 769.499 495.258C710.189 464.166 666.148 442.267 626.701 424.253C548.243 388.426 488.362 367.349 426.48 353.775C385.051 344.688 341.534 338.443 297.129 335.211C266.322 332.97 233.628 333.17 191.125 335.867C182.416 336.426 173.505 337.084 164.638 337.826C156.262 338.537 147.754 339.352 138.745 340.213C105.479 343.393 67.7725 346.999 24.6177 346.326C1.8714 345.971 -21.3622 345 -43.83 344.063C-69.3645 342.997 -95.7675 341.894 -120.8 341.745C-145.899 341.595 -169.359 342.801 -190.512 345.333C-266.174 354.383 -326.154 374.426 -350.956 398.947L-351.659 398.689C-345.218 392.318 -336.439 386.201 -325.568 380.506C-315.074 375.007 -302.58 369.876 -288.429 365.251C-260.942 356.265 -227.137 349.207 -190.673 344.846C-169.462 342.31 -145.95 341.1 -120.793 341.249C-95.7382 341.399 -69.3206 342.502 -43.775 343.57C-21.3145 344.507 1.90802 345.478 24.6359 345.833C67.7139 346.504 105.38 342.903 138.609 339.726C147.623 338.863 156.138 338.051 164.517 337.338C173.395 336.596 182.314 335.937 191.03 335.376C233.599 332.677 266.348 332.475 297.221 334.722C341.688 337.958 385.267 344.212 426.755 353.313C488.721 366.904 548.664 388.004 627.192 423.862C666.653 441.882 710.71 463.787 770.034 494.888C801.218 511.279 827.885 523.827 853.962 534.38C919.061 560.726 988.135 578.432 1059.26 587.004C1083.87 589.975 1109.49 592.117 1135.4 593.372C1166.96 594.851 1198.04 595.041 1227.78 593.933C1276 592.135 1327.62 588.637 1378.43 575.312C1404.18 568.558 1426.98 559.225 1448.12 546.783C1484.71 525.247 1511.25 498.091 1536.91 471.829C1551.04 457.366 1564.39 443.705 1578.76 431.681C1582.53 428.531 1586.35 425.295 1590.03 422.164C1604.97 409.496 1620.42 396.398 1637.84 384.435C1657.12 371.113 1677.34 360.575 1697.93 353.112C1722.05 344.371 1746.15 340.102 1769.56 340.417C1783.85 340.611 1798.29 342.119 1813.73 345.025C1853.5 352.516 1891.73 369.118 1928.7 385.177C1930.39 385.913 1932.08 386.648 1933.77 387.379C1969.31 402.797 2003.54 420.949 2035.51 441.331C2101.8 483.479 2161.54 536.987 2213.07 600.37L2212.33 600.579Z" fill="#FFE492"/>
<path d="M1246.07 594.196C1244.01 594.196 1241.99 594.194 1239.99 594.187C1210.37 594.112 1179.26 592.725 1147.54 590.062C1121.69 587.85 1096.2 584.796 1071.79 580.99C1036.91 575.562 1001.9 567.76 967.733 557.803C934.739 548.188 901.51 536.265 868.966 522.364C837.078 508.744 807.293 493.568 784.906 481.868C732.525 454.567 682.687 431.747 636.777 414.042C562.419 385.367 496.155 367.886 428.235 359.03C387.261 353.688 343.3 350.87 300.973 350.87C300.317 350.87 299.665 350.87 299.009 350.872C262.647 350.947 228.125 355.006 196.24 359.382C187.941 360.529 179.357 361.782 170.724 363.109C165.994 363.845 161.256 364.602 156.244 365.403C120.89 371.063 80.8164 377.475 32.1325 376.949C2.48324 376.628 -27.7999 374.783 -57.0865 372.998C-75.9965 371.844 -95.5477 370.653 -114.198 369.934C-139.835 368.945 -163.427 369.262 -184.327 370.88C-259.586 376.7 -322.362 392.339 -352.256 412.715L-352.945 412.351C-337.611 401.902 -314.546 392.854 -284.391 385.457C-255.592 378.396 -221.029 373.165 -184.444 370.336C-163.49 368.716 -139.835 368.395 -114.139 369.388C-95.4707 370.107 -75.9085 371.301 -56.9912 372.454C-27.723 374.239 2.54184 376.084 32.1508 376.403C80.7101 376.929 120.714 370.526 156.009 364.877C161.025 364.074 165.763 363.316 170.497 362.581C179.137 361.254 187.729 359.999 196.035 358.852C227.975 354.469 262.556 350.403 299.005 350.326C342.006 350.236 386.755 353.062 428.43 358.498C463.483 363.07 497.467 369.799 532.316 379.071C565.878 388.002 600.21 399.291 637.268 413.584C683.215 431.303 733.089 454.14 785.503 481.458C807.872 493.152 837.635 508.317 869.49 521.921C935.527 550.129 1003.67 569.825 1072.02 580.464C1096.4 584.266 1121.85 587.315 1147.67 589.525C1179.35 592.184 1210.41 593.571 1239.99 593.643C1286.28 593.758 1340.03 592.82 1392.46 580.129C1418.99 573.706 1441.95 564.313 1462.64 551.415C1498.98 528.763 1523.06 499.69 1546.36 471.572C1558.35 457.109 1569.67 443.448 1581.97 431.622C1585.92 427.833 1589.9 423.93 1593.74 420.155C1606.74 407.4 1620.18 394.214 1635.67 382.026C1653.36 368.003 1672.35 356.629 1692.11 348.219C1715.01 338.47 1738.36 333.015 1761.5 332.006C1775.79 331.384 1790.29 332.02 1805.83 333.952C1847.38 339.117 1888.57 354.121 1930.62 370.361C1967.28 384.52 2003.77 402.56 2036.14 422.533C2072.1 444.654 2105.89 470.606 2136.56 499.666C2163.88 525.556 2188.91 554.054 2210.95 584.371L2210.11 584.591C2162.78 519.484 2104.03 465.089 2035.49 422.918C2003.16 402.974 1966.73 384.96 1930.13 370.825C1888.15 354.614 1847.04 339.639 1805.64 334.492C1790.19 332.57 1775.77 331.938 1761.57 332.557C1719.04 334.413 1674.59 352.098 1636.4 382.36C1620.94 394.527 1607.51 407.702 1594.52 420.443C1590.68 424.221 1586.69 428.126 1582.75 431.915C1570.47 443.718 1559.15 457.369 1547.18 471.819C1535.75 485.614 1523.93 499.881 1510.37 513.596C1494.99 529.144 1479.6 541.639 1463.3 551.798C1442.52 564.753 1419.46 574.188 1392.8 580.642C1369.29 586.335 1344.02 590.097 1315.55 592.149C1291.43 593.877 1267.22 594.196 1246.07 594.196Z" fill="#FFE492"/>
<path d="M1304.82 595.299C1286.14 595.299 1268.19 594.629 1252.14 593.951C1222.62 592.705 1191.52 590.119 1159.73 586.262C1133.98 583.094 1108.66 579.136 1084.45 574.494C1018.18 561.807 952.74 540.69 884.41 509.939C854.61 496.531 826.518 482.103 800.306 468.477C748.555 441.653 696.929 419.904 646.853 403.83C573.206 380.189 504.301 367.622 430.002 364.28C387.667 362.376 343.025 363.153 300.896 366.525C265.633 369.348 232.39 376.159 201.356 382.89C193.591 384.583 185.333 386.432 176.814 388.385C174.685 388.876 172.538 389.375 170.362 389.88C134.619 398.183 94.1755 407.578 42.271 407.578C41.3953 407.578 40.5233 407.576 39.6403 407.57C4.52426 407.356 -31.3282 404.345 -66.0045 401.43C-79.7519 400.274 -93.9683 399.081 -107.609 398.115C-134.254 396.231 -157.33 395.674 -178.16 396.418C-253.921 399.125 -317.869 410.079 -353.601 426.477L-354.213 425.995C-336.549 417.89 -311.007 410.852 -280.357 405.643C-250.21 400.521 -214.892 397.122 -178.223 395.812C-157.334 395.066 -134.199 395.623 -107.496 397.512C-93.8401 398.478 -79.62 399.673 -65.869 400.827C-31.2256 403.737 4.59388 406.746 39.6439 406.96C92.6294 407.286 133.732 397.734 169.992 389.309C172.164 388.805 174.315 388.306 176.444 387.813C184.97 385.858 193.232 384.009 201.004 382.316C232.089 375.571 265.395 368.751 300.753 365.92C342.948 362.543 387.664 361.764 430.067 363.67C466.887 365.326 501.992 369.235 537.387 375.619C573.84 382.195 609.799 391.244 647.318 403.29C697.457 419.386 749.149 441.162 800.955 468.012C827.156 481.634 855.23 496.053 885.004 509.448C953.242 540.157 1018.58 561.244 1084.75 573.91C1108.92 578.544 1134.21 582.498 1159.92 585.661C1191.67 589.513 1222.72 592.098 1252.2 593.339C1301.8 595.431 1354.57 596.505 1406.48 584.932C1433.8 578.841 1456.91 569.389 1477.15 556.033C1513.19 532.243 1535.63 499.793 1555.42 471.162C1565.38 456.757 1574.79 443.15 1585.17 431.551C1588.92 427.366 1592.69 423.041 1596.33 418.858C1607.74 405.771 1619.53 392.239 1633.48 379.601C1649.63 364.879 1667.39 352.668 1686.28 343.308C1707.97 332.559 1730.56 325.919 1753.43 323.579C1767.73 322.115 1782.28 321.882 1797.92 322.86C1841.61 325.596 1886 339.116 1927.46 353.322C1965.75 366.437 2003.54 383.863 2036.77 403.715C2073.73 425.733 2107.78 451.944 2137.98 481.616C2164.98 508.151 2188.82 537.333 2208.83 568.354L2207.89 568.572C2165.36 502.633 2105.94 445.774 2036.06 404.142C2002.9 384.328 1965.18 366.935 1926.97 353.846C1885.6 339.673 1841.33 326.186 1797.82 323.46C1782.27 322.487 1767.81 322.721 1753.61 324.174C1711.38 328.495 1669.02 348.296 1634.33 379.932C1620.4 392.543 1608.62 406.062 1597.23 419.136C1593.59 423.32 1589.82 427.646 1586.07 431.835C1575.71 443.408 1566.31 457.001 1556.36 471.391C1536.53 500.066 1514.06 532.569 1477.89 556.438C1457.55 569.866 1434.3 579.372 1406.83 585.498C1383 590.812 1357.28 593.89 1328.21 594.9C1320.36 595.186 1312.53 595.299 1304.82 595.299Z" fill="#FFE492"/>
<path d="M1341.7 597.683C1341.43 597.683 1341.17 597.683 1340.9 597.683C1314.5 597.643 1288.58 595.701 1264.28 593.716C1234.81 591.308 1203.73 587.519 1171.92 582.46C1146.29 578.342 1121.13 573.474 1097.13 567.998C1033.5 553.497 970.818 531.103 899.865 497.517C874.312 485.425 849.166 472.404 824.844 459.814C821.803 458.238 818.758 456.664 815.713 455.09C763.695 428.273 710.277 407.592 656.947 393.622C583.92 374.494 510.269 366.614 431.786 369.53C388.752 371.131 344.15 375.505 302.801 382.179C270.177 387.447 241.106 395.898 206.489 406.399C199.472 408.536 191.979 410.843 182.914 413.661L182.409 413.819C164.92 419.292 145.098 425.493 122.865 430.208C97.33 435.624 72.5575 438.23 47.1548 438.199C7.54312 438.14 -32.8821 433.711 -71.9735 429.425C-81.5513 428.375 -91.4588 427.289 -101.022 426.308C-128.447 423.497 -151.662 422.077 -171.994 421.969C-246.857 421.573 -313.55 428.238 -354.968 440.253L-355.444 439.659C-335.157 433.772 -307.79 428.995 -276.305 425.843C-244.762 422.684 -208.686 421.117 -171.983 421.311C-151.593 421.418 -128.319 422.841 -100.835 425.658C-91.2646 426.64 -81.3571 427.725 -71.7757 428.775C-32.7318 433.055 7.64203 437.479 47.1585 437.539C47.3344 437.539 47.5139 437.539 47.6898 437.539C104.215 437.539 147.278 424.067 181.903 413.234L182.412 413.075C191.481 410.255 198.974 407.948 205.994 405.811C240.67 395.293 269.792 386.826 302.519 381.543C343.937 374.856 388.612 370.475 431.72 368.872C470.126 367.446 506.352 368.533 542.476 372.201C581.402 376.152 618.992 382.961 657.387 393.019C710.819 407.015 764.329 427.73 816.431 454.591C819.476 456.165 822.521 457.741 825.562 459.317C849.873 471.902 875.012 484.919 900.542 497.002C971.405 530.546 1033.99 552.909 1097.52 567.386C1121.48 572.856 1146.61 577.714 1172.2 581.829C1203.97 586.881 1235 590.663 1264.43 593.066C1317.15 597.377 1368.75 600.366 1420.53 589.764C1448.62 584.01 1471.9 574.498 1491.67 560.682C1527.39 535.726 1546.91 501.145 1564.13 470.632C1572.19 456.347 1579.8 442.853 1588.39 431.514C1591.7 427.151 1595.01 422.638 1598.22 418.273C1608.24 404.624 1618.61 390.514 1631.32 377.209C1645.95 361.779 1662.49 348.73 1680.46 338.423C1700.96 326.677 1722.79 318.858 1745.37 315.186C1759.37 312.91 1773.66 311.8 1789.01 311.8C1789.34 311.8 1789.68 311.8 1790.01 311.802C1837.74 311.952 1886.86 324.98 1924.32 336.312C1964.22 348.386 2003.33 365.196 2037.41 384.924C2075.37 406.841 2109.7 433.31 2139.42 463.599C2166.09 490.779 2188.74 520.644 2206.72 552.37L2205.68 552.584C2178.92 505.378 2127.86 438.056 2036.65 385.402C2002.65 365.718 1963.63 348.948 1923.82 336.902C1886.47 325.6 1837.51 312.61 1790.01 312.463C1774.37 312.408 1759.87 313.513 1745.66 315.824C1703.83 322.628 1663.56 344.545 1632.27 377.537C1619.59 390.811 1609.24 404.906 1599.22 418.539C1596.02 422.907 1592.7 427.422 1589.39 431.787C1580.83 443.097 1573.22 456.574 1565.17 470.843C1547.92 501.411 1528.37 536.058 1492.51 561.112C1472.6 575.02 1449.17 584.596 1420.88 590.387C1396.91 595.294 1371 597.683 1341.7 597.683Z" fill="#FFE492"/>
<path d="M1371.03 600.782C1365.34 600.782 1359.53 600.672 1353.58 600.452C1327.53 599.49 1302.22 596.604 1276.43 593.478C1246.53 589.854 1216.33 585.007 1184.11 578.658C1158.61 573.591 1133.61 567.819 1109.8 561.499C1049.39 545.49 989.41 521.925 915.32 485.092C896.919 475.945 878.526 466.352 860.737 457.073C851.053 452.023 841.043 446.8 831.124 441.699C778.487 414.702 723.285 395.092 667.049 383.412C592.746 367.978 516.381 365.152 433.581 374.771C389.837 379.854 345.275 387.825 304.718 397.822C272.137 405.852 243.756 417.13 213.707 429.07L211.63 429.895C206.936 431.767 202.191 433.664 197.387 435.584C194.621 436.691 191.836 437.805 189.026 438.928C171.505 445.965 152.58 453.307 130.878 458.958C105.681 465.518 80.7579 468.745 54.6774 468.824C11.2588 468.952 -33.0283 462.889 -75.8534 457.02C-81.9649 456.182 -88.289 455.317 -94.4263 454.496C-123.2 450.643 -145.884 448.426 -165.823 447.515C-239.404 444.154 -308.845 446.522 -356.345 454.016L-356.649 453.324C-309.024 445.811 -239.441 443.434 -165.732 446.802C-145.737 447.715 -122.995 449.939 -94.1662 453.798C-88.0253 454.621 -81.7011 455.486 -75.5859 456.325C-33.2847 462.121 10.4417 468.111 53.2851 468.111C53.7468 468.111 54.2085 468.111 54.6738 468.109C110.088 467.941 149.535 453.928 188.37 438.333C191.181 437.211 193.965 436.097 196.732 434.989C201.535 433.068 206.276 431.172 210.974 429.299L213.051 428.473C243.151 416.513 271.58 405.216 304.267 397.159C344.897 387.143 389.536 379.159 433.358 374.067C516.366 364.423 592.937 367.258 667.441 382.734C723.816 394.445 779.146 414.099 831.901 441.155C841.819 446.258 851.833 451.48 861.517 456.532C879.299 465.808 897.688 475.4 916.078 484.54C990.08 521.331 1049.98 544.863 1110.28 560.845C1134.06 567.154 1159.02 572.919 1184.48 577.978C1216.65 584.318 1246.81 589.159 1276.67 592.775C1321.99 598.268 1378.4 605.105 1434.57 594.574C1463.45 589.161 1486.88 579.589 1506.19 565.311C1541.57 539.159 1557.97 502.377 1572.45 469.927C1578.74 455.83 1584.68 442.514 1591.61 431.463C1594.31 427.157 1597.02 422.704 1599.63 418.396C1608.41 403.948 1617.49 389.01 1629.15 374.802C1642.3 358.655 1657.61 344.767 1674.64 333.523C1693.94 320.781 1715.03 311.784 1737.3 306.781C1751.6 303.569 1766.25 301.59 1782.1 300.729C1803.32 299.576 1825.91 300.808 1851.16 304.489C1872.52 307.606 1895.42 312.445 1921.17 319.284C1962.7 330.315 2003.11 346.511 2038.04 366.118C2077.02 387.931 2111.61 414.662 2140.85 445.565C2167.18 473.392 2188.64 503.942 2204.61 536.37L2203.47 536.573C2169.74 468.111 2110.7 407.761 2037.23 366.642C2002.39 347.087 1962.09 330.938 1920.68 319.94C1865.2 305.204 1821.21 299.325 1782.21 301.442C1766.46 302.296 1751.92 304.262 1737.72 307.45C1684.72 319.353 1650 350.819 1630.22 375.117C1618.59 389.289 1609.52 404.21 1600.75 418.64C1598.13 422.95 1595.42 427.406 1592.72 431.714C1585.81 442.732 1579.88 456.032 1573.6 470.112C1559.1 502.632 1542.66 539.492 1507.11 565.763C1487.65 580.153 1464.03 589.801 1434.92 595.259C1415.19 598.957 1394.15 600.782 1371.03 600.782Z" fill="#FFE492"/>
<path d="M1396.43 604.335C1357.68 604.335 1320.43 598.354 1288.56 593.238C1258.58 588.426 1228.4 582.412 1196.28 574.855C1170.93 568.845 1146.09 562.166 1122.46 555.001C1051.62 533.546 988.461 502.752 930.767 472.668C918.987 466.526 907.086 460.195 895.581 454.073C879.606 445.572 863.085 436.782 846.531 428.311C793.106 401.047 736.119 382.505 677.158 373.2C600.884 361.165 521.796 363.391 435.376 380.007C390.88 388.561 346.363 400.129 306.634 413.461C275.991 423.741 250.065 436.72 222.618 450.461C220.672 451.434 218.723 452.411 216.762 453.389L215.7 453.921C209.028 457.265 202.128 460.721 195.134 464.191C178.374 472.54 159.919 481.176 138.572 487.774C113.792 495.432 88.8111 499.251 62.192 499.45C15.4683 499.8 -32.153 491.908 -78.2024 484.276C-81.4304 483.741 -84.6437 483.208 -87.8424 482.682C-118.21 477.676 -140.363 474.709 -159.665 473.058C-231.399 466.925 -303.595 464.996 -357.742 467.768L-357.852 466.999C-303.617 464.221 -231.315 466.152 -159.485 472.294C-140.128 473.949 -117.928 476.923 -87.5053 481.938C-84.3066 482.464 -81.0933 482.997 -77.8616 483.534C-31.9001 491.15 15.6296 499.023 62.1737 498.679C119.981 498.248 160.692 480.344 194.313 463.596C201.308 460.127 208.207 456.671 214.879 453.329L215.942 452.796C217.902 451.817 219.851 450.842 221.797 449.869C249.292 436.104 275.262 423.102 306.007 412.787C345.809 399.431 390.411 387.843 434.984 379.274C475.955 371.397 514.439 366.849 552.629 365.37C595.23 363.721 637.235 366.105 677.48 372.456C736.629 381.79 793.784 400.384 847.359 427.723C863.924 436.198 880.449 444.99 896.428 453.494C907.933 459.616 919.826 465.945 931.602 472.085C989.237 502.135 1052.32 532.897 1123.03 554.312C1146.63 561.466 1171.43 568.136 1196.75 574.137C1228.81 581.683 1258.95 587.688 1288.89 592.494C1334.86 599.873 1392.07 609.057 1448.6 599.393C1478.26 594.321 1501.84 584.69 1520.69 569.95C1555.71 542.567 1568.81 503.522 1580.37 469.071C1585.01 455.229 1589.4 442.155 1594.81 431.419C1596.81 427.448 1598.82 423.345 1600.76 419.376C1608.36 403.852 1616.22 387.797 1626.96 372.403C1638.66 355.525 1652.73 340.794 1668.79 328.623C1686.91 314.889 1707.24 304.714 1729.21 298.381C1743.48 294.268 1758.18 291.418 1774.16 289.663C1795.69 287.301 1819.58 287.38 1845.17 289.899C1867.57 292.105 1892.07 296.263 1917.99 302.262C1961.14 312.249 2002.86 327.828 2038.66 347.314C2078.65 369.026 2113.51 396.015 2142.27 427.534C2168.25 456.008 2188.52 487.245 2202.49 520.376L2201.24 520.565C2171.64 450.364 2113.6 389.039 2037.8 347.887C2002.12 328.464 1960.53 312.936 1917.53 302.981C1861.79 290.079 1814.97 285.969 1774.39 290.423C1758.53 292.164 1743.93 294.995 1729.77 299.076C1677.49 314.144 1645.65 347.429 1628.15 372.7C1617.43 388.055 1609.58 404.087 1601.99 419.591C1600.05 423.56 1598.04 427.666 1596.04 431.641C1590.65 442.342 1586.26 455.398 1581.63 469.223C1576.06 485.797 1569.76 504.581 1560.61 522.192C1550.13 542.369 1537.4 558.144 1521.71 570.419C1512.64 577.516 1502.21 583.556 1490.71 588.373C1478.35 593.553 1464.3 597.511 1448.95 600.135C1431.38 603.14 1413.75 604.335 1396.43 604.335Z" fill="#FFE492"/>
<path d="M1419.33 608.233C1406.52 608.233 1393.1 607.485 1378.92 605.99C1351 603.047 1324.28 597.706 1300.7 592.998C1270.98 587.061 1239.94 579.675 1208.46 571.048C1183.27 564.105 1158.6 556.519 1135.12 548.497C1067.75 525.5 1009.71 494.921 946.214 460.241C940.572 457.159 934.841 454.015 929.301 450.973C907.482 439 884.923 426.62 861.938 414.922C807.626 387.339 748.859 369.867 687.267 362.99C609.575 354.314 525.427 361.799 437.172 385.239C391.884 397.267 347.407 412.43 308.55 429.092C279.293 441.637 255.209 456.428 229.711 472.089C227.121 473.68 224.519 475.276 221.903 476.879C215.392 480.872 208.379 485.158 201.245 489.448C186.285 498.476 168.053 508.763 146.27 516.584C121.886 525.341 96.8426 529.755 69.7142 530.074C20.052 530.662 -30.5005 520.782 -79.3895 511.229L-81.2509 510.865C-105.188 506.19 -130.51 501.466 -153.498 498.597C-223.569 489.856 -296.596 483.787 -359.123 481.508L-359.039 480.685C-296.446 482.965 -223.353 489.039 -153.22 497.789C-130.166 500.666 -104.8 505.397 -80.8258 510.079L-78.9645 510.443C-30.1817 519.974 20.2682 529.83 69.6886 529.247C126.763 528.573 166.181 509.439 200.274 488.861C207.408 484.572 214.414 480.286 220.925 476.295C223.541 474.695 226.142 473.097 228.733 471.507C254.275 455.821 278.402 441.003 307.755 428.416C346.685 411.721 391.247 396.529 436.618 384.479C478.026 373.484 518.773 365.906 557.722 361.962C602.225 357.455 645.896 357.526 687.523 362.173C749.35 369.076 808.334 386.61 862.829 414.288C885.831 425.997 908.402 438.382 930.232 450.361C935.772 453.401 941.503 456.545 947.145 459.627C1010.58 494.274 1068.56 524.82 1135.81 547.778C1159.25 555.786 1183.89 563.361 1209.04 570.295C1240.48 578.909 1271.46 586.284 1301.14 592.212C1347.66 601.506 1405.56 613.07 1462.65 604.209C1493.1 599.483 1516.84 589.795 1535.22 574.588C1569.85 545.937 1579.87 502.753 1587.92 468.053C1591.06 454.537 1594.02 441.772 1598.03 431.381C1599.3 428.106 1600.58 424.731 1601.81 421.466C1608.22 404.507 1614.86 386.969 1624.81 370.01C1640.17 343.618 1669.35 308.313 1721.14 289.991C1735.45 284.932 1750.2 281.207 1766.25 278.605C1808.24 271.7 1858.23 273.934 1914.84 285.242C1959.61 294.187 2002.64 309.149 2039.3 328.514C2080.3 350.123 2115.43 377.371 2143.71 409.509C2156.69 424.249 2168.15 439.993 2177.8 456.303C2187.01 471.882 2194.61 488.059 2200.38 504.387L2199.04 504.558C2173.59 432.614 2116.53 370.314 2038.39 329.133C2001.87 309.84 1959 294.935 1914.4 286.024C1858.06 274.766 1808.33 272.538 1766.61 279.4C1750.68 281.982 1736.03 285.678 1721.84 290.7C1670.41 308.894 1641.39 344.018 1626.1 370.281C1616.18 387.196 1609.56 404.71 1603.15 421.647C1601.91 424.911 1600.64 428.288 1599.37 431.566C1595.37 441.921 1592.41 454.669 1589.28 468.166C1585.23 485.627 1580.64 505.417 1572.79 524.095C1563.77 545.559 1551.84 562.234 1536.33 575.072C1527.48 582.396 1517.12 588.573 1505.56 593.429C1493.1 598.662 1478.78 602.558 1462.99 605.006C1449.14 607.159 1434.67 608.233 1419.33 608.233Z" fill="#FFE492"/>
<path d="M1440.44 612.35C1425.08 612.35 1408.89 611.155 1391.6 608.758C1363.58 604.877 1336.62 598.436 1312.83 592.752C1282.88 585.597 1251.87 577.014 1220.64 567.238C1195.62 559.368 1171.1 550.875 1147.79 541.993C1083.62 517.569 1028.59 486.09 970.323 452.766C967.44 451.117 964.556 449.466 961.665 447.815C934.57 432.335 906.555 416.327 877.349 401.534C822.092 373.601 761.544 357.196 697.387 352.776C616.8 347.222 529.857 359.904 438.967 390.465C393.504 405.751 347.868 425.02 310.466 444.72C282.224 459.594 259.573 476.331 235.592 494.052C232.752 496.15 229.905 498.254 227.036 500.363C221.306 504.583 214.487 509.587 207.349 514.705C194.129 524.208 176.117 536.285 153.964 545.37C129.969 555.212 104.87 560.229 77.2325 560.702C54.5155 561.043 29.4463 558.937 0.588436 554.259C-24.1877 550.244 -48.154 544.996 -74.6742 539.052C-98.8824 533.56 -124.432 527.887 -147.354 524.14C-215.252 513.041 -286.971 503.322 -360.516 495.247L-360.252 494.382C-286.664 502.459 -214.904 512.187 -146.969 523.29C-123.985 527.048 -98.3988 532.73 -74.1613 538.226C-29.7093 548.192 25.6137 560.599 77.1922 559.822C136.161 558.809 174.058 537.267 206.224 514.137C213.358 509.023 220.173 504.022 225.9 499.804C228.769 497.695 231.616 495.591 234.452 493.495C258.473 475.746 281.165 458.98 309.499 444.057C346.978 424.318 392.701 405.012 438.252 389.697C529.417 359.043 616.661 346.328 697.555 351.902C728.571 354.04 759.038 359.004 788.101 366.655C819.285 374.864 849.63 386.375 878.294 400.862C907.533 415.671 935.566 431.688 962.677 447.179C965.567 448.832 968.455 450.481 971.338 452.129C1029.55 485.425 1084.53 516.873 1148.57 541.251C1171.86 550.12 1196.33 558.602 1221.32 566.459C1252.5 576.22 1283.47 584.792 1313.37 591.935C1360.37 603.162 1418.86 617.134 1476.69 609.031C1508.02 604.641 1531.91 594.894 1549.73 579.233C1584.05 549.321 1590.16 503.628 1595.07 466.914C1596.83 453.783 1598.49 441.38 1601.24 431.351C1601.81 429.282 1602.38 427.201 1602.95 425.11C1608.08 406.22 1613.4 386.686 1622.63 367.622C1635.82 340.202 1662.2 303.021 1713.06 281.606C1727.25 275.632 1742.05 271.035 1758.32 267.553C1780.93 262.668 1806.13 260.372 1833.21 260.724C1857.93 261.046 1884.33 263.571 1911.67 268.227C1958.05 276.123 2002.4 290.469 2039.92 309.713C2081.93 331.216 2117.33 358.728 2145.14 391.482C2157.9 406.511 2168.94 422.579 2177.97 439.238C2186.62 455.194 2193.45 471.735 2198.26 488.401L2196.82 488.551C2175.84 415.926 2118.3 350.986 2038.97 310.382C2001.61 291.222 1957.45 276.935 1911.27 269.07C1854.32 259.371 1801.61 259.133 1758.81 268.378C1742.66 271.835 1727.97 276.396 1713.9 282.324C1663.39 303.591 1637.15 340.58 1624.04 367.864C1614.83 386.877 1609.52 406.383 1604.39 425.249C1603.82 427.34 1603.25 429.423 1602.69 431.492C1599.94 441.484 1598.29 453.871 1596.53 466.982C1591.6 503.802 1585.47 549.627 1550.93 579.731C1542.34 587.279 1532.07 593.597 1520.41 598.504C1507.86 603.783 1493.26 607.613 1477.02 609.889C1465.3 611.527 1453.16 612.35 1440.44 612.35Z" fill="#FFE492"/>
<path d="M1460.27 616.637C1442.77 616.637 1424.24 614.937 1404.27 611.525C1376.01 606.698 1348.88 599.158 1324.95 592.508C1294.71 584.103 1263.71 574.318 1232.81 563.43C1207.97 554.647 1183.62 545.245 1160.44 535.49C1103.36 511.478 1054.59 482.062 1002.94 450.917C994.499 445.825 985.768 440.562 977.106 435.386C946.658 417.203 920.658 402.21 892.749 388.145C836.507 359.843 774.182 344.506 707.5 342.56C623.711 340.114 533.961 357.989 440.748 395.687C394.442 414.416 348.847 437.376 312.365 460.341C284.881 477.641 263.395 496.474 240.649 516.411C237.831 518.881 235.002 521.36 232.155 523.841C227.084 528.268 220.372 534.101 213.443 539.95C184.285 564.623 146.19 590.025 84.7408 591.323C82.8245 591.361 80.9009 591.378 78.981 591.378C30.9969 591.378 -17.9911 579.969 -68.1076 567.23L-71.2366 566.428C-96.0604 560.062 -119.51 554.05 -141.216 549.674C-223.015 533.181 -302.125 519.26 -361.907 508.975L-361.479 508.075C-301.682 518.364 -222.55 532.288 -140.721 548.787C-118.957 553.174 -95.4815 559.195 -70.6248 565.568L-67.4993 566.369C-15.5472 579.575 35.1886 591.354 84.6858 590.39C145.454 589.104 183.23 563.899 212.172 539.411C219.097 533.567 225.802 527.737 230.873 523.313C233.72 520.829 236.545 518.353 239.363 515.883C262.145 495.915 283.664 477.051 311.236 459.696C347.792 436.683 393.479 413.677 439.876 394.91C482.939 377.493 526.017 364.12 567.912 355.158C615.98 344.876 662.971 340.323 707.573 341.624C774.599 343.579 837.239 358.991 893.746 387.426C921.695 401.512 947.721 416.521 978.198 434.719C986.863 439.895 995.595 445.16 1004.04 450.252C1055.63 481.366 1104.37 510.754 1161.33 534.718C1184.48 544.461 1208.79 553.848 1233.6 562.618C1264.45 573.492 1295.4 583.262 1325.6 591.654C1373.01 604.829 1432.01 621.224 1490.73 613.843C1522.82 609.808 1546.87 600.003 1564.23 583.87C1598.11 552.595 1600.15 504.33 1601.79 465.549C1602.32 452.896 1602.83 440.943 1604.45 431.312L1604.48 431.091C1608.11 409.525 1611.85 387.225 1620.45 365.223C1627.89 346.031 1638.25 328.777 1651.25 313.936C1665.91 297.203 1683.98 283.502 1704.96 273.211C1719 266.325 1733.86 260.855 1750.37 256.489C1794.99 244.626 1849.66 242.795 1908.49 251.197C1932.16 254.579 1955.51 259.701 1977.9 266.42C2000.41 273.178 2021.49 281.417 2040.54 290.905C2083.57 312.304 2119.24 340.077 2146.56 373.451C2171.12 403.449 2188.26 437.669 2196.14 472.409L2194.6 472.534C2177.74 398.181 2121.23 332.242 2039.54 291.625C2001.35 272.601 1955.9 258.935 1908.13 252.113C1849.64 243.759 1795.31 245.571 1751.01 257.352C1734.62 261.684 1719.89 267.111 1705.95 273.942C1666.77 293.157 1637.73 324.797 1621.97 365.441C1613.4 387.386 1609.66 409.655 1606.04 431.191L1606 431.411C1604.39 441.006 1603.88 452.942 1603.35 465.578C1601.7 504.478 1599.66 552.888 1565.53 584.382C1557.16 592.162 1546.96 598.616 1535.23 603.565C1522.58 608.901 1507.72 612.668 1491.04 614.765C1481.11 616.011 1470.88 616.637 1460.27 616.637Z" fill="#FFE492"/>
<path d="M85.8798 622.027C64.4233 622.027 41.0578 619.515 14.6879 614.386C-11.5136 609.29 -37.4256 602.255 -61.5275 595.413C-65.8913 594.167 -70.2222 592.923 -74.5238 591.688C-95.9363 585.54 -116.162 579.733 -135.064 575.209C-210.437 557.178 -282.281 540.971 -351.762 525.302L-363.274 522.704L-362.696 521.778L-351.183 524.375C-281.699 540.049 -209.843 556.255 -134.456 574.291C-115.502 578.826 -95.2512 584.639 -73.813 590.797C-69.5151 592.032 -65.1842 593.275 -60.824 594.519C-11.3487 608.564 41.2154 622.175 92.1966 620.962C154.866 619.394 192.422 590.064 218.136 564.689C224.724 558.199 231.07 551.731 235.863 546.822C238.508 544.117 241.135 541.414 243.755 538.717C265.483 516.362 286.005 495.247 312.994 475.338C348.62 449.063 394.262 422.351 441.521 400.129C485.365 379.511 529.608 363.221 573.026 351.712C622.828 338.511 671.471 331.66 717.605 331.35C787.024 330.729 851.499 345.078 909.215 373.992C941.209 390.04 969.895 407.4 993.74 422.266C1006.71 430.356 1019.69 438.648 1032.24 446.668C1076.66 475.058 1122.59 504.413 1174.1 528.19C1197.11 538.814 1221.27 549.107 1245.88 558.782C1276.35 570.729 1307.29 581.696 1337.85 591.378C1385.61 606.51 1445.05 625.342 1504.77 618.659C1537.64 614.981 1561.84 605.119 1578.74 588.509C1612.18 555.817 1609.92 504.909 1608.1 464.003C1607.57 451.907 1607.06 440.48 1607.67 431.28C1609.04 410.541 1611.11 386.439 1618.28 362.831C1624.33 342.828 1633.45 324.73 1645.4 309.044C1658.92 291.299 1676.25 276.422 1696.89 264.825C1710.57 257.14 1725.9 250.618 1742.45 245.436C1766.06 238.017 1792.57 233.352 1821.22 231.574C1848.06 229.907 1876.35 230.783 1905.32 234.176C1929.74 237.037 1953.82 241.744 1976.88 248.168C2000.08 254.631 2021.71 262.683 2041.17 272.101C2063.6 282.944 2084.22 295.75 2102.47 310.162C2119.75 323.817 2135.07 339.046 2148 355.424C2172.19 386.064 2188.11 420.991 2194.03 456.422L2192.39 456.521C2179.67 380.436 2124.18 313.499 2040.13 272.873C2001.64 254.245 1953.66 240.848 1905 235.149C1844.84 228.102 1788.9 231.963 1743.21 246.314C1726.79 251.454 1711.58 257.926 1698.01 265.549C1659.12 287.4 1632.83 320.189 1619.9 363.01C1612.75 386.553 1610.68 410.614 1609.31 431.32C1608.71 440.486 1609.21 451.896 1609.75 463.977C1610.64 484.157 1611.66 507.031 1608.26 529.143C1604.31 554.802 1595.12 574.39 1580.15 589.027C1572 597.035 1561.88 603.628 1550.07 608.621C1537.32 614.014 1522.18 617.719 1505.08 619.632C1496.45 620.598 1487.83 621.037 1479.26 621.037C1427.93 621.037 1378.2 605.279 1337.08 592.252C1306.48 582.555 1275.49 571.572 1244.99 559.608C1220.33 549.92 1196.14 539.611 1173.1 528.972C1121.48 505.146 1075.5 475.761 1031.04 447.343C1018.49 439.326 1005.52 431.036 992.557 422.95C968.744 408.102 940.099 390.767 908.163 374.75C850.759 345.989 786.661 331.724 717.631 332.336C609.223 333.067 508.199 370.025 442.539 400.904C395.376 423.082 349.825 449.736 314.277 475.959C287.368 495.808 266.875 516.891 245.181 539.21C242.561 541.907 239.93 544.61 237.285 547.318C232.488 552.229 226.139 558.701 219.547 565.197C208.753 575.849 191.807 591.356 169.361 602.979C158.46 608.623 146.86 613.059 134.882 616.165C121.527 619.628 107.186 621.574 92.2662 621.946C90.1521 622.001 88.0233 622.027 85.8798 622.027Z" fill="#FFE492"/>
<path d="M92.7689 652.675C71.2867 652.675 47.9689 649.969 21.7381 644.449C-5.4196 638.734 -32.2696 630.699 -54.9499 623.591C-61.9188 621.403 -68.8732 619.184 -75.6003 617.037C-94.4041 611.039 -112.167 605.37 -128.915 600.743C-189.06 584.123 -248.813 567.897 -306.602 552.203C-325.717 547.012 -345.481 541.646 -364.637 536.433L-363.919 535.48C-344.763 540.692 -324.999 546.059 -305.884 551.25C-248.095 566.943 -188.335 583.172 -128.186 599.794C-111.394 604.435 -93.609 610.107 -74.7832 616.115C-68.0597 618.261 -61.1054 620.478 -54.1438 622.666C-7.10506 637.402 47.4559 653.001 99.7012 651.532C163.847 649.688 199.876 617.66 224.102 589.965C230.313 582.87 236.318 575.747 240.854 570.334C243.184 567.555 245.5 564.779 247.812 562.01C268.594 537.102 288.223 513.576 314.757 490.984C349.269 461.6 394.875 431.188 443.167 405.351C510.42 369.524 614.364 325.823 727.634 321.084C799.669 317.988 865.969 331.271 924.685 360.567C951.066 373.735 977.154 388.925 1009.28 409.822C1025.52 420.382 1041.63 431.327 1057.21 441.909C1097.74 469.441 1139.65 497.911 1186.88 521.675C1209.75 533.19 1233.74 544.388 1258.17 554.959C1287.76 567.747 1318.68 579.912 1350.09 591.116C1398.34 608.223 1458.38 629.517 1518.82 623.489C1551.95 620.253 1576.99 610.05 1593.25 593.166C1626.22 558.994 1619.15 503.089 1613.98 462.269C1612.53 450.813 1611.16 439.994 1610.89 431.265C1610.29 411.867 1610.34 386.29 1616.12 360.457C1626.09 315.692 1650.55 280.7 1688.81 256.456C1702.22 247.915 1717.61 240.494 1734.52 234.399C1758.59 225.717 1785.74 219.877 1815.23 217.043C1843.02 214.375 1872.26 214.417 1902.14 217.169C1927.36 219.542 1952.16 223.843 1975.85 229.95C1999.78 236.118 2021.96 243.977 2041.8 253.308C2064.73 264.091 2085.68 276.94 2104.06 291.502C2121.49 305.302 2136.75 320.747 2149.44 337.411C2173.26 368.697 2187.94 404.328 2191.92 440.452L2190.18 440.52C2181.62 362.698 2127.15 294.762 2040.73 254.134C2001.55 235.702 1952.23 222.941 1901.88 218.203C1839.81 212.491 1782.25 218.402 1735.42 235.297C1718.64 241.342 1703.39 248.703 1690.08 257.176C1652.07 281.259 1627.77 316.053 1617.85 360.598C1612.09 386.36 1612.04 411.887 1612.63 431.248C1612.91 439.945 1614.27 450.752 1615.72 462.192C1618.39 483.292 1621.42 507.21 1619.69 530.56C1617.67 557.748 1609.52 578.399 1594.76 593.692C1586.82 601.941 1576.78 608.677 1564.91 613.713C1552.05 619.175 1536.64 622.811 1519.11 624.524C1491.92 627.234 1462.66 624.799 1429.65 617.079C1400.96 610.367 1373.47 600.62 1349.21 592.021C1317.76 580.801 1286.79 568.619 1257.16 555.813C1232.69 545.227 1208.67 534.013 1185.76 522.483C1138.44 498.671 1096.48 470.17 1055.9 442.609C1040.33 432.029 1024.23 421.091 1008.01 410.54C975.934 389.68 949.894 374.519 923.575 361.381C865.207 332.253 799.328 319.049 727.751 322.125C614.969 326.847 511.369 370.414 444.317 406.133C396.121 431.917 350.61 462.265 316.172 491.587C289.71 514.115 270.111 537.608 249.362 562.479C247.05 565.251 244.734 568.026 242.404 570.805C237.864 576.222 231.855 583.352 225.637 590.454C201.198 618.396 164.807 650.709 99.7782 652.578C97.4662 652.642 95.1248 652.675 92.7689 652.675Z" fill="#FFE492"/>
<path d="M99.7962 683.324C41.0986 683.324 -20.49 661.665 -75.0876 642.462C-91.8651 636.563 -107.712 630.989 -122.771 626.276L-366 550.16L-365.154 549.185L-121.925 625.301C-106.825 630.025 -90.9601 635.605 -74.1606 641.514C-17.4525 661.458 46.8254 684.064 107.205 682.104C172.765 679.98 207.302 645.256 230.067 615.245C237.512 605.429 244.701 595.442 251.655 585.782C270.675 559.366 290.34 532.049 316.512 506.626C337.294 486.44 363.111 465.269 391.17 445.406C421.952 423.615 454.91 403.623 489.121 385.985C526.842 366.541 565.197 350.456 603.116 338.179C645.058 324.601 686.377 315.736 725.934 311.829C805.176 304.003 877.247 315.879 940.14 347.132C992.407 373.101 1036.83 405.214 1079.79 436.271C1117.19 463.303 1155.85 491.254 1199.64 515.147C1250.21 542.744 1304.95 568.211 1362.33 590.839C1410.68 609.904 1470.85 633.635 1532.86 628.301C1585.24 623.797 1615.52 602.744 1625.43 563.934C1633.87 530.922 1625.84 491.763 1619.4 460.299C1617.2 449.576 1615.13 439.447 1614.11 431.234C1608.49 385.957 1612.07 348.58 1625.06 316.971C1633.16 297.249 1645.12 279.669 1660.6 264.72C1677.89 248.02 1700.09 234.099 1726.59 223.343C1749.5 214.038 1775.33 207.28 1803.36 203.256C1830.04 199.426 1858.12 198.142 1886.84 199.441C1943.32 201.995 1998.57 214.445 2042.41 234.497C2065.84 245.216 2087.12 258.111 2105.65 272.823C2123.21 286.766 2138.42 302.429 2150.86 319.379C2174.3 351.31 2187.76 387.647 2189.79 424.461L2187.96 424.498C2183.64 346.104 2128.81 275.403 2041.3 235.376C1948.36 192.868 1816.43 188.19 1727.6 224.257C1639.61 259.985 1603.08 327.661 1615.93 431.153C1616.94 439.34 1619.02 449.455 1621.21 460.164C1627.67 491.696 1635.71 530.94 1627.24 564.101C1622.62 582.163 1613.35 596.679 1599.67 607.247C1591.97 613.189 1582.7 618.045 1572.1 621.677C1560.82 625.543 1547.7 628.138 1533.12 629.393C1527.16 629.906 1521.09 630.164 1514.93 630.164C1492.45 630.164 1468.52 626.749 1442.29 619.833C1412.74 612.04 1384.23 600.795 1361.32 591.761C1303.86 569.1 1249.05 543.6 1198.4 515.964C1154.51 492.02 1115.81 464.037 1078.37 436.975C1035.47 405.958 991.099 373.885 938.964 347.981C876.492 316.942 804.915 305.143 726.22 312.916C567.032 328.638 403.053 424.652 318.058 507.207C291.956 532.56 272.317 559.839 253.322 586.22C246.364 595.884 239.172 605.878 231.719 615.703C216.605 635.627 201.678 649.894 184.743 660.597C174.172 667.276 162.704 672.542 150.657 676.247C137.261 680.365 122.671 682.708 107.289 683.207C104.805 683.284 102.302 683.324 99.7962 683.324Z" fill="#FFE492"/>
</g>
</svg>
